/* XPM */
static char *_de958c24dbc4c178aa2254c5877e277Il8YDb2Zg3vElAtM[] = {
/* columns rows colors chars-per-pixel */
"68 35 143 2 ",
"   c None",
".  c #272E40",
"X  c #4C5666",
"o  c #596476",
"O  c #5B6679",
"+  c #515E80",
"@  c #515F85",
"#  c #516389",
"$  c #4B6195",
"%  c #4F679F",
"&  c #5E6E97",
"*  c #5E7097",
"=  c #626E85",
"-  c #67748E",
";  c #6C7992",
":  c #6D7C95",
">  c #6F7E95",
",  c #707D96",
"<  c #5F76AA",
"1  c #6276A2",
"2  c #6475A2",
"3  c #6476A2",
"4  c #6276AA",
"5  c #677BAA",
"6  c #697BAA",
"7  c #657BB2",
"8  c #657CB5",
"9  c #6B7FB0",
"0  c #7485AB",
"q  c #6C80B1",
"w  c #6F83B6",
"e  c #6881BC",
"r  c #7084B2",
"t  c #7084B6",
"y  c #7084B7",
"u  c #7085B7",
"i  c #7488B7",
"p  c #7388BB",
"a  c #7488BA",
"s  c #7489BB",
"d  c #748BBF",
"f  c #758BBF",
"g  c #6381C6",
"h  c #6684CB",
"j  c #6785CB",
"k  c #778DC3",
"l  c #798FC5",
"z  c #798FC6",
"x  c #7B91C9",
"c  c #7B92C9",
"v  c #7A92CC",
"b  c #7D94CC",
"n  c #7D95CC",
"m  c #7E94CD",
"M  c #7F96CF",
"N  c #7F96D0",
"B  c #8393B0",
"V  c #8798B5",
"C  c #899AB6",
"Z  c #8C9DBB",
"A  c #8496C0",
"S  c #899ECF",
"D  c #8198D2",
"F  c #8199D2",
"G  c #8198D3",
"H  c #849BD0",
"J  c #869DD2",
"K  c #839BD6",
"L  c #889ED2",
"P  c #889ED3",
"I  c #849DD9",
"U  c #859DD9",
"Y  c #869FDC",
"T  c #879FDC",
"R  c #8BA0CF",
"E  c #93A5C5",
"W  c #90A4CC",
"Q  c #98AACC",
"!  c #99AACC",
"~  c #9BADCF",
"^  c #8BA1D2",
"/  c #8BA1D3",
"(  c #8DA2D2",
")  c #8FA4D0",
"_  c #8FA4D2",
"`  c #8CA2D6",
"'  c #87A0DD",
"]  c #87A1DE",
"[  c #8AA2D9",
"{  c #8CA3D9",
"}  c #8AA2DC",
"|  c #88A2DF",
" . c #89A2DF",
".. c #8BA3DF",
"X. c #8CA4DC",
"o. c #8CA5DF",
"O. c #93A8D3",
"+. c #96ABD3",
"@. c #9DB0D3",
"#. c #9BB0D9",
"$. c #9DB1D9",
"%. c #A0B3D6",
"&. c #A1B4D7",
"*. c #A4B7DB",
"=. c #A0B4DC",
"-. c #A4B8DB",
";. c #A4B8DE",
":. c #A4B8DF",
">. c #A7BBDF",
",. c #8CA5E2",
"<. c #8EA7E2",
"1. c #8BA5E4",
"2. c #8CA6E5",
"3. c #8DA6E5",
"4. c #8CA7E5",
"5. c #8DA6E6",
"6. c #8FA8E6",
"7. c #8EA8E9",
"8. c #8EA9E9",
"9. c #90ABEC",
"0. c #92ADEF",
"q. c #92AEEF",
"w. c #94AFF2",
"e. c #94B0F2",
"r. c #96B1F5",
"t. c #96B2F5",
"y. c #98B4F9",
"u. c #9AB7FC",
"i. c #9CB9FF",
"p. c #A6BAE2",
"a. c #A9BCE1",
"s. c #AABEE2",
"d. c #AABFE5",
"f. c #ACC0E5",
"g. c #AEC3E9",
"h. c #B0C6EC",
"j. c #B1C6EC",
"k. c #B3C8EF",
"l. c #B5CBF2",
"z. c #B7CEF5",
"x. c #BAD0F9",
"c. c #BAD1F9",
"v. c #BFD6FF",
/* pixels */
"                                                                                                                                        ",
"                                                              u l m c q                                                                 ",
"                    q k m G I Y } } I I K G m k f q     6 c I 7.0.m q                                                                   ",
"                f K 4.e.u.i.i.i.i.i.i.i.i.i.i.r.e.7.Y G I y.i.i.K                                                                       ",
"            * N 9.i.i.i.i.i.i.i.i.i.i.i.i.i.i.i.i.i.i.i.i.i.i.i.I 6                                                                     ",
"            m y.i.i.i.i.i.i.i.i.i.i.i.i.i.i.i.i.i.i.i.i.i.i.i.i.y.G l                                                                   ",
"          # ] i.i.i.i.i.i.i.i.i.i.i.i.i.i.i.i.i.i.i.i.i.i.i.i.i.i.i.9.G u                                                               ",
"        % e ] i.i.. m i.i.i.i.i.i.i.i.i.i.i.i.i.i.i.i.i.i.i.i.i.i.i.i.i.4.c 6                                                           ",
"    $ g j j v 4.i.i.i.i.i.i.i.i.i.i.i.i.i.i.i.i.i.i.i.i.i.i.i.i.i.i.i.i.i.y.I l                                                         ",
"  8 8 7 < 4 9 r s 1.w.i.i.i.i.i.i.i.i.i.i.i.i.i.i.i.i.i.i.i.i.i.i.i.i.i.i.i.i.7.c &                                                     ",
"          : Q -.a.;.#.R } 9.i.i.i.i.i.i.i.i.i.i.i.i.i.i.i.i.i.i.i.i.i.i.i.i.i.i.y.G 6                                                   ",
"              - ~ j.z.c.j.$.S o.w.i.i.i.i.i.i.i.i.i.i.i.i.i.i.i.i.i.i.i.i.i.i.i.i.y.K w                                                 ",
"                    O , Z ~ ;.%.W 6.i.i.9.[ o.,.4.0.w.u.i.i.i.i.i.i.i.i.i.i.i.i.i.i.i.} w                                               ",
"                            @ s P H 4.u.u./ %.f.f.=.#.) ` o.7.r.i.i.i.i.i.i.i.i.i.i.i.i.} w                                             ",
"                              2 G 9.e.m m c i ; E g.z.v.z.k.;.O./ } y.i.i.i.i.i.i.i.i.i.i.I q                                           ",
"                                  l K m 6           o B &.l.v.v.z.a.O.{ 9.i.i.i.i.i.i.i.i.u.G 2                                         ",
"                                      p k                   B *.z.v.v.j.+.P 0.i.i.i.i.i.i.i.y.m                                         ",
"                                                                = C j.c.v.j.O.o.y.i.i.i.i.i.i.7.k                                       ",
"                                                                      : &.c.v.d.) 9.i.i.i.i.i.i.I 6                                     ",
"                                                                          = Q j.c.+.,.i.i.i.i.i.y.m                                     ",
"                                                                              X C g.p.J y.i.i.i.i.7.f                                   ",
"                                                                                    B @.( y.i.i.i.i.G                                   ",
"                                                                                        V A } i.i.i.e.l                                 ",
"                                                                                          o 0 l y.i.i.I &                               ",
"                                                                                              + l 4.i.e.l                               ",
"                                                                                                  u G 9.I &                             ",
"                                                                                                      l I l                             ",
"                                                                                                        c } l u                         ",
"                                                                                                        5 4.y.7.I G m l f p 5           ",
"                                                                                                          m i.i.r.y.i.r.I m k u 1       ",
"                                                                                                          f e.0.m m Y G q               ",
"                                                                                                            K m f     &                 ",
"                                                                                                            u                           ",
"                                                                                                                                        ",
"                                                                                                                                        "
};
