/* XPM */
static char *_1a73255109649a5ec939cd1be254702wmXFBqz5JvqZsB6g[] = {
/* columns rows colors chars-per-pixel */
"35 68 146 2 ",
"   c None",
".  c #31394E",
"X  c #313A50",
"o  c #515E7E",
"O  c #566175",
"+  c #576276",
"@  c #515F83",
"#  c #516389",
"$  c #4B6194",
"%  c #4F679F",
"&  c #5C6E97",
"*  c #5E6E97",
"=  c #5E7097",
"-  c #65718E",
";  c #6475A2",
":  c #6476A2",
">  c #6E7DA1",
",  c #6075A8",
"<  c #6075A9",
"1  c #677BAA",
"2  c #627AB1",
"3  c #657BB2",
"4  c #657CB4",
"5  c #617EC0",
"6  c #76839D",
"7  c #75829E",
"8  c #77859F",
"9  c #7A89A4",
"0  c #6B80B2",
"q  c #6C80B1",
"w  c #6F83B6",
"e  c #6880BA",
"r  c #7084B2",
"t  c #7184B2",
"y  c #7084B6",
"u  c #7084B7",
"i  c #7085B7",
"p  c #7387BB",
"a  c #7388BB",
"s  c #7488BA",
"d  c #748BBF",
"f  c #758BBF",
"g  c #768BBE",
"h  c #6684CB",
"j  c #6986CB",
"k  c #778DC3",
"l  c #788DC3",
"z  c #798FC5",
"x  c #7991C7",
"c  c #7B92C9",
"v  c #7B92CA",
"b  c #7A92CC",
"n  c #7D94CC",
"m  c #7D95CC",
"M  c #7E94CD",
"N  c #7F96CF",
"B  c #8190AD",
"V  c #8999B6",
"C  c #899AB6",
"Z  c #8EA0BD",
"A  c #8396C0",
"S  c #849BCF",
"D  c #8198D2",
"F  c #8199D2",
"G  c #8198D3",
"H  c #8199D3",
"J  c #839BD6",
"K  c #889ED3",
"L  c #8A9FD2",
"P  c #889FD6",
"I  c #849DD9",
"U  c #859DD9",
"Y  c #869FDB",
"T  c #869FDC",
"R  c #8BA0CF",
"E  c #8BA1CF",
"W  c #8DA1CF",
"Q  c #8FA3CF",
"!  c #93A4C6",
"~  c #94A6C6",
"^  c #95A6CA",
"/  c #92A5CC",
"(  c #9BAECF",
")  c #8AA0D0",
"_  c #8BA1D3",
"`  c #86A0DD",
"'  c #88A0D9",
"]  c #8AA1D9",
"[  c #8CA3D9",
"{  c #8AA2DC",
"}  c #88A1DF",
"|  c #88A2DF",
" . c #89A2DF",
".. c #8CA4DC",
"X. c #8CA4DF",
"o. c #93A7D2",
"O. c #97ABD2",
"+. c #97ACD6",
"@. c #98ADD6",
"#. c #9DB0D3",
"$. c #9EB0D2",
"%. c #9BB0D9",
"&. c #A1B3D6",
"*. c #A4B8DF",
"=. c #A7BADE",
"-. c #A6BADF",
";. c #A6BBDF",
":. c #8AA4E2",
">. c #8AA5E2",
",. c #8BA5E3",
"<. c #8CA5E2",
"1. c #8EA7E2",
"2. c #8CA6E4",
"3. c #8CA6E5",
"4. c #8DA6E5",
"5. c #8CA7E5",
"6. c #8EA7E5",
"7. c #8EA8E5",
"8. c #8EA8E8",
"9. c #8EA8E9",
"0. c #90ABEC",
"q. c #92ADEF",
"w. c #92AEEF",
"e. c #94AFF2",
"r. c #94B0F2",
"t. c #96B2F5",
"y. c #96B1F6",
"u. c #96B2F6",
"i. c #98B4F8",
"p. c #98B4F9",
"a. c #9AB7FC",
"s. c #9CB9FF",
"d. c #A8BDE1",
"f. c #A8BCE2",
"g. c #AABEE2",
"h. c #ABBFE5",
"j. c #ACC0E5",
"k. c #AEC3E8",
"l. c #AEC3E9",
"z. c #B1C6EC",
"x. c #B5CBF2",
"c. c #B7CEF5",
"v. c #B8CEF6",
"b. c #BBD1F8",
"n. c #BDD3FC",
"m. c #BFD6FF",
/* pixels */
"                                                                      ",
"                  2                                                   ",
"                $ 4                                                   ",
"                5 3                                                   ",
"              % h , .                                                 ",
"            # e j , -                                                 ",
"        = v Y ` b 0 !                                                 ",
"        H p.s.s.>.r ;.6                                               ",
"      z 0.s.s.s.s.g d.^                                               ",
"      H s.s.s.X s.>.;.k.                                              ",
"    q 8.s.s.s.g s.r.@.v.+                                             ",
"    l r.s.s.s.s.s.a.R n.8                                             ",
"    n s.s.s.s.s.s.s.{ k.C                                             ",
"    J s.s.s.s.s.s.s.w.%.&.                                            ",
"    Y s.s.s.s.s.s.s.a.W d.@                                           ",
"    Y s.s.s.s.s.s.s.s.<.( s :                                         ",
"    { s.s.s.s.s.s.s.s.r./ L n                                         ",
"    { s.s.s.s.s.s.s.s.s.7.S w.k                                       ",
"    T s.s.s.s.s.s.s.s.s.s.3.r.Y                                       ",
"    Y s.s.s.s.s.s.s.s.s.s.s.n n y                                     ",
"    J s.s.s.s.s.s.s.s.s.0.p.n 1 x                                     ",
"    H s.s.s.s.s.s.s.s.s.] L n                                         ",
"    n s.s.s.s.s.s.s.s.s.X.#.r                                         ",
"    z p.s.s.s.s.s.s.s.s.X.k.6                                         ",
"    p w.s.s.s.s.s.s.s.s.3.j.~                                         ",
"    q 8.s.s.s.s.s.s.s.s.0.;.j.                                        ",
"      { s.s.s.s.s.s.s.s.u.+.x.+                                       ",
"      H s.s.s.s.s.s.s.s.a.W m.B                                       ",
"    : { s.s.s.s.s.s.s.s.s._ b.;.                                      ",
"    z p.s.s.s.s.s.s.s.s.s.X.z.x.                                      ",
"    T s.s.s.s.s.s.s.s.s.s.8.d.m.9                                     ",
"  y 0.s.s.s.s.s.s.s.s.s.s.p.o.m.;.                                    ",
"  l 0.J Y p.s.s.s.s.s.s.s.s._ x.x.                                    ",
"  n H   1 Y s.s.s.s.s.s.s.s.3.h.m.~                                   ",
"  v y     g w.s.s.s.s.s.s.s.r.W m.j.                                  ",
"  1         H a.s.s.s.s.s.s.s.[ x.n.6                                 ",
"            g 3.s.s.s.s.s.s.s.r.%.m.;.                                ",
"              n p.s.s.s.s.s.s.s.[ x.x.+                               ",
"              : Y s.s.s.s.s.s.s.r.O.n.~                               ",
"                g 8.s.s.s.s.s.s.s.] h.x.                              ",
"                  n u.s.s.s.s.s.s.p.R c.~                             ",
"                  * H a.s.s.s.s.s.s.0.O.k.                            ",
"                    1 J s.s.s.s.s.s.s.<.;.Z                           ",
"                      y { s.s.s.s.s.s.a.P #.                          ",
"                        y { s.s.s.s.s.s.p._ C                         ",
"                          y J a.s.s.s.s.s.u.A                         ",
"                            1 H p.s.s.s.s.s.3.>                       ",
"                              : n 8.s.s.s.s.s.v o                     ",
"                                  z { p.s.s.s.u.v                     ",
"                                    1 H 8.s.s.s.3.g                   ",
"                                        p H 0.s.a.H                   ",
"                                            z Y e.w.k                 ",
"                                                z Y Y z y             ",
"                                                    z Y >.H g *       ",
"                                                      v a.s.0.H a     ",
"                                                      q 3.s.w.H       ",
"                                                        T e.n g       ",
"                                                        H a.n         ",
"                                                        n s.{ *       ",
"                                                        z u.H *       ",
"                                                        l Y y         ",
"                                                        w n           ",
"                                                        1 g           ",
"                                                          y           ",
"                                                                      ",
"                                                                      ",
"                                                                      ",
"                                                                      "
};
