/* XPM */
static char *f1a9d072656d46619fb60579bba1069aQwmh2C5o8sHWFh0Q[] = {
/* columns rows colors chars-per-pixel */
"34 67 147 2 ",
"   c #C8E4FF",
".  c #272E40",
"X  c #5D677D",
"o  c #5D697F",
"O  c #566386",
"+  c #55638B",
"@  c #4D6499",
"#  c #5E6E97",
"$  c #677489",
"%  c #67748F",
"&  c #69758B",
"*  c #6C7992",
"=  c #60729F",
"-  c #707D96",
";  c #5269A4",
":  c #6475A2",
">  c #677BAA",
",  c #697CA9",
"<  c #687DAB",
"1  c #697EAD",
"2  c #6B7FAF",
"3  c #73819B",
"4  c #7989A4",
"5  c #6C80B1",
"6  c #6D81B2",
"7  c #6F83B5",
"8  c #6F84B5",
"9  c #6880B9",
"0  c #6C83BD",
"q  c #7085B7",
"w  c #7B8EB6",
"e  c #7287BB",
"r  c #7387BC",
"t  c #7388BC",
"y  c #758ABF",
"u  c #748BBF",
"i  c #6F87C1",
"p  c #6E87C4",
"a  c #758BC0",
"s  c #758CC0",
"d  c #718AC7",
"f  c #788EC4",
"g  c #728DCD",
"h  c #7B90C3",
"j  c #7991C7",
"k  c #7A91C7",
"l  c #7C91C5",
"z  c #7990C8",
"x  c #7D95CD",
"c  c #7E95CF",
"v  c #7E96CF",
"b  c #7F96CF",
"n  c #6C8AD6",
"m  c #708FDB",
"M  c #7A9DF1",
"N  c #8393B0",
"B  c #8899B6",
"V  c #899AB8",
"C  c #8C9DBB",
"Z  c #849BCF",
"A  c #899ECF",
"S  c #8199D0",
"D  c #8098D2",
"F  c #869DD2",
"G  c #8299D4",
"H  c #829AD4",
"J  c #849BD5",
"K  c #849BD6",
"L  c #849CD7",
"P  c #889ED2",
"I  c #869EDA",
"U  c #849EDC",
"Y  c #869FDC",
"T  c #8BA0CF",
"R  c #8DA2CF",
"E  c #8FA3CF",
"W  c #94A6C6",
"Q  c #91A4CC",
"!  c #98AACB",
"~  c #9AADCE",
"^  c #8BA1D2",
"/  c #8BA1D3",
"(  c #8DA3D2",
")  c #8FA4D2",
"_  c #8BA2D6",
"`  c #89A1D9",
"'  c #8BA3D9",
"]  c #8CA3D9",
"[  c #8AA2DC",
"{  c #88A1DF",
"}  c #8AA3DF",
"|  c #8CA4DC",
" . c #8CA4DF",
".. c #93A8D3",
"X. c #96ABD3",
"o. c #97ABD3",
"O. c #9EB0D3",
"+. c #9BB0D9",
"@. c #9DB1D9",
"#. c #A0B3D5",
"$. c #A0B3D6",
"%. c #A1B4D7",
"&. c #A4B7DB",
"*. c #A0B4DC",
"=. c #A4B8DF",
"-. c #A7BBDF",
";. c #89A3E0",
":. c #8AA4E2",
">. c #8BA4E2",
",. c #8CA5E2",
"<. c #8EA7E3",
"1. c #8CA5E5",
"2. c #8CA6E5",
"3. c #8CA6E6",
"4. c #8DA6E6",
"5. c #8DA7E7",
"6. c #8EA8E6",
"7. c #8EA8E8",
"8. c #8EA9E9",
"9. c #90ABEC",
"0. c #92ADEF",
"q. c #92AEEF",
"w. c #94AFF2",
"e. c #94B0F2",
"r. c #96B2F5",
"t. c #96B1F6",
"y. c #96B2F6",
"u. c #98B4F8",
"i. c #98B4F9",
"p. c #9AB7FC",
"a. c #9CB9FF",
"s. c #A6BBE2",
"d. c #A8BCE2",
"f. c #AABEE2",
"g. c #AABFE5",
"h. c #ACC0E5",
"j. c #ACC1E5",
"k. c #AEC3E8",
"l. c #B0C6EC",
"z. c #B1C6EC",
"x. c #B3C9EF",
"c. c #B5CBF2",
"v. c #B7CEF6",
"b. c #B8CEF6",
"n. c #BAD0F9",
"m. c #BAD1F9",
"M. c #BFD6FF",
/* pixels */
"                                                                    ",
"                                                                    ",
"                                                          :         ",
"                                                          q         ",
"                                                        > K         ",
"                                                        z 8.        ",
"                                                        x p.e       ",
"                                                        Y a.y.      ",
"                                                        1.a.y.#     ",
"                                                        9.a.8.      ",
"                                                        e.a.{ k     ",
"                                                      t a.a.a.8.    ",
"                                                      Y a.a.a.w.r   ",
"                                                    G i.p.9.x       ",
"                                                G e.p.1.2           ",
"                                            G e.a.a.G               ",
"                                        k e.a.a.a.9.                ",
"                                    5 1.a.a.a.a.a.a                 ",
"                                  D i.a.a.a.a.a.>.                  ",
"                              , 1.a.a.a.a.a.a.1.O                   ",
"                            8 e.a.a.a.a.a.a.q.w                     ",
"                          s i.a.a.a.a.a.a.i.R X                     ",
"                        s i.a.a.a.a.a.a.i.( B                       ",
"                      s i.a.a.a.a.a.a.a.F O.                        ",
"                    2 i.a.a.a.a.a.a.a.<.s.N                         ",
"                    q.a.a.a.a.a.a.a.9.o.k.                          ",
"                  1.a.a.a.a.a.a.a.i.) m.V                           ",
"                x a.a.a.a.a.a.a.a. .g.l.                            ",
"              5 i.a.a.a.a.a.a.a.q...M.!                             ",
"              1.a.a.a.a.a.a.a.a.P l.m.$                             ",
"            a a.a.a.a.a.a.a.a.9.o.M.%.                              ",
"  8         9.a.a.a.a.a.a.a.a.] l.m.3                               ",
"  I 7     G a.a.a.a.a.a.a.a.i...M.l.                                ",
"  1.8.  5 i.a.a.a.a.a.a.a.a.{ f.M.V                                 ",
"  Y a.q.y.a.a.a.a.a.a.a.a.a./ v.b.&                                 ",
"  y a.a.a.a.a.a.a.a.a.a.a.y...M.&.                                  ",
"    e.a.a.a.a.a.a.a.a.a.a.8.=.M.N                                   ",
"    ;.a.a.a.a.a.a.a.a.a.a. .x.c.                                    ",
"    2 i.a.a.a.a.a.a.a.a.a._ v.%.                                    ",
"      q.a.a.a.a.a.a.a.a.p.R M.N                                     ",
"      y.a.a.a.a.a.a.a.a.w.+.b.o                                     ",
"    8 a.a.a.a.a.a.a.a.a.q.*.k.                                      ",
"    x a.a.a.a.a.a.a.a.a.1.h.W                                       ",
"    K a.a.a.a.a.a.a.a.a.<.h.*                                       ",
"    1.a.a.a.a.a.a.a.a.a. .#.l                                       ",
"    9.a.a.a.a.a.a.a.a.a.` / >.                                      ",
"    q.a.a.a.a.a.a.a.a.a.9.p.1.> x                                   ",
"    e.a.a.a.a.a.a.a.a.a.a.a.q.q.f                                   ",
"    e.a.a.a.a.a.a.a.a.a.a.1.e.y.                                    ",
"    i.a.a.a.a.a.a.a.a.a.6.Z a.L                                     ",
"    i.a.a.a.a.a.a.a.a.w.Q ` 1.                                      ",
"    y.a.a.a.a.a.a.a.a. .#.D ,                                       ",
"    e.a.a.a.a.a.a.a.a.A =.+                                         ",
"    9.a.a.a.a.a.a.a.9.@.~                                           ",
"    1.a.a.a.a.a.a.a.{ l.C                                           ",
"    K a.a.a.a.a.a.a.T m.-                                           ",
"    8 a.a.a.a.x a.w.+.b.                                            ",
"      e.a.a.a.. a.8.f.l.                                            ",
"      x a.a.a.a.a.<.k.~                                             ",
"        1.a.a.a.p.h h.%                                             ",
"          1.a.p.Y y #.                                              ",
"            = g m i 4                                               ",
"              ; M 0                                                 ",
"                n d                                                 ",
"                @ p                                                 ",
"                  9                                                 ",
"                                                                    "
};
