/* XPM */
static char *a638639d811e43688133f77630f0bedapD57TCMjrYb4opvJ[] = {
/* columns rows colors chars-per-pixel */
"68 35 143 2 ",
"   c #C8E4FF",
".  c #313A50",
"X  c #4C5666",
"o  c #576175",
"O  c #596476",
"+  c #515F85",
"@  c #516080",
"#  c #516389",
"$  c #4B6195",
"%  c #4F679E",
"&  c #5E6E97",
"*  c #5E7097",
"=  c #65728D",
"-  c #6276A2",
";  c #6476A2",
":  c #6C7DA1",
">  c #6075A8",
",  c #6075A9",
"<  c #677BAA",
"1  c #697BAA",
"2  c #637AB1",
"3  c #657BB2",
"4  c #657CB5",
"5  c #617EC1",
"6  c #74839D",
"7  c #74839E",
"8  c #77859F",
"9  c #7A89A4",
"0  c #6B80B3",
"q  c #6C80B1",
"w  c #6880B9",
"e  c #7084B2",
"r  c #7184B2",
"t  c #7084B6",
"y  c #7084B7",
"u  c #7085B7",
"i  c #7388BB",
"p  c #7488BA",
"a  c #748BBF",
"s  c #758BBF",
"d  c #768BBF",
"f  c #6684CB",
"g  c #6986CB",
"h  c #778DC3",
"j  c #798FC5",
"k  c #7B91C9",
"l  c #7B92CA",
"z  c #7C92CA",
"x  c #7A92CC",
"c  c #7D94CC",
"v  c #7D95CC",
"b  c #7E95CD",
"n  c #7F96CF",
"m  c #818FAC",
"M  c #8899B6",
"N  c #899AB8",
"B  c #8E9EBD",
"V  c #8496C0",
"C  c #8198D2",
"Z  c #8199D2",
"A  c #8198D3",
"S  c #8199D3",
"D  c #849BD0",
"F  c #839BD5",
"G  c #839BD6",
"H  c #889ED3",
"J  c #889FD5",
"K  c #849DD9",
"L  c #859DD9",
"P  c #869FDB",
"I  c #869FDC",
"U  c #8AA0CF",
"Y  c #8BA0CF",
"T  c #8BA1CF",
"R  c #8DA2CF",
"E  c #93A5C5",
"W  c #94A6C6",
"Q  c #94A7CA",
"!  c #92A5CC",
"~  c #8AA0D3",
"^  c #8CA1D3",
"/  c #8FA4D0",
"(  c #87A0DC",
")  c #88A0D9",
"_  c #89A0D9",
"`  c #8AA2D9",
"'  c #8CA3D9",
"]  c #88A2DF",
"[  c #89A2DF",
"{  c #8CA4DC",
"}  c #8CA5DF",
"|  c #93A8D3",
" . c #97ABD3",
".. c #97ACD6",
"X. c #9BADD0",
"o. c #9DAFD3",
"O. c #9EB0D3",
"+. c #9BB0D9",
"@. c #A1B4D7",
"#. c #A4B8DF",
"$. c #A7BADF",
"%. c #8AA4E2",
"&. c #8BA4E3",
"*. c #8BA5E3",
"=. c #8CA5E2",
"-. c #8EA7E3",
";. c #8CA6E5",
":. c #8CA7E5",
">. c #8CA6E6",
",. c #8DA6E6",
"<. c #8EA8E6",
"1. c #8EA9E8",
"2. c #8EA8E9",
"3. c #90ABEB",
"4. c #90ABEC",
"5. c #92ADEF",
"6. c #92AEEF",
"7. c #94AFF2",
"8. c #94B0F2",
"9. c #96B1F5",
"0. c #96B2F5",
"q. c #96B2F6",
"w. c #98B4F8",
"e. c #98B4F9",
"r. c #9AB7FC",
"t. c #9CB9FF",
"y. c #A6BAE0",
"u. c #A9BCE1",
"i. c #A8BCE2",
"p. c #AABEE2",
"a. c #AABFE5",
"s. c #ACC0E5",
"d. c #ACC1E6",
"f. c #AEC3E8",
"g. c #AEC3E9",
"h. c #B0C5EC",
"j. c #B5CBF2",
"k. c #B7CEF5",
"l. c #B7CEF6",
"z. c #BAD1F8",
"x. c #BDD3FC",
"c. c #BDD4FC",
"v. c #BFD6FF",
/* pixels */
"                                                                                                                                        ",
"                                                                1 k c h u &                                                             ",
"                                                                  u Z 3.4.I j ;     q i j c Z G L I ] ] L L G c h q                     ",
"                                                                      G t.t.e.] Z ] 1.5.e.t.t.t.t.t.t.t.t.t.t.t.8.1.Z j                 ",
"                                                                    < L t.t.t.t.t.t.t.t.t.t.t.t.t.t.t.t.t.t.t.t.t.t.t.4.Z *             ",
"                                                                  a L e.t.t.t.t.t.t.t.t.t.t.t.t.t.t.t.t.t.t.t.t.t.t.t.t.e.z             ",
"                                                              a Z 5.t.t.t.t.t.t.t.t.t.t.t.t.t.t.t.t.t.t.t.t.t.t.t.t.t.t.t.L #           ",
"                                                          ; c :.r.t.t.t.t.t.t.t.t.t.t.t.t.t.t.t.t.t.t.t.t.t.t.t.t.a . t.t.( w %         ",
"                                                        a L e.t.t.t.t.t.t.t.t.t.t.t.t.t.t.t.t.t.t.t.t.t.t.t.t.t.t.t.t.t.%.x g f 5 $     ",
"                                                    * c 1.t.t.t.t.t.t.t.t.t.t.t.t.t.t.t.t.t.t.t.t.t.t.t.t.t.t.t.r.7.%.a r 0 , , 3 4 2   ",
"                                                  < Z 0.t.t.t.t.t.t.t.t.t.t.t.t.t.t.t.t.t.t.t.t.t.t.t.t.t.r.4.) U +.y.i.#.E =           ",
"                                                u G r.t.t.t.t.t.t.t.t.t.t.t.t.t.t.t.t.t.t.t.t.t.t.t.t.7.-.R +.f.c.l.f.Q 7               ",
"                                              u ] t.t.t.t.t.t.t.t.t.t.t.t.t.t.t.r.0.4.:.} } ) 4.t.t.<.! X.i.@.N 8 O                     ",
"                                            u ] t.t.t.t.t.t.t.t.t.t.t.t.e.1.} ^ / ..#.d.f.o.~ e.t.:.D H p +                             ",
"                                          < G t.t.t.t.t.t.t.t.t.t.7.<.^ | i.h.z.c.j.d.W 7 r c c c 8.5.c -                               ",
"                                        ; Z r.t.t.t.t.t.t.t.t.7.' / a.j.c.c.j.#.m O           < c L h                                   ",
"                                        c e.t.t.t.t.t.t.t.7.' +.j.c.c.j.#.9                   j u                                       ",
"                                      j 1.t.t.t.t.t.t.e.)  .j.c.x.d.W X                                                                 ",
"                                    < ] t.t.t.t.t.t.4.U a.c.j.#.7                                                                       ",
"                                    Z e.t.t.t.t.r.-. .l.j.W o                                                                           ",
"                                  i 1.t.t.t.t.e.J #.f.W                                                                                 ",
"                                  Z t.t.t.t.0.U O.B                                                                                     ",
"                                j 4.t.t.t.:.V M                                                                                         ",
"                                L t.t.0.k :                                                                                             ",
"                              j 8.r.:.k @                                                                                               ",
"                              L 5.Z a                                                                                                   ",
"                            j L h                                                                                                       ",
"                        q k L j                                                                                                         ",
"          < u h j c Z I :.r.%.u                                                                                                         ",
"      * u a c L 0.t.r.7.t.t.Z                                                                                                           ",
"              u Z ] c c 5.4.a                                                                                                           ",
"                      a Z Z &                                                                                                           ",
"                          i                                                                                                             ",
"                                                                                                                                        ",
"                                                                                                                                        "
};
