/* XPM */
static char *_91f643237f04890ae396be693202368j4Ygl6dyZlFvwOL9[] = {
/* columns rows colors chars-per-pixel */
"128 128 12 1 ",
"  c #C8E4FF",
". c #2A2727",
"X c #2B2727",
"o c #2C2727",
"O c #2D2727",
"+ c #292828",
"@ c #2A2828",
"# c #2B2828",
"$ c #2A2929",
"% c #2B2929",
"& c #2C2828",
"* c #2C2929",
/* pixels */
"                                                              #*##                                                              ",
"                                                             ######                                                             ",
"                                                            ########                                                            ",
"                                                           ##########                                                           ",
"                                                          ############                                                          ",
"                                                          ############                                                          ",
"                                                          ############                                                          ",
"                                                          ############                                                          ",
"                                                          ############                                                          ",
"                                                          ############                                                          ",
"                                                          ############                                                          ",
"                                                          ############                                                          ",
"                                                          ############                                                          ",
"                                                          ############                                                          ",
"                                                          ############                                                          ",
"                                                          ############                                                          ",
"                     ##                                   ############                                  ..#.                    ",
"                  ########                                ############                                ########                  ",
"                 ##########                               ############                               ##########                 ",
"                 ###########                              ############                              ###########                 ",
"                .############                             ############                             ############                 ",
"                ##############                            ############                            ##############                ",
"                .##############                           ############                           ###############                ",
"                ################                        ###############.                        ###############                 ",
"                 ################                  ..#####################*.                   ################                 ",
"                 #################              .*#############################               #################                 ",
"                  #################           ####################################           #################                  ",
"                   #################        ########################################        #################                   ",
"                    #################     .#########################################.      #################                    ",
"                     #################   ##############################################   #################                     ",
"                      #################.##################################################################                      ",
"                       ##################################################################################                       ",
"                        ################################################################################                        ",
"                         ##############################################################################                         ",
"                          ############################################################################                          ",
"                           ##########################################################################                           ",
"                            ########################################################################                            ",
"                             ######################################################################                             ",
"                              ####################################################################                              ",
"                              O##################################################################                               ",
"                              ####################################################################                              ",
"                             #####################################################################.                             ",
"                            #######################################################################                             ",
"                            ########################################################################                            ",
"                           ##########################################################################                           ",
"                           #########################################################################.                           ",
"                          ############################################################################                          ",
"                          ###########################################################################.                          ",
"                         #############################################################################                          ",
"                         ##############################################################################                         ",
"                         ##############################################################################                         ",
"                        .##############################################################################                         ",
"                        ################################################################################                        ",
"                        ###############################################################################.                        ",
"                       .################################################################################                        ",
"                       #################################################################################                        ",
"                       #################################################################################.                       ",
"                       ##################################################################################                       ",
"    *#######################################################################################################################    ",
"  *##########################################################################################################################   ",
" *############################################################################################################################  ",
" ############################################################################################################################## ",
".###############################################################################################################################",
"################################################################################################################################",
"###############################################################################################################################.",
"################################################################################################################################",
" ############################################################################################################################## ",
" *############################################################################################################################  ",
"  *##########################################################################################################################   ",
"    #######################################################################################################################*    ",
"                      *#################################################################################.                       ",
"                       ##################################################################################                       ",
"                       #################################################################################                        ",
"                       #################################################################################                        ",
"                        ################################################################################                        ",
"                        ################################################################################                        ",
"                        ###############################################################################                         ",
"                        *##############################################################################                         ",
"                         #############################################################################.                         ",
"                         #############################################################################                          ",
"                          ############################################################################                          ",
"                          ###########################################################################                           ",
"                           ##########################################################################                           ",
"                           #########################################################################                            ",
"                            ########################################################################                            ",
"                            #######################################################################                             ",
"                             ######################################################################                             ",
"                             O####################################################################                              ",
"                              ##################################################################.                               ",
"                              *###################################################################                              ",
"                             ######################################################################                             ",
"                            ########################################################################                            ",
"                           ##########################################################################                           ",
"                          ############################################################################                          ",
"                         ##############################################################################                         ",
"                        ################################################################################                        ",
"                       ##################################################################################                       ",
"                      ####################################################################################                      ",
"                     #################  *##############################################   #################                     ",
"                    #################     ###########################################*     #################                    ",
"                   #################        ########################################        #################                   ",
"                  #################           ####################################           #################                  ",
"                 #################              ###############################*              #################                 ",
"                 ################                  #########################.                  ################                 ",
"                 ###############                      .###############.##                       ###############                 ",
"                ###############                           ############                           ##############                 ",
"                ##############                            ############                            #############                 ",
"                 ############                             ############                             ############                 ",
"                 ###########                              ############                              ###########                 ",
"                 ##########                               ############                               ##########                 ",
"                  O#######                                ############                                O#######                  ",
"                                                          ############                                    #                     ",
"                                                          ############                                                          ",
"                                                          ############                                                          ",
"                                                          ############                                                          ",
"                                                          ############                                                          ",
"                                                          ############                                                          ",
"                                                          ############                                                          ",
"                                                          ############                                                          ",
"                                                          ############                                                          ",
"                                                          ############                                                          ",
"                                                          ############                                                          ",
"                                                          ############                                                          ",
"                                                          ############                                                          ",
"                                                           ##########                                                           ",
"                                                           #########                                                            ",
"                                                            #######                                                             ",
"                                                              .##.                                                              "
};
