/* XPM */
static char *_40bd5c31b8045eed5fa350ce2d540a1MI4uI11VNGjBrLol[] = {
/* columns rows colors chars-per-pixel */
"64 64 8 1 ",
"  c #C8E4FF",
". c #2A2727",
"X c #2B2727",
"o c #2A2828",
"O c #2B2828",
"+ c #2B2929",
"@ c #2C2828",
"# c #2C2929",
/* pixels */
"                               @O                               ",
"                              OOOO                              ",
"                             OOOOOO                             ",
"                             OOOOOO                             ",
"                             OOOOOO                             ",
"                             OOOOOO                             ",
"                             OOOOOO                             ",
"                             OOOOOO                             ",
"          OO                 OOOOOO                 OXO         ",
"        OOOOO                OOOOOO               OOOOOO        ",
"        XOOOOO               OOOOOO              OOOOOOX        ",
"        OOOOOOO              OOOOOO             OOOOOOOO        ",
"        @OOOOOOO         O@OOOOOOOOOOOO        OOOOOOOO         ",
"         OOOOOOOO      @OOOOOOOOOOOOOOOOO     OOOOOOOOO         ",
"          OOOOOOOO   OOOOOOOOOOOOOOOOOOOOOO  OOOOOOOOO          ",
"           OOOOOOOOOOOOOOOOOOOOOOOOOOOOOOOOOXOOOOOOOO           ",
"            OOOOOOOOOOOOOOOOOOOOOOOOOOOOOOOOOOOOOOOO            ",
"             OOOOOOOOOOOOOOOOOOOOOOOOOOOOOOOOOOOOOO             ",
"              OOOOOOOOOOOOOOOOOOOOOOOOOOOOOOOOOOOO              ",
"               XOOOOOOOOOOOOOOOOOOOOOOOOOOOOOOOOX               ",
"               OOOOOOOOOOOOOOOOOOOOOOOOOOOOOOOOOO               ",
"              OOOOOOOOOOOOOOOOOOOOOOOOOOOOOOOOOOOO              ",
"             OOOOOOOOOOOOOOOOOOOOOOOOOOOOOOOOOOOOO              ",
"             OOOOOOOOOOOOOOOOOOOOOOOOOOOOOOOOOOOOOO             ",
"             OOOOOOOOOOOOOOOOOOOOOOOOOOOOOOOOOOOOOO             ",
"            XOOOOOOOOOOOOOOOOOOOOOOOOOOOOOOOOOOOOOOO            ",
"            OOOOOOOOOOOOOOOOOOOOOOOOOOOOOOOOOOOOOOOO            ",
"            OOOOOOOOOOOOOOOOOOOOOOOOOOOOOOOOOOOOOOOO            ",
"           OOOOOOOOOOOOOOOOOOOOOOOOOOOOOOOOOOOOOOOOO            ",
" OOOOOOOOOOOOOOOOOOOOOOOOOOOOOOOOOOOOOOOOOOOOOOOOOOOOOOOOOOOOO  ",
" OOOOOOOOOOOOOOOOOOOOOOOOOOOOOOOOOOOOOOOOOOOOOOOOOOOOOOOOOOOOOO ",
"OOOOOOOOOOOOOOOOOOOOOOOOOOOOOOOOOOOOOOOOOOOOOOOOOOOOOOOOOOOOOOOO",
"OOOOOOOOOOOOOOOOOOOOOOOOOOOOOOOOOOOOOOOOOOOOOOOOOOOOOOOOOOOOOOOO",
" OOOOOOOOOOOOOOOOOOOOOOOOOOOOOOOOOOOOOOOOOOOOOOOOOOOOOOOOOOOOOO ",
" @OOOOOOOOOOOOOOOOOOOOOOOOOOOOOOOOOOOOOOOOOOOOOOOOOOOOOOOOOOOO  ",
"           XOOOOOOOOOOOOOOOOOOOOOOOOOOOOOOOOOOOOOOOO            ",
"            OOOOOOOOOOOOOOOOOOOOOOOOOOOOOOOOOOOOOOOO            ",
"            OOOOOOOOOOOOOOOOOOOOOOOOOOOOOOOOOOOOOOOO            ",
"            OOOOOOOOOOOOOOOOOOOOOOOOOOOOOOOOOOOOOOOO            ",
"            @OOOOOOOOOOOOOOOOOOOOOOOOOOOOOOOOOOOOOO             ",
"             OOOOOOOOOOOOOOOOOOOOOOOOOOOOOOOOOOOOOO             ",
"             @OOOOOOOOOOOOOOOOOOOOOOOOOOOOOOOOOOOO              ",
"              OOOOOOOOOOOOOOOOOOOOOOOOOOOOOOOOOOOO              ",
"               OOOOOOOOOOOOOOOOOOOOOOOOOOOOOOOOO@               ",
"               XOOOOOOOOOOOOOOOOOOOOOOOOOOOOOOOOO               ",
"               OOOOOOOOOOOOOOOOOOOOOOOOOOOOOOOOOO               ",
"              OOOOOOOOOOOOOOOOOOOOOOOOOOOOOOOOOOOO              ",
"             OOOOOOOOOOOOOOOOOOOOOOOOOOOOOOOOOOOOOO             ",
"            OOOOOOOOOOOOOOOOOOOOOOOOOOOOOOOOXOOOOOOO            ",
"           OOOOOOOO @OOOOOOOOOOOOOOOOOOOOOO  @OOOOOOO           ",
"          OOOOOOOO    OOOOOOOOOOOOOOOOOO@@    @OOOOOOO          ",
"         OOOOOOOO        OOOOOOOOOOOO@O        @OOOOOOO         ",
"        OOOOOOOO            OOOOOOO             @OOOOOOX        ",
"        XOOOOOO              OOOOOO              @OOOOOO        ",
"         OOOOO               OOOOOO               @OOOO         ",
"          @O                 OOOOOO                 @@          ",
"                             OOOOOO                             ",
"                             OOOOOO                             ",
"                             OOOOOO                             ",
"                             OOOOOO                             ",
"                             OOOOOO                             ",
"                             OOOOO@                             ",
"                             @OOOO                              ",
"                              @@@                               "
};
