/* XPM */
static char *_824734ae37b4786d11fbe950a9a8cedIF43LUIkSyXBFBz3[] = {
/* columns rows colors chars-per-pixel */
"65 64 250 2 ",
"   c #C8E4FF",
".  c #625B5B",
"X  c #6A6363",
"o  c #696464",
"O  c #6C6666",
"+  c #736D6D",
"@  c #767474",
"#  c #787272",
"$  c #7E7979",
"%  c #7C7A7A",
"&  c #7E7A7A",
"*  c #807A7A",
"=  c #847F7F",
"-  c #768486",
";  c #7C898B",
":  c #858181",
">  c #868080",
",  c #898181",
"<  c #8B8585",
"1  c #898686",
"2  c #898787",
"3  c #8A8686",
"4  c #8C8686",
"5  c #8E8686",
"6  c #8E8787",
"7  c #8C8888",
"8  c #8E8A8A",
"9  c #908B8B",
"0  c #908C8C",
"q  c #938C8C",
"w  c #828F90",
"e  c #8E999A",
"r  c #8F999B",
"t  c #939090",
"y  c #949191",
"u  c #959191",
"i  c #959292",
"p  c #969292",
"a  c #9A9090",
"s  c #989595",
"d  c #999595",
"f  c #9D9797",
"g  c #9B9A9A",
"h  c #9C9999",
"j  c #9D9999",
"k  c #9D9A9A",
"l  c #9E9B9B",
"z  c #9D9D9D",
"x  c #A29999",
"c  c #A09E9E",
"v  c #A39F9F",
"b  c #A99F9F",
"n  c #959EA0",
"m  c #9BA3A5",
"M  c #9BA4A5",
"N  c gray63",
"B  c #A4A1A1",
"V  c #A5A1A1",
"C  c #A5A2A2",
"Z  c #A7A2A2",
"A  c #A4A4A4",
"S  c #A6A4A4",
"D  c #A9A1A1",
"F  c #A9A2A2",
"G  c #ACA1A1",
"H  c #AEA0A0",
"J  c #ACA3A3",
"K  c #A8A5A5",
"L  c #AAA5A5",
"P  c #A8A6A6",
"I  c #A9A6A6",
"U  c #A9A7A7",
"Y  c #AAA7A7",
"T  c #ACA5A5",
"R  c #ACA7A7",
"E  c #AEA6A6",
"W  c #AEA7A7",
"Q  c #AFA7A7",
"!  c #A1A9AA",
"~  c #A7AEAF",
"^  c gray66",
"/  c #ABA8A8",
"(  c #AAAAAA",
")  c #ABAAAA",
"_  c #ACA8A8",
"`  c #ACA9A9",
"'  c #AFA8A8",
"]  c #AFA9A9",
"[  c #ACAAAA",
"{  c #AFAAAA",
"}  c #ACACAC",
"|  c gray68",
" . c #AEACAC",
".. c #AFACAC",
"X. c #AEADAD",
"o. c #AFADAD",
"O. c #AFAFAF",
"+. c #B2A8A8",
"@. c #B2A9A9",
"#. c #B6AAAA",
"$. c #B0ACAC",
"%. c #B0ADAD",
"&. c #B1ADAD",
"*. c #B0AEAE",
"=. c #B3AFAF",
"-. c #B5ACAC",
";. c #B4AFAF",
":. c #B7AFAF",
">. c #B8AEAE",
",. c #B9AEAE",
"<. c #A8AEB0",
"1. c #ADB3B4",
"2. c #B2B0B0",
"3. c #B3B1B1",
"4. c gray70",
"5. c #B4B2B2",
"6. c #B5B2B2",
"7. c #B4B3B3",
"8. c #B6B2B2",
"9. c #B7B2B2",
"0. c #B6B3B3",
"q. c #B6B5B5",
"w. c #B7B5B5",
"e. c #B6B6B6",
"r. c #B7B6B6",
"t. c #B7B7B7",
"y. c #BBB2B2",
"u. c #B9B5B5",
"i. c #BAB4B4",
"p. c #BBB5B5",
"a. c #BBB6B6",
"s. c #BEB5B5",
"d. c #BDB6B6",
"f. c #BEB6B6",
"g. c #B4B9BA",
"h. c #B9B9B9",
"j. c #BAB8B8",
"k. c #BBB8B8",
"l. c #BAB9B9",
"z. c #BBB9B9",
"x. c #BBBABA",
"c. c #BBBBBB",
"v. c #BCB8B8",
"b. c #BEB9B9",
"n. c #BCBBBB",
"m. c #BDBBBB",
"M. c #BEBBBB",
"N. c #BABFBF",
"B. c #BDBCBC",
"V. c gray74",
"C. c #BFBDBD",
"Z. c #BFBEBE",
"A. c gray75",
"S. c #C0BBBB",
"D. c #C2BABA",
"F. c #C0BCBC",
"G. c #C1BCBC",
"H. c #C0BDBD",
"J. c #C1BDBD",
"K. c #C2BDBD",
"L. c #C0BEBE",
"P. c #C1BEBE",
"I. c #C0BFBF",
"U. c #C1BFBF",
"Y. c #C2BFBF",
"T. c #C4BCBC",
"R. c #C5BEBE",
"E. c #C2C0C0",
"W. c #C2C1C1",
"Q. c #C3C1C1",
"!. c gray76",
"~. c #C3C3C3",
"^. c #C4C0C0",
"/. c #C4C1C1",
"(. c #C5C1C1",
"). c #C4C3C3",
"_. c #C5C3C3",
"`. c #C6C2C2",
"'. c #C7C3C3",
"]. c gray77",
"[. c #C5C5C5",
"{. c #C6C4C4",
"}. c #C7C4C4",
"|. c #C6C5C5",
" X c #C6C6C6",
".X c #C7C6C6",
"XX c gray78",
"oX c #C9C3C3",
"OX c #C8C4C4",
"+X c #C9C6C6",
"@X c #C8C7C7",
"#X c #CAC7C7",
"$X c #CBC7C7",
"%X c #C6C8C9",
"&X c #C6C9C9",
"*X c #C8C8C8",
"=X c #CAC8C8",
"-X c #CBC8C8",
";X c #CAC9C9",
":X c #CACACA",
">X c #CBCACA",
",X c #CBCBCB",
"<X c #CDC9C9",
"1X c #CDCACA",
"2X c #CCCBCB",
"3X c #CDCBCB",
"4X c #CECBCB",
"5X c gray80",
"6X c #CDCCCC",
"7X c #CDCDCD",
"8X c #CECDCD",
"9X c #CFCDCD",
"0X c #CDCECF",
"qX c #CDCFCF",
"wX c #CECECE",
"eX c #CFCECE",
"rX c gray81",
"tX c #D4CBCB",
"yX c #D0CFCF",
"uX c #D1CFCF",
"iX c #D2CFCF",
"pX c #D4CCCC",
"aX c #D5CECE",
"sX c #D0D0D0",
"dX c #D1D0D0",
"fX c gray82",
"gX c #D2D0D0",
"hX c #D2D1D1",
"jX c #D3D1D1",
"kX c #D2D2D2",
"lX c #D3D2D2",
"zX c LightGray",
"xX c #D6D1D1",
"cX c #D4D2D2",
"vX c #D4D3D3",
"bX c #D6D2D2",
"nX c #D3D4D4",
"mX c gray83",
"MX c #D5D4D4",
"NX c #D5D5D5",
"BX c #D6D5D5",
"VX c #D7D5D5",
"CX c gray84",
"ZX c #D7D7D7",
"AX c #D8D5D5",
"SX c #D8D7D7",
"DX c #D8D8D8",
"FX c #D9D8D8",
"GX c gray85",
"HX c #DADADA",
/* pixels */
"          GXGXGX                                                                                                                  ",
"    GXGXGXGXGXGXGXGX              GX          GXGXGXGXGXGXGX                            GXGX                                      ",
"    GXGXGXGXGXGXGXGXGXGXGX      GXGXGXGXGXGXGXGXGXGXGXGXGXGXGXGXGXGXGXGXGXGXGX        GXGXGXGX                                    ",
"      GXGXGXGXGXGXGXGXGXGXGXGXGXGXGXGXGXGXGXGXGXGXGXGXGXGXGXGXGXGXGXGXGXGXGXGXGXGXGXGXGXGXGXGX      GXGXGXGXGXGXGXGXGX            ",
"      GXGXGXGXGXZXGXGXGXGXGXGXGXGXGXGXGXGXGXGXGXlXGXGXGXGXGXGXGXGXGXGXGXGXGXGXGXGXGXGXGXGXGXGXGXGXGXGXGXGXGXGXGXGXGXGX            ",
"      GXGXGXGXlX#.f.lXGXGXGXGXGXGXGXGXGXGXGXGX}.) }.GXGXGXGXGXGXGXGXGXGXGXGXGXGXGXGXGXGXGXGXGXGXGXGXGXGXGXGXGXGXGXGXGX            ",
"      ZXGXGXGXy.H H ,.GXGXGXGXGXGXGXGXGXGXGXlX) ) o.ZXGXGXGXGXGXGXGXGXGXGXGXGX6X/.yXGXGXGXGXZXZXGXGXGXGXGXGXGXGXZXGXGXGX          ",
"      ZXGXGXGXf.H ,.cXGXGXGXGXGXGXGXGXGXGXGX6X) ) ) 6XGXGXGXGXGXGXGXGXGXGXGXGX6Xa.a.n.,XlXlXD.lXGXGXGXGXGXGXGXGXaXGXGXGXZX        ",
"      GXGXGXGXGXGXGXGXGXGXGXGXGXGXGXGXGXGXGXGX}.e.}.GXGXGXGXGXGXGXGXGXGXGXGXGXZXa.a.a.a.a.a.a.<XGXGXGXGXGXGXGXGXaXcXGXGX          ",
"      GXGXGXGXGXGXGXGXGXGXZXlXcXGXcXGXGXGXGXGXGXGXGXGXGXGXGXGXGX}.e.GXGXGXGXGXGXJ.a.a.a.a.a.J.ZXGXGXGXGXZXGXGXSXtXaXGXGX          ",
"      GXGXGXGXGXGXGXGXGXGX<XD.D.D.D.yXGXGXGXGXGXGXGXGXGXGXGXGXGXz.i k ~.GXGXGXGXZXJ.#X#X<XZXGXGXGXGXGXT ' GXGXcXtXcXGXGX          ",
"      GXGXGXGXGXGXGXGXGXGXSXT.D.D.D.oXGXGXGXGXGXGXGXGXGXGXGXGXGXB.s i c GXGXGXGXGXGXGXGXGXGXGXGXGX/.f , $.GXGXGXGXGXGX            ",
"    GXGXGXGXGX6XGXGXGXGXGXGX<XD.D.T.yXGXGXGX6XS lXGXGXGXGXGXGXGXGXo.i 2.GXGXGXGXGXGXGXGXGXGXGX8.4 , , , 6XGXGXGXGXGXGX            ",
"    GXGXGXGXL L GXGXGXGXGXGXSXT.<XGXGXGXGXGX< & n.GXGXGXGXGXGXGXZX2.e.GXGXGXGXGXGXGXGXGXGXGXz., 4 ' /.J.GXGXGXGXGXGXGX            ",
"    GXGXGXGX4 8.GXGXGXGXGXGXGXZXGXGXGXGXGX) & ' GXGXGXGXGXGXGXGXGXGXGXGXGXGXGXGXGXGXGXGXGXGX,X,XGXGXGXGXGXGXGXGXGXGXGX            ",
"  GXGXGXGXGX6XGXGXGXGXGXGXGXGXGXGXGXGXGXGXi ' GXGXGXGXGXGXGXGXGXGXGXGXGXGXGXlXGXGXGXGXGXGXGXGXGXGXGXGXGXGXGXGXGXGXGXGX            ",
"  GXGXGXGXGXGXGXGXGXGXGXGXGXGXGXGXGXGXGXGXGXGXGXGXGXGXGXGXGXGXGXGXGXGXGXGXGX,X<XGXGXGXGXGXGXGXGXGXGXGXGXGXGXGXGXGXGXGXGX          ",
"  GXGXGXGXGXGXGXGXGXGXGXGXGXGXGXGXGXGXGXGXGXGXGXGXGXGXGXGXGXGXGXGXGXGXGXGXGXlX/.#XZXGXGXGXGXGXGXGXGXGXGXGXGXGXGXGXGXGXGX          ",
"      GXGXGXGXGXGXGXGXGXGXGXGXGXGXGXGXGXGXGXGXGXGXGXGXGXGXGXGXGXGXGXGXGXGXGXlX/./.6XGXGXGXGXGXGXGXGXGX<X<XGXGXGXGXGXGXGX          ",
"        GXGXGXGXGXGXGXGXGXGXGXGXGXGXGXGXGXGXZX<XZXGXGXGXGXGXGXGXGXGXGXGXGXGXZX}.6XZXGXGXGXGXGXGXGXGXlXV ~.GXGXGXGXGXGXGX          ",
"        GXGXGXGXGXGXGXGXGXGXGXGXGXGXGXGXGXGX/.D D ' yXGXGXGXGXGXJ.4 J.GXGXGXGXGXGXGXGXGXGXGXGXGXGXGX}.V ~.GXGXGXGXGXGXGXGX        ",
"        GXGXGXGXGXGXGXGXGXGXGXGXGXGXGXGXGXGXlXT D D J.GXGXGXGXGX8., 4 ZXGXGXGXGXGXGXGXGXGXGXGXGXGXGX}.V o.GXGXGXGXGXGXGXGX        ",
"        GXGXGXGXGXZX<XyXGXGXGXGXGXGXGXGXGXGXGX/.D D }.GXGXGXGXGXz., , /.GXGXGXGXGXGXGXGXZX6XGXGXGXGXZX<XGXGXGXGXGXGXGXGXGX        ",
"        GXGXGXGXGXa.D D ' ZXGXGXGXGXGXGXGXGXGXGX}.#XGXGXGXGXGXGX,X, , z.GXGXGXGXGXGXGXGXz.' ~.GXGXGXGXGXGXGXJ.n.GXGXGXGXGX        ",
"        GXGXGXGXGX<XD D D }.GXGXGXGXGXGXGXGXGXGXGXGXGXGXGXGXGXGXZX, , z.GXGXGXGXGXGXGXGXlXe.o.e.ZXGXGXGXGXGX' yXGXGXGXGXGX        ",
"      GXGXGXGXGXGXGXJ.D D lXGXGXGXGXGXGXGXGXGXGXGXGXGXGXGXGXGXGXGX4 , 8.GXGXGXGXGXGXGXGXGXGXGXGXGXGXGXGXGXyXJ.GXGXGXGXGXGX        ",
"      GXGXGXGXGXGXGXGX#X<XGXGXGXGXGXGXGXGXGXGXGXGXGXGXGXGXGXGXGXGXq , $.GXGXGXGXGXGXGXGXGXGXGXGXGXGXGXGXGXGXGXGXGXGXGXGXGX        ",
"      GXGXGXGXGXGXGXGXGXGXGXGXGXGXGXGXGXGXGXGXGXGXGXGXGXGXGXGXGXGXq , $.GXGXGXGXGXGXGXGXGXGXGXGXGXGXGXGXGXGXGXGXGXGXGXGXGX        ",
"      GXGXGXGXGXGXGXGXGXGXGXGXGXGX/.& t ,XGXGXGXGXGXZXZXGXGXGXGXGX, , z.GXGXGXGXGXGXGXGX/./.GXGXGXGXGXGXGXGXGXGXGXGXGXGXGX        ",
"        GXGXGXGXGXGXGXGXGXGXGXGXGX: o o 7 GXGXGXGX$.< 9 6XGXGXGXZX, , ' GXGXGXGXGXGXGXGXH b ZXGXGXGXGXGXGXGXGXL 7 $.,XGXGX        ",
"          GXGXGXGXGXGXGXGXGXGXGXGX/.o.B.lXGXGXGXB.: : : 9 ZXGXGX6X, , , z.GXGXGXGXGXGXGXH J.GXGXGXGXGXGXGXGXGXL O O + lXGX        ",
"          GXGXGXGXGXGXGXGXGXGXGXGXGXGXGXGXGXGXGXGXo.: : : 9 6XGXGXT , , , /.GXGXGXGXGXGXT yXGXGXGXGXGXGXGXGXGXGXc O O $.GX        ",
"          ZXGXGXGXGXGXGXGXGXGXGXGXGXGXGXGXGXGXGXGXZX6XGXV : o.GXGXGX/.V , 4 ZXGXGXGXGXGX@./.GXGXGXGXGXGXGXGXGXGXGXi O e.GX        ",
"          ZXGXGXGXGXGXGXGX6Xz.8.z.GXGXGXGXGXGXGXGXGXGXGXB.< B.GXGXGXGXGX6XJ.6XGXGXGXGXGXa.lXGXGXGXGXGXGXGXGXGXGXGX,XL GXGXZX      ",
"            GXGXGXGXGXGXGXg @ @ & GXGXGXGXGXGXGXGXGXGXGXGXGXGXGXGXGXGXGXGXGXGXGXGXGXGXGXGXGXGXGXGXGXGXGXGXGXGXGXGXGXGXGXGXZX      ",
"                ZXGXGXGXGXlX& @ 8.GXGXGXGXGXGXGXGXGXGXZXGXGXGXGXGXGXGXGXGXGXGXGXGXGXGXGXGXGXGXGXGXGXZX6XGXGXGXGXGXGXGXGXGXGX      ",
"                    GXGXGXGXo.& < 6XGXGXGXGXGXGXGXGXlX$.GXGXGXGXGXGXGXGXGXGXGXGXGXGXGXGXGXGXGXGXGXGXlXo.o.B.GXGXGXGXGXGXGXGX      ",
"                    GXGXGXGXGXGXGXGXGXGXGXGXGXGXGXGX6X8.GXGXGXGXGXGXGXGXGXGXGXGXGXz.z ,XGXGXGXGXGXGXZXo.o.o.}.GXGXGXGXGXGXGX      ",
"              GXGXGXGXGXGXGXGXGXGXGXGXGXGXGXGXGXGXGX,Xn.GXGXGXGXGXGXlX8.GXGXGXGXGXz.z 2.GXGXGXGXGXGXGXz.z.B.6XGXGXGXGXGXGXGX      ",
"            GXGXGXGXGXGXGXGXGXGXGXGXGXGXGXGXGXGXGXGX#X6XGXGXGXGXGXGX~.. V GXGXGXGXB.z N GXGXGXGXGXGXGXGXGXGXGXGXGXGXGXGXGXGXGX    ",
"          GXGXGXGXGXGXGXGXGXGXGXZX6XlXGXGXGXGXGXGXGX}.,XGXGXGXGXGXGXGXX 7 GXGXGXGX~.z z lXGXGXGXGXGXGXGXGXGXGXGXGXGXGXGXGXGXGX    ",
"          GXGXGXGXGXGXGXGXGXGXGXZXo.o.z.ZXGXGXGXGXGXcXJ.GXGXGXGXGXGXGX7 k GXGXGXGX}.z z ,XGXGXGXGXGXGXGXGXGXGXGXGXGXGXGXGXGXGX    ",
"          ZXGXGXGXGXGXGXGXGXGXGXGXo.o.o.}.GXGXGXGXGXGX:.GXGXGXGXGXGXGXlXGXGXGXGXGXlXz z ,XGXGXGXGXGXGXGXGXGXGXGXGXGXGXGXGXGX      ",
"            GXGXGXGXGXGXGXGXGXGXGXB.B.B.6XGXGXGXGXGXGXa.cXGXGXGXGXGXGXGXGXGXGXGXGXGX,Xz.lXGXGXGXGXGXGXGXGXg.GXGXGXGXGXGXGXGX      ",
"            GXGXGXGXGXGXGXGXGXGXGXGXGXGXGXGXGXGXGXGXGX6XcXGXGXGXGXGXGXGXGXGXGXGXGXGXGXGXGXGXGXGXGXGXGXGX%Xw nXGXGXGXGXGXGXGXGX    ",
"            GXGXGXGXGXGXlXGXGXGXGXGXGXGXGXGXGXGXGXGXGXGXGXGXGXGXGXGXGXGXGXlXGXGXGXGXGXGXGXGXGXGXGXGXGXGXr 6XGXGXGXGXGX/.#XGXGX    ",
"            GXGXGXGXGX}.# o.GXGXGXGXGXGXGXGXGXGXGXGXGXGXGXGXGXGXGXGXGXGX2.z S z.GXGXGXGXGXGXGXGXGXGXGXN.n GXGXGXGXGXGX@.yXGXGX    ",
"            ZXGXGXGXGX< # # L GXGXGXGXGXGXGXGXGXGXGXGXGXGXGXGXGXGXGXGX~.z z z z B.GXGXGXGXGXGXGXGXGXGXr ~ GXGXGXGXGX<XH #XGXGX    ",
"              GXGXGXGX6Xk # # z.GXGXGXGXGXGXGXGXGXGXGXGXGXGXGXGXGXGXGXo.z z z z N ZXGXGXGXGXGXGXGXGX6X- ~ GXGXGXGXGXf.H :.GXGX    ",
"              GXGXGXGXGXGX& # i GXGXGXGXGXGXGXGXGXGXGXGXGXGXGXGXGXGXGXS z z z z z ~.GXGXGXGXGXGXGXGX~ - ~ GXGXGXGXGX:.H :.GXGX    ",
"              GXGXGXGXGXGXq # 8.GXGXGXGXGXGXGXGXGXGXGXGXGXGXGXGXGXGXGXe.z z z z z z.GXGXGXGXGXGXGXGX! - ! GXGXGXGXGXlX#XlXGXGX    ",
"              GXGXGXGXGXGXz.J.GXGXGXGXGXGXGXGXGXGXGXGXGXGXGXGXGXGXGXGX,Xz z z z z B.GXGXGXGXGXGXGXGX6X; - <.GXGXGXGXGXGXGXGXGX    ",
"              GXGXGXGXGXGXGXGXGXGXGXZXJ.GXGXGXGXGXGXGX' V GXGXGXGXGXGXGXN z N ) z.GXGXGXGX<XGXGXGXGXGXr - - M GXGXGXGXGXGXGXGXGX  ",
"            GXGXGXGXGXGXGXGXGXGXGXGX' 8.GXGXGXGXGXGXGXi . lXGXGXGXGXGXGX~.,XGXGXGXGXGXGXGXa T GXGXGXGX1.- - ; GXGXGXGXGXGXGXGXGX  ",
"            GXGXGXGXGXGXGXGXGXGXGXGXGXGXGXGXGXGXGXGXGXz.. ~.GXGXGXGXGXGXGXGXGXGXGXGXGXGXGXa.a x ZXGXGXnX; - r GXGXGXGXGXGXGXGXGX  ",
"            GXGXGXGXGXGXGXGXGXGXGXGXGXGXGXGXGXGXGXGXGXlX* ,XGXGXGXGXGXGXGXGXGXGXGXGXGXGXGXGXT D ZXGXGXGXm - %XGXGXGXGXGXGXGXGX    ",
"            GXGXGXGXGXGXGXGXGXGXGXGXGXGXGXGXGXGXGXGXGXGXGXGXGXGXGXGXGXGXGXGXB.,XGXGXGXGXGXGXGXGXGXGXGXGX6X%XGXGXGXGXGXGXGXGXZX    ",
"            GXGXGXGXGXGXlX}.GXGXZXyX,X}.}.}.}.}.,XGXGXGXGXGXGXGXGXGXGXGXGXL = = k o.6XGXGXGXGXGXGXGXGXGXGXGXGXGXGXGXGXGXGXGX      ",
"            GXGXGXGXGXGXGXB.L o.L L L L L L L L ) lXGXGXGXGXGXGXGXGXGXGXV = = = = = o.GXGXGXGXGXGXGXGXGXGXGXGXGXGXGXGXGX          ",
"          GXGXGXGXGXGXGXGXGX,XJ.z.e.8.8.e.z.n.}.ZXGXGXGXGXGXGXGXGXGXGXGXo.= = = = s ZXGXGXGXGXGXGXGXGXGXGXGXGXGXGX                ",
"          GXGXGXGXGXGXGXGXGXGXGXGXGXGXGXGXGXGXGXGXGXGXGXGXGXGXGXGXGXGXGXGX6XB.2./.GXGXGXGXGXGXGXGXGX      ZXGXGX                  ",
"              ZXGXGXGXGXGXGXGXGXGXGXGXGXGXGXGXGXGXGXGXGXGXGXGXGXGXGXGXGXGXGXGXGXGXGXGX                                            ",
"                GXGX      GXGXGXGXZX        ZXGXGXGXGXGXGXGXGXGXGXGXGXGX                                                          ",
"                                                GXGXGX      ZXGXGXGX                                                              "
};
