/* XPM */
static char *e40e052d5f014df8a00887912378d4498SkFSeMdYeJ3exq7[] = {
/* columns rows colors chars-per-pixel */
"65 64 138 2 ",
"   c #C8E4FF",
".  c #6B6565",
"X  c #716C6C",
"o  c #777373",
"O  c #7A7272",
"+  c #7C7979",
"@  c #827E7E",
"#  c #768486",
"$  c #7C898B",
"%  c #868282",
"&  c #8A8282",
"*  c #8A8989",
"=  c #938B8B",
"-  c #828F91",
";  c #889496",
":  c #8F999B",
">  c #959292",
",  c #9B9494",
"<  c #9D9C9C",
"1  c #A29D9D",
"2  c #959EA0",
"3  c #9BA4A5",
"4  c #A5A3A3",
"5  c #ABA5A5",
"6  c #A4ACAD",
"7  c #ACAAAA",
"8  c #B2ADAD",
"9  c #AEB4B4",
"0  c #B5B3B3",
"q  c #BAB6B6",
"w  c #B4B9BA",
"e  c #BAB8B8",
"r  c #BBB8B8",
"t  c #BBBBBB",
"y  c #BCB9B9",
"u  c #BEB9B9",
"i  c #BFB9B9",
"p  c #BDBABA",
"a  c #BCBBBB",
"s  c #BDBBBB",
"d  c #BEBABA",
"f  c #BFBBBB",
"g  c #BABFBF",
"h  c #BCBCBC",
"j  c #BDBCBC",
"k  c #BFBDBD",
"l  c gray",
"z  c #BFBEBE",
"x  c gray75",
"c  c #BDBCBC",
"v  c #C1BCBC",
"b  c #C1BDBD",
"n  c #C2BDBD",
"m  c #C0BEBE",
"M  c #C1BFBF",
"N  c #C2BFBF",
"B  c #C0C0C0",
"V  c #C1C1C1",
"C  c #C3C0C0",
"Z  c #C2C1C1",
"A  c #C3C1C1",
"S  c gray76",
"D  c #C3C2C2",
"F  c #C3C3C3",
"G  c #C4C0C0",
"H  c #C4C1C1",
"J  c #C4C2C2",
"K  c #C5C2C2",
"L  c #C4C3C3",
"P  c #C5C3C3",
"I  c #C6C3C3",
"U  c #C7C3C3",
"Y  c #C0C3C4",
"T  c #C0C4C4",
"R  c gray77",
"E  c #C5C4C4",
"W  c #C5C5C5",
"Q  c #C7C4C4",
"!  c #C6C5C5",
"~  c #C7C5C5",
"^  c #C6C6C6",
"/  c #C7C6C6",
"(  c #C2C1C1",
")  c #C9C6C6",
"_  c #C8C7C7",
"`  c #C9C7C7",
"'  c #CAC7C7",
"]  c #C8C7C7",
"[  c #C6C8C9",
"{  c #C6C9C9",
"}  c #C7C9C9",
"|  c gray79",
" . c #CAC8C8",
".. c #CAC9C9",
"X. c #CBC9C9",
"o. c #CACACA",
"O. c #CBCACA",
"+. c #CBCBCB",
"@. c #CCC9C9",
"#. c #CCCACA",
"$. c #CCCBCB",
"%. c #CDCBCB",
"&. c gray80",
"*. c #CDCCCC",
"=. c #CDCDCD",
"-. c #CECCCC",
";. c #CFCCCC",
":. c #CECDCD",
">. c #CFCDCD",
",. c #CCCECF",
"<. c #CDCECF",
"1. c #CDCFCF",
"2. c #CECECE",
"3. c #CFCECE",
"4. c gray81",
"5. c #CECDCD",
"6. c #D0CFCF",
"7. c #D0D0D0",
"8. c #D1D0D0",
"9. c gray82",
"0. c #D2D1D1",
"q. c #D2D2D2",
"w. c #D3D2D2",
"e. c LightGray",
"r. c #D4D3D3",
"t. c #D3D4D4",
"y. c gray83",
"u. c #D5D4D4",
"i. c #D5D5D5",
"p. c #D6D5D5",
"a. c gray84",
"s. c #D7D6D6",
"d. c #D7D7D7",
"f. c #D6D6D6",
"g. c #D8D8D8",
"h. c gray85",
"j. c #DADADA",
"k. c #D9D9D9",
/* pixels */
"                                h.h.h.                                                                                            ",
"            h.                h.h.h.h.h.h.                                h.h.h.h.h.h.h.h.h.                                      ",
"          h.h.h.h.          h.h.h.h.h.h.h.h.h.h.h.h.          h.h.h.h.h.h.h.h.h.h.h.h.h.h.h.h.        h.h.h.h.                    ",
"          h.h.h.h.h.h.h.    h.h.h.h.h.d.L h.h.h.h.h.h.h.    h.h.h.h.h.h.h.h.h.h.h.h.h.h.h.h.h.    h.h.h.h.h.h.h.                  ",
"          h.h.h.h.h.h.h.h.h.h.h.h.h.h.> & = d.h.h.h.h.h.h.h.h.h.h.h.h.h.h.h.h.h.h.h.h.h.h.h.h.h.h.h.h.h.h.h.h.h.    h.            ",
"        h.h.h.h.h.h.h.h.h.h.h.h.h.h.d.& & * d.h.h.h.h.h.h.h.h.L 5 * % 0 h.h.h.h.h.h.h.h.h.h.h.h.h.h.h.h.h.d.h.h.h.h.h.d.          ",
"        h.h.h.h.h.h.h.h.h.h.h.h.h.h.<.* 7 <.h.h.h.h.h.h.h.h.h.o . . . X q.h.h.h.h.h.h.%.q.h.h.h.h.h.h.h.D 5 6.h.h.h.h.            ",
"        h.h.h.h.h.h.h.h.h.<.6 h.h.h.h.h.h.h.h.h.h.h.h.h.h.h.7 . . . . . 5 h.h.h.h.h.h.L L h.h.h.h.h.h.M 4 4 0 h.h.h.h.            ",
"      h.h.h.h.h.h.h.h.h.t.- # w h.h.h.h.h.h.h.h.h.h.h.h.h.h.% . . . . . , h.h.h.h.h.h.%.D h.h.h.h.h.<.7 4 4 4 q.h.h.h.            ",
"      d.h.h.h.h.h.h.h.h.g # # : h.h.h.h.h.h.h.h.h.h.h.h.h.h.+.7 j 7 * + 1 h.h.h.h.h.h.h.) h.h.h.h.h.h.q.q 4 4 / h.h.h.            ",
"        h.+., o 5 h.h.h.3 # # # t.h.h.h.h.h.h.h.h.h.h.h.h.h.h.h.h.h.h.h.h.h.h.h.h.h.h.h.h.h.h.h.h.h.h.h.h.<.7 s h.h.h.            ",
"        h.1 . . * h.h.h.- # $ 6 h.h.h.h.h.h.h.h.h.h.h.h.h.h.h.h.h.h.h.h.h.h.h.h.h.h.h.h.h.h.h.h.h.h.h.h.h.h.d.%.h.h.h.h.          ",
"        h.q.X . % h.h.t.w ; <.h.h.h.h.h.h.h.h.h.h.h.h.h.h.h.h.h.q.%.h.h.h.h.h.h.h.h.h.h.h.h.h.h.h.h.h.h.d.d.h.h.h.h.h.h.h.        ",
"        h.h.0 1 L h.h.h.h.h.h.h.h.h.h.h.w Y h.h.h.h.h.h.h.h.h.h.q 5 r h.h.h.h.h.h.h.h.h.+.0 D h.h.h.h.h./ 0 D d.h.h.h.h.h.        ",
"        h.h.h.h.h.h.h.h.h.h.h.h.h.h.h.h.: # - t.h.h.h.h.h.h.h.h.D 5 5 6.h.h.h.h.h.h.h.0 < < < 4 q.h.h.<.0 0 0 j h.h.h.h.          ",
"      h.h.h.h.h.h.h.h.h.h.h.h.h.h.h.h.h.w # # 6 h.h.h.h.h.h.h.h.h.j M h.h.h.h.h.h.h.<.< < < < < 4 q.h.<.j 0 0 j h.h.h.h.          ",
"  d.h.h.h.h.h.h.h.h.h.h.h.h.h.h.h.h.h.h.h.- # - h.h.h.h.h.h.h.h.h.h.h.h.h.h.h.h.h.h.h.r < < < < < 7 h.h.h.d.+.d.h.h.h.h.          ",
"  h.h.h.h.h.h.h.h.h.h.h.h.h.h.h.h.d.<.h.h.{ $ # 2 Y t.h.h.h.h.h.h.h.h.h.h.h.h.h.h.h.h.h.7 < < < < 0 h.h.h.h.h.h.h.h.h.h.          ",
"    h.h.h.h.h.h.h.h.h.h.h.h.h.h.h.4 = d.h.h.<.: # # 3 h.h.h.h.h.h.<.r <.h.h.h.h.h.h.h.h.q.4 < 4 r h.h.h.h.h.h.h.h.h.h.h.          ",
"    h.h.h.h.h.<.q h.h.h.h.h.h.h.+.& & 5 h.h.h.h.T 9 { h.h.h.h.<.q 5 5 M q.h.h.h.h.h.h.h.h.q.D d.h.h.h.h.h.h.h.h.h.h.h.h.h.        ",
"    h.h.h.h.h.8 8 h.h.h.h.h.h.<.= & & = h.h.h.h.h.h.h.h.h.q.q 5 5 5 5 5 8 %.h.h.h.h.h.h.h.h.h.h.h.h.h.h.h.h.h.h.h.h.h.h.h.        ",
"    d.h.h.h.<.7 7 ) h.h.h.h.<.= & & & , h.h.h.h.h.h.h.h.<.8 5 5 7 5 5 8 s L h.h.h.h.h.h.h.h.h.h.h.h.h.h.h.h.h.h.h.h.h.h.h.        ",
"    d.h.h.h.<.7 7 ) h.h.h.<.= & & & & r h.h.h.h.h.h.h.h.<.0 5 5 7 7 M s.h.h.h.h.h.h.h.h.j 5 +.h.h.h.%.4 5 8 q.h.h.h.h.h.h.        ",
"    d.h.h.h.h.q 8 h.h.h.h.4 & & & & = h.h.h.h.h.h.h.h.h.h.h.h.d.r.s.h.h.h.h.h.h.h.h.h.h.7 . . 7 h.h.d.5 4 4 q h.h.q.h.h.h.h.      ",
"      h.h.h.h.+.r h.h.h.h.* & & & > <.h.h.h.h.h.h.h.h.h.h.h.h.h.h.h.h.h.h.h.h.h.h.h.h.h./ . . +.h.h.h./ 4 4 s h.h.1 O 8 h.h.      ",
"      h.h.h.h.) q h.h.h.h.r , 7 L h.h.h.h.h.h.h.h.h.h.h.h.h.h.h.h.h.h.h.h.h.h.h.h.h.h.h.h.X + h.h.h.h.h.L M d.h.h.8 . . 5 h.      ",
"      h.h.h.h.r.8 d.h.h.h.h.h.h.h.h.h.h.h.h.h.h.h.h.h.h.h.h.h.h.h.h.d.D h.h.h.h.h.h.h.h.h.5 . j h.h.h.h.h.h.h.h.h.0 . . > h.      ",
"      h.h.h.h.h.q.d.h.h.h.h.h.h.h.h.h.h.h.h.h.h.h.h.h.h.h.h.h.h.h.h., * , d.h.h.h.h.h.h.h.h.5 + +.h.h.h.h.h.h.h.h.q.5 > 0 h.h.    ",
"      h.h.h.h.h.h.h.h.h.h.h.h.h.h.h.h.h.h.h.h.s 0 h.h.h.h.h.h.h.h.<.* * * 4 h.h.h.h.h.h.h.h.h.+.1 q.h.h.h.h.h.h.h.h.h.h.h.h.h.    ",
"        h.h.h.h.h.h.h.h.h.h.> 1 1 j h.h.h.h.+.. . o q.h.h.h.h.h.h.0 * * * 4 h.h.h.h.h.h.h.h.h.h.h.h.h.h.h.h.<.h.h.h.h.h.h.h.h.    ",
"        h.h.h.h.<.h.h.h.h.+.. . . . 0 h.h.h.+.% * 1 h.h.h.h.h.h.h.D * * < d.h.h.h.h.h.h.h.h.h.h.h.h.h.h.h.q.7 D h.h.h.h.h.h.d.    ",
"      h.h.h.h./ > h.h.h.h.0 . . . . % h.h.h.h.h.h.h.h.h.h.h.h.h.h.h.<.+.h.h.h.h.h.h.h.h.h.h.h.h.h.h.h.h.d.0 7 7 <.h.h.h.h.h.      ",
"      h.h.h./ @ < h.h.h.h., . . . . O h.h.h.h.h.h.h.h.h.h.<.7 0 h.h.h.h.h.h.h.h.h.h.h.h.<.{ Y Y h.h.h.h.d.7 7 7 +.h.h.h.h.h.      ",
"      h.h.h.> o o 4 h.h.h.% . . . . . h.h.h.h.h.h.h.h.h.h.4 < < <.h.h.h.h.h.h.h.h.h.h.; # # # - h.h.h.h.h.q.r D h.h.h.h.h.h.      ",
"      h.h.h.1 o o o h.h.h.. . . . . @ h.h.h.h.h.h.h.h.h.0 < < < +.h.h.h.h.h.h.h.h.h.h.<.; # $ g h.h.h.h.h.h.h.h.h.h.h.h.h.h.      ",
"      h.h.h.s o o * h.h./ . X 1 O . 8 h.h.h.h.h.h.h.h.D < < < < / h.h.h.h.h.h.h.h.h.h.h.h.h.h.h.h.h.h.h.h.h.h.h.h.h.h.h.h.        ",
"      h.h.h./ o o < h.h./ % +.h.h.+.h.h.h.h.h.h.h.h.h.0 < < < < 7 h.h.h.M M ) h.h.h.h.h.h.h.h.h.h.h.h.h.h.h.h.h.h.h.h.h.h.        ",
"      h.h.h.h.5 @ <.h.h.h.h.h.h.h.h.h.h.h.h.h.h.h.h.h.j < < < < < / h.d.5 4 4 q h.h.h.<.0 h.h.h.h.h.q.D 4 D h.h.h.h.h.h.          ",
"      h.h.h.h.h.h.h.h.h.h.h.h.h.h.h.h.<.h.h.h.h.h.h.h.q.< < < < < 0 h.h.M 4 4 8 h.h.<.% @ h.h.h.h.h.4 & + + s h.h.h.h.d.          ",
"        h.h.h.h.h.h.h.h.h.h.h.h.h.d.1 7 h.h.h.h.h.h.h.h.4 < < < < < M h.h.8 4 / h.q.% + + h.h.h.h.h.h.h.0 + > h.h.h.h.h.          ",
"      h.h.h.h.h.h.h.h.h.h.h.h.<.0 = & r h.6.1 , d.h.h.h.r j q.0 0 j d.h.h.h.d.h.h.<.+ + + h.h.h.h.h.h.h.h.8 <.h.h.h.h.h.          ",
"    h.h.h.h.h.h.h.h.h.h.h.h.8 & & * & <.h.1 = = / h.h.h.h.h.h.h.h.h.h.h.h.h.h.h.h.h.@ + % h.h.h.h.h.h.h.h.h.h.h.h.h.h.h.          ",
"  h.h.h.h.h.<.D / <.h.h.h.r & = 8 d.M h.h.= = > h.h.h.h.h.h.h.h.h.h.h.h.h.h.h.h.h.h.7 + > h.h.h.h.h.h.h.h.h.h.h.h.h.h.h.d.        ",
"d.h.h.h.h.h.4 8 < q.h.h.h.d.d.h.h.h.h.h.h.= = 5 h.h.h.h.h.h.h.h.h.h.h.h.h.h.h.h.h.h.q.< 7 h.h.h.h.h.h.h.h.h.h.h.h.h.h.h.h.        ",
"h.h.h.h.h.h.1 < 7 h.h.h.h.h.h.h.h.h.h.h.d.= = / h.h.h.h.h.h.h.h.h.h.h.h.h.h.h.h.h.h.h.h.h.h.h.h.h.h.h.h.h.h.h.; <.h.h.h.h.        ",
"  h.h.h.h.h.j < D h.h.h.h.h.h.h.h.h.h.h.%.= = h.h.h.h.h.h.h.h.h.h.h.h.h.h.h.h.h.h.h.h.h.h.h.h.h.h.h.h.h.h.h.<.# w h.h.h.h.        ",
"  h.h.h.h.h.h.q.h.h.h.h.h.h.h.h.h.h.h.h./ = 4 h.h.h.h.h.h.h.h.1 5 h.h.h.h.h.h.<.M <.h.h.h.h.h.h., 5 h.h.h.h.6 # 6 h.h.h.h.        ",
"  h.h.h.h.h.h.h.h.h.h.h.h.h.h.h.h.h.h.h.N = s h.h.h.h.h.h.h.> o @ h.h.h.h.h.h.r & 7 h.h.h.h.h.s . X h.h.h.h.; # 6 h.h.h.h.        ",
"  d.h.h.h.h.h.h.h.h.h.h.h.h.h.h.h.h.h.h.s = h.h.h.h.h.h.h.7 o o = h.h.h.h.h.r 1 & * h.h.h.h.h.5 . . +.h.h.t.# # 6 h.h.h.h.        ",
"  d.h.h.h.h.h.h.h.h.h.h.h.h.h.h.h.h.h.h.s 5 h.h.h.h.h.h.h.q.@ o & h.h.h.h.+.& & & = h.h.h.h.h.h.+ % h.h.h.{ # # 3 h.h.h.h.        ",
"  d.h.h.h.h.h.h.h.h.h.h.h.h.h.h.h.h.h.h.d.d.h.h.h.h.h.h.h.h./ + o 5 h.h.h.h.= & & > h.h.h.h.h.h.h.h.h.h.h.Y # # - h.h.h.h.d.      ",
"  d.h.h.h.h.h.h.h.h.h.h.h.h.h.h.h.h.h.h.h.h.h.h.h.h.h.h.h.h.h.5 o & h.h.h.h.+.& & , h.h.h.h.h.h.h.h.h.h.h.t.T $ # 3 6 T h.h.      ",
"    h.h.h.h.h.h.h.h.h.h.h.h.h.5 % D h.h.h.h.h.h.h.h.h.h.h.h.h.<.7 q.h.h.h.h.h.1 & , h.h.h.h.h.h.h.h.h.h.h.h.h.6 # # # w h.h.      ",
"    h.h.h.h.h.h.h.h.h.h.h.h.h.@ @ < h.h.h.h.h.h.h.) q.h.h.h.h.h.h.h.h.h.h.h.h.8 & , h.h.h.h.h.h.h.h.h.h.h.h.h.T # # # <.h.h.      ",
"    h.h.h.h.d.8 5 0 +.h.h.h.h.@ @ % r.h.h.h.h.h.) 7 7 q.h.h.h.h.h.h.h.h.h.h.h.<.& > h.h.h.h.h.h.q h.h.h.h.h.h.h.- # 6 h.h.h.d.    ",
"    h.h.h.h.h.q.4 1 1 s h.h.h.* @ @ j h.h.h.h.q.0 7 7 0 h.h.h.h.h.h.h.h.h.h.h.h.<.4 d.h.h.h.h.M , , q.h.h.h.h.h.9 3 h.h.h.h.h.    ",
"      h.h.h.h.h.q.4 1 1 h.h.h.<., @ 7 h.h.h.h.j 7 7 7 7 j h.h.h.h.h.h.h.h.h.h.h.h.d.h.h.h.h.h.q , , s h.h.h.h.h.h.h.h.h.h.h.h.h.  ",
"      h.h.h.h.h.h.d.8 4 h.h.h.h.h.q D h.h.h.h.0 7 7 7 7 s h.h.h.h.h.h.h.h.h.h.h.h.h.h.h.h.h.h.h.<.q <.h.h.h.h.h.h.h.h.h.h.h.h.h.  ",
"        h.h.h.h.h.h.h.d.h.h.h.h.h.h.h.h.h.h.h.q.<.q.D j ) h.h.h.h.h.h.h.h.h.h.h.h.h.h.h.h.h.h.h.h.h.h.h.h.h.h.h.h.h.h.h.h.h.h.    ",
"        d.h.h.h.h.h.h.h.h.h.h.h.h.h.h.h.h.h.h.h.h.h.h.h.h.h.h.h.h.h.h.h.h.h.h.    h.h.h.h.h.h.h.h.h.h.h.h.h.h.h.h.h.h.h.h.d.      ",
"          h.h.h.h.h.h.h.h.h.h.h.h.    h.h.h.h.h.h.h.h.h.h.h.h.h.h.h.h.h.h.          d.h.h.h.h.h.h.h.d.          d.                ",
"            h.h.h.h.h.h.h.h.h.            h.h.          h.h.h.h.h.                      h.h.h.h.h.                                ",
"              h.h.h.h.h.h.                                                                h.h.h.d.                                ",
"                d.h.h.d.                                                                                                          "
};
