/* XPM */
static char *aa68de89ee8b486cc92a804359eb1190ZRjH9yoTHNxbqdwd[] = {
/* columns rows colors chars-per-pixel */
"65 64 202 2 ",
"   c None",
".  c #696464",
"X  c #746D6D",
"o  c #777272",
"O  c #777373",
"+  c #787272",
"@  c #7B7878",
"#  c #7D7979",
"$  c #7E7979",
"%  c #7E7A7A",
"&  c #847F7F",
"*  c #768486",
"=  c #7C898B",
"-  c #858181",
";  c #898181",
":  c #888383",
">  c #898585",
",  c #8E8686",
"<  c #898989",
"1  c #8C8989",
"2  c #938989",
"3  c #938C8C",
"4  c #938F8F",
"5  c #828E91",
"6  c #889495",
"7  c #889496",
"8  c #8E999A",
"9  c #8F999B",
"0  c #929090",
"q  c #949191",
"w  c #969292",
"e  c #979595",
"r  c #989191",
"t  c #989292",
"y  c #989393",
"u  c #9B9393",
"i  c #9A9797",
"p  c #9D9797",
"a  c #949E9F",
"s  c #989898",
"d  c #9E9898",
"f  c #9D9D9D",
"g  c #9F9D9D",
"h  c #A09898",
"j  c #A29B9B",
"k  c #A29C9C",
"l  c #A19E9E",
"z  c #A39F9F",
"x  c #A49D9D",
"c  c #A69F9F",
"v  c #9BA4A5",
"b  c gray63",
"n  c #A2A2A2",
"m  c #A7A2A2",
"M  c #A4A4A4",
"N  c #A7A7A7",
"B  c #A9A1A1",
"V  c #A8A4A4",
"C  c #A8A5A5",
"Z  c #A9A5A5",
"A  c #A8A6A6",
"S  c #ACA5A5",
"D  c #ACA7A7",
"F  c #AFA7A7",
"G  c #A1A9AA",
"H  c #A1A9AB",
"J  c #A1AAAA",
"K  c #A7AEAF",
"L  c gray66",
"P  c #ABA8A8",
"I  c #AAAAAA",
"U  c #ACA8A8",
"Y  c #ADA9A9",
"T  c #AFA8A8",
"R  c #ACAAAA",
"E  c #ACACAC",
"W  c gray68",
"Q  c #AFACAC",
"!  c #AFADAD",
"~  c #B0AAAA",
"^  c #B1AAAA",
"/  c #B1ADAD",
"(  c #B2ACAC",
")  c #B1AEAE",
"_  c #B0AFAF",
"`  c #B1AFAF",
"'  c #B3AFAF",
"]  c #B4ADAD",
"[  c #ADB3B4",
"{  c #AEB3B4",
"}  c #AEB3B5",
"|  c gray69",
" . c #B2B1B1",
".. c gray70",
"X. c #B4B1B1",
"o. c #B7B0B0",
"O. c #B6B1B1",
"+. c #B4B2B2",
"@. c #B5B3B3",
"#. c #B6B2B2",
"$. c #B7B2B2",
"%. c #B6B3B3",
"&. c gray71",
"*. c #B6B4B4",
"=. c #B6B5B5",
"-. c #B7B6B6",
";. c #B7B7B7",
":. c #B9B3B3",
">. c #B9B4B4",
",. c #B8B7B7",
"<. c #BBB6B6",
"1. c #BAB7B7",
"2. c #BBB7B7",
"3. c #BCB7B7",
"4. c #B4B9BA",
"5. c #BAB8B8",
"6. c #BBB8B8",
"7. c #BBBBBB",
"8. c #BCBBBB",
"9. c #BDBBBB",
"0. c #BEBABA",
"q. c #BFBABA",
"w. c #BEBBBB",
"e. c #BFBBBB",
"r. c #BABFBF",
"t. c #BCBCBC",
"y. c #BDBCBC",
"u. c gray",
"i. c gray75",
"p. c #C0BCBC",
"a. c #C0BDBD",
"s. c #C1BDBD",
"d. c #C2BDBD",
"f. c #C0BEBE",
"g. c #C1BEBE",
"h. c #C0C0C0",
"j. c #C3C0C0",
"k. c #C2C1C1",
"l. c #C3C1C1",
"z. c #C3C2C2",
"x. c #C3C3C3",
"c. c #C4C0C0",
"v. c #C4C2C2",
"b. c #C4C3C3",
"n. c #C5C3C3",
"m. c #C6C3C3",
"M. c #C7C3C3",
"N. c #C0C3C4",
"B. c #C0C4C4",
"V. c gray77",
"C. c #C5C4C4",
"Z. c #C5C5C5",
"A. c #C7C4C4",
"S. c #C7C5C5",
"D. c #C6C6C6",
"F. c #C7C6C6",
"G. c gray78",
"H. c #C8C5C5",
"J. c #C8C6C6",
"K. c #C9C6C6",
"L. c #C8C7C7",
"P. c #C9C7C7",
"I. c #C6C8C9",
"U. c #C7C8C9",
"Y. c #C6C9C9",
"T. c #C7C9C9",
"R. c gray79",
"E. c #CAC8C8",
"W. c #CAC9C9",
"Q. c #CACACA",
"!. c #CBCACA",
"~. c #CBCBCB",
"^. c #CCCBCB",
"/. c #CDCCCC",
"(. c #CDCDCD",
"). c #CECDCD",
"_. c #CFCDCD",
"`. c #CDCFCF",
"'. c #CECECE",
"]. c #CFCECE",
"[. c gray81",
"{. c #D0CECE",
"}. c #D0CFCF",
"|. c #D0D0D0",
" X c #D1D0D0",
".X c gray82",
"XX c #D2D1D1",
"oX c #D2D2D2",
"OX c #D3D2D2",
"+X c LightGray",
"@X c #D4D3D3",
"#X c #D3D4D4",
"$X c gray83",
"%X c #D5D4D4",
"&X c #D5D5D5",
"*X c #D6D5D5",
"=X c gray84",
"-X c #D7D6D6",
";X c #D7D7D7",
":X c #D8D8D8",
">X c gray85",
",X c #DADADA",
/* pixels */
"                                                                                              >X>X                                ",
"                                                                                        >X>X>X>X>X>X                              ",
"                                                                              >X>X>X>X>X>X>X>X>X>X>X>X                            ",
"                                        >X>X>X;X;X;X;X;X;X;X;X;X;X;X    >X>X>X>X>X>X>X;Xf._.>X>X>X>X>X    >X>X;X;X                ",
"                >X>X>X>X>X>X        >X>X>X>X>X>X>X>X>X>X>X>X>X>X>X>X>X>X>X>X>X>X>X>XR., : p >X>X>X>X>X>X>X>X>X>X>X>X>X>X          ",
"            >X>X>X>X>X>X>X>X>X>X>X>X>X>X>X>X>X>X>X>X>X>X>X>X>X>X>X>X>X>X>X>X>X>X>X>XR., : : ;X>X>X>X>X>X>X>X>X>X>X>X>X>X>X        ",
"          >X>X>X>X>X>X>X>X>X>X>X>X>X>X>X>XK.o.] >X>X>X>X>X>X>X>X>X>X>X>X>X>X>X>X>X>X>X_.m r >X>X>X>X>X>X>X>X>X>X>X>X>X>X>X        ",
"        ;X>X>X>Xz.f.;X>X>X>X>X>X>X>X>X_.:.F F 8.>X>X>X>X>X>X>X>X>X>X>X>X>X>X>X>X>X>X>X>X>X>X>X>X>X>XOX! b.>X>X>X>X>X>X>X>X>X      ",
"        ;X>X>X>XOX;X>X>X>X>X>X>X>Xb.o.F ^ b.;X>X>X>X>X>X>X>X>X>X>X>X>X>X>X>X;X;X>X>X>X>X>X>X>X>X>X>Xz . . i >X>X>X>X>X>X>X>X>X    ",
"        >X>X>X>X>X>X>X>X>X>X>X>Xf.F F f.;X>X>X>X>X>X>X>X>X>X>X>X>X>X>X>X>Xz.L 1.>X>X>X>X>X>X>X>X>X>X4 . . C >X>X>XG #X>X>X>X>X    ",
"        >X>X>X>X>X>X>X>X>X>X>X_.F ] _.>X>X>X>X>X>X>X>X! i b.>X>X>X>X>X>XR.C C f.>X>X>X>X>X>X>X>X>X>X! . o >X>X>X>X9 9 >X>X>X>X>X  ",
"      >X>X>X>X>X>X>X>X>X>X>X>XK.b.;X>X>X>X>X>X>X>X>Xz . . . i >X>X>X>X>XOX` o.OX>X>X>X>X>X>X>X>X>X>X>X>X>X>X>X>X>X[ * G >X>X>X>X  ",
"    >X>X>X>X>X>X>X>XOX;X>X>X>X>X>X>X>X>X_.;X>X>X>X>X. . . . . R.>X>X>X>X>X>X>X>X>X>X>X>X>X>X>X>X>X>X>X>X>X>X>X>X>X#X6 9 >X>X>X>X  ",
"    >X>X>X>X>X>X_.&.&.OX>X>X>X>X>X>X>X>Xz.K.>X>X>X>XR.&.z o . b.>X>X>X>X>X>X>X>X>X>XN.K K >X>X>X>X>X>X>X>X>X>X>X>X>X>X>X>X>X>X>X  ",
"    >X>X>X>X>X>Xt.&.R.>X>X>X>X>X>X>X>X;Xf.{.>X>X>X>X>X>X>X>X&.OX>X>X>X>X>X>X>X>X>X4.* * v >X>X>X>X>X>X>X>X>X>X>X>X>X>X>X>X>X>X>X>X",
"    >X>X>X>X>X>X_.;X>X>X>X>X>X>X>X>X>X;XK.>X>X>X>X>X>X>X>X>X>X>X>X>X>X>X>X>X>X>X>X5 * * _.>X>X>X>X>X>X>X>X>X>X>X>X>X>X>X>X>X>X>X;X",
"    >X>X>X>X>X>X>X>X>X>X>X>X>X>X>X>X>X>X>X>X>X>X>X>X>X>X>X>X>X>X>X>X>X>X>X>X>X>X4.* * G >X>X>X>X>X>X>X>X>X>X>X>X>X>X>X>X>X>X>X>X  ",
"    >X>X>X>X>X>X>X>X>X>X>X>X>X>X>X>X>X>X>X>X>X>X>X>X>X>X>X>X>X>X>X>X>X>X>X>X[ G = * v >X>X>X>X>X>X>XOX>X>X>X>X>X>X>X>X>X>X>X>X>X  ",
"    >X>X>X>X>X>X>X>X>X>X>X>X>X>X>X>X>X>X>X>X>X>X>X>X>X>X>X>X>X>X>X>X>X>X>X#X= * 6 B.>X>X>X>X>X>X>X>Xr _.>X>X>X>X;XOX>X>X>X>X>X>X  ",
"    >X>X>X>X>X>X>X>X>X>X>X>X>X>X>X>X>X>X>X>XM b >X>X>X>X>X>X>X>X>X>X>X>X>X>X#X#X>X>X>X>X>X>X>X>X>X>Xr d >X>X>X>Xb.8.>X>X>X>X>X>X  ",
"  ;X>X>X>X>X>X>X>X>X>X>X>X>X>X>X>X>X>X>X>XR.g g >X>X>X>X>X>X>X>X>X>X>X>X>X>X>X>X>X>X>X>X>X>X>X>X>X>XV._.>X>X>X>XK.1.>X>X>X>X>X    ",
"  >X>X>X>X>X>X>X>X>X>X>X>X>X>X>X>X>X>X>X>X&.g M >X>X>X>X>XV.! _.>X>X>X>X>X>X>X>X>X>X>X>X>X>X>X>X>X>X>X>X>X>X>X>X;X1.>X>X>X>X>X    ",
"  >X>X>X>X>X>X>X>X>X>X>X>X>X>X- C OX>X>X>X! g L >X>X>X>X7.< < b >X>X>X>X>X>X>X>X>X>X>X>X>X>Xf.>X>X>X>X>X>X>X>X>X>X1.>X>X>X>X>X    ",
"  >X>X>X>X>X>X>X>X>X>X>X>X>XV.. . o OX>X>XM g ! >X>X>X;X< < < < ;X>X>X>X>X>X>X>X>X>X>X>X>X;X: F ;X>X>X>X>X>X>X>X>X3.>X>X>X>X>X    ",
"  >X>X>X>X>X>X>X>X>X>XR.R.&.1 . . C >X>X>XM g 7.>X>X>X>Xs < < < z.>X>X>X>X>X>X>X>X>X>X>X>X>Xp : 4 T f.>X>X>X>X>XOX8.>X>X>X>X>X    ",
"  >X>X^.: R.>X>X>X>XR.! 1 # o - b.>X>X>X>XV.V.>X>X>X>X>X_.M < g _.>X>X>X>X>X>X>X>X>X>X>X>X>Xo.r 4 : : ` >X>X>X>Xf.K.>X>X>X>X>X    ",
"  >X>Xz X >X>X>X>X>X>X>X>X>X>X>X>X>X>X>X>X>X>X>X>X>X>X>X>X>X>X>X>X>X>X>X>X>X>X>X>X>X>X>X>X>X>X;X>Xf.T p b.>X>X>X1.@X>X>X>X>X>X    ",
"  >X>X>X>X>X>X>X>X>X>X>X>X>X>X>X>X>X>X>X>X>X>X>X>X>X>X>X>X>X>X>X>X>X>X>X>X>X>X>X>X>X>X>X>X>X>X>X>X>X>X>X>X>X>X>X_.>X>X>X>X>X>X    ",
"  >X>X>X>X>X>X>X>X>X>X>X>X>X>X>X>X>X>X>X>X>X>X>X>X>X>X>X>X>X>X>X>X>X>X>X>X>X>Xz o z >X>X>X>X>X>X>X>X>X>X>X>X>X>X>X>X>X>X>X>X>X    ",
"  >X>X>X>X>X>X` ` K.>X>X>X>X>X>X>X>X>X>X>X>X>X>X>X>XOXV.f.OX>X>X>X>X>X>X>X>X&.. . . >X>X>X>X>X>X>X>X>X>X>X>X>X>X>X>X>X>X>X>X>X    ",
"  >X>X>X>X>Xg # # q 8.>X>X>X>X>X>X>X>X>X>X>X>X>X>XV.B B B f.>X>X>X>X>X>X>X>X>XR.t.b.>X>X>X>X>X>X>X>X>X>X>X>X>X>X>X>X>X>X>X>X>X    ",
"  >X>X>X>XK.# > K.>X>X>X>X>X>X>X>X>X>X>X>X>X>X>X>Xf.B B T OX>X>X>X>X>X>X>X>X>X>X>X>X>X>X>X>X>X>X>X>X>X>X>X;X>X>X>X>X>X>X>X>X>X    ",
"  >X>X>X>X>X` _.>X>X>X>X>X>X>X>X_.@ 0 _.>X>X>X>X>X{.T F {.>X>X>X>X>X>X>X>X>X>X>X>X>X>X>X>X>X>X>X>X>X>X>X` 2 @X>X>X>X>X>X>X>X>X    ",
"  >X>X>X>X>X>X>X>X>X>X>X>X>X>X>X>X8.z.>X>X>X>X>X>X>X;X;X>X>X>X>X>X>X>X>X>X>X>X>X>X>X>X>X>X>X>X>X>X>X>X_.: : m >X>X>X>X>X>X>X>X    ",
"    >X>X>X>X>X>X>X>X>X>X>X>X>X>X>X>X>X>X>X>X>X>X>X>X>X>X>X>X>X>X>X>X>X>X>X>X>X>X>X>X>X>X>X>X>X>X>X>X>X` : : : ` >X>X>X>X>X>X>X    ",
"    >X>X>X>X>X>X>XOX| OX>X>X>X>X>X>X>X>X>X>X>X>X>X>X>X>X>X>X>X>X>X>X>X>X>X>X>X>X>X>X>X>X>X>X>X>X>X>X>Xo.: : : : ` >X>X>X>X>X>X    ",
"    >X>X>X>X>X>XOX| L | ;X>X>X>X>X>X>X>X>X>X>X>X>X>X>X>X>X>X>X>X>X>X>X>X>X>X>X>X>X>X>X>X>X>X>X>X>X>X>X;X, : : : : ` >X>X>X>X>X    ",
"    >X>X>X>X>X>XV.L L L R.>X>X>X>X>X>X>X>X>X>X>X>X>X>X>X>X>X>X>X>X>X>X>X>XR.V.>X>X>X>X;X8.z.;X>X>X>X>X>Xo.: : : : : f.>X>X>X>X    ",
"    >X>X>X>X>X>X;X| ! t.>X>X>X>X>X>X>X>X>X>X>X>X>X>X>X>X>X>X>X>X>X>X>XOXM g g L >X>X>X` 2 2 x >X>X>X>X>X>X` : : : : T >X>X>X>X    ",
"    >X>X>X>X>X>X>X>X;X>X>X>X>X>X>XI.N.N.N.#X>X>X>X>X>X>X>X>X>X>X>X>X>XM g g g g 7.>X>X1.2 2 2 V.>X>X>X>X>X>X_.7.z z _.>X>X>X>X    ",
"    >X>X>X>X>X>X>X>X>X>X>X>X>X>X>X9 * * * * I.>X>X>X@XF b.>X>X>X>X>Xz.g g g g g { >X>X>Xo.2 2 x >X>X>X>X>X>X>X>X>X>X>X>X>X>X>X    ",
"  ;X>X>X>X4.I.>X>X>X>X>X>X>X>X>X>XI.6 * 9 B.>X>X>X>XF : p >X>X>X>X>X| g g g g g | >X>X>X>X` 2 2 V.>X>X>X>X>X>X>X>X>X>X>X>X>X>X    ",
"  ;X>X>X>Xr.6 #X>X>X>X>X>X>X>X>X>X>X>X>X>X>X>X>X>X@X: : T >X>X>X>X>XL g g g g g V.>X>X>X>X>Xx 2 x >X>X>X>X>X>X>X>X>X>X>X>X>X>X    ",
"    >X>X>X>XB.K >X>X>X>X>X>X>X>X>X>X>X>X>X>X>X>X>XR.: : o.>X>X>X>X>Xt.g g g g b >X>X>X>X>X>X;Xh 2 8.>X>X>X>X>X;X>X>X>X>X>X>X>X    ",
"    >X>X>X>X#X= #X>X>X>X>X>X>X>X>X>X>X>X>X>X>X>X>Xb.: : f.>X>X>X>X>X>XOXt.&.L ! >X>X>X>X>X>X>X;Xr x >X>X>X>X>Xz.T >X>X>X>X>X>X;X  ",
"    >X>X>X>X>X* K >X>X>X>X>XC R.>X>X>X>X>X>X>X>X>Xb.: : R.>X>X>X>X>X>X>X>X>X>X>X>X>X>X>X>X>X>X>X{.x >X>X>X>X>X>Xz.;X>X>X>X>X>X>X  ",
"    >X>X>X>X>X= = >X>X>X>X8.. - >X>X>X>X>X>X>X>X>X7.: : ;X>X>X>X>X>X>X>X>X>X>X>X>X>X>X>X>X>X>X>X>X>X>X>X>X>X>X>X>X>X>X>X>X>X>X>X  ",
"    >X>X>X>X>X5 * I.>X>X>Xz . . OX>X>X>X>X>X>X>X>X7.: : ;X>X>X>X>X>X>X>X>X>X>X>X>X>X>X>X>X>X>X>X>X>X>X>X>X>X>X>X>X>X>X>X>X>X>X>X  ",
"    >X>X>X>XI.* * _.>X>X>X&.. i >X>X>X>X>X>X>X>X>Xb.: : _.>X>X>X>X>X>X>X>X>X>X>X>X>X>X>X>X>X>X>X>X>X>X>X>X>X>X>X>X>X>X>X>X>X>X>X  ",
"    >X>X>X[ * * G >X>X>X>X>XOX>X>X>X>X>X>X>X>X>X>X7.: : b.>X>X>X>X>XOX7.>X>X>X>X>X>X>X>X>X>X>X>X>X>X>X>X>X>X>X>X>X>X>X>X>X>X>X>X  ",
"  >X>X>Xr.* * * B.>X>X>X>X>X>X>X>X>X>X>X>X>X>X>X_.4 : : b.>X>X>X>X_.& + o.>X>X>X>X>X>X>X>X>X>X>X>X>X>X>X>X>X>X>X>X>X>X>X>X>X>X>X  ",
"  >X>X>X4.* * 6 >X>X>X>X>X>X>X>X>X>X>X>X>X>X>X_.4 : : 4 _.>X>X>X_.& + # ! >X>X>X>X>X>X>X>X>X>X>X>X_.>X>X>X>X>X>X>X>X>X>X>X>X>X>X  ",
"  >X>X>X#X= * 4.>X>X>X>X>X>X>X>X>X>X>X>X>X>X>X4 : p o.;X>X>X>X>X& + & _.>X>X>X>X>X>X>X>X>X>X>X>X1.t.>X>X>X>X>X>X>X>X>X>X>X>X>X>X  ",
"  >X>X>X>Xr.a _.>X>X>X>X>X>X>X>X>X>X>X>X>X>X;X7._.>X>X>X>X>X>X>X# + q >X>X>X>X>X>X>X>X>X>X>X>X>Xe ;X>X>X>X>X;Xf.o.^ K.>X>X>X>X>X  ",
"  >X>X>X>X>X>X>X>X>X>X>X;X>X>X>X>X>X>X>X>X>X>X>X>X>X>X>X>X>X>X>X_.& C >X>X>X>X>X>X>X>X>X>X>X>X1.1.>X>X>X>X_.x h h 8.>X>X>X>X>X    ",
"  >X>X>X>X>X>X>X>X>X>XOXx 8.>X>X>X>X>X>X>X>X>X>X>X>X>X>X>X>X>X>X>X>X>X>X>X;XV.OX>X>X>X>X>X>X>X| >X>X>X>X>X^ h h f.>X>X>X>X>X>X    ",
"  >X>X>X>X>X>X>X>X>X>X>XOX;X>X>X>X>X>X>X>X>X>X>X>X>X>X>X>X>X>X>X>X>X>X>X;Xo.T 8.>X>X>X>X>X>X>X>X>X>X>X>X>X` x R.>X>X>X>X>X>X      ",
"    >X>X>X>X>X>X>X>X>X>X>X>X>X>X>X>X>X>X>X>X>X>X>X>X>X>X>X>X>X>X>X>X>X;X&.t.V.OX>X>X>X>X>X>X>X>X>X>X>X>X>X;X;X>X>X>X>X>X>X>X      ",
"      >X>X>X>X>X>X>X>X>X>X>X>X>X>X>X>X>X>X>X>X    ;X>X>X>X>X>X>X>X>X>X>X>X>X>X>X>X>X>X>X>X>X>X>X>X>X>X>X>X>X>X>X>X>X>X>X>X        ",
"          >X>X>X>X>X      >X>X>X>X>X>X>X>X>X          >X>X>X>X>X>X>X>X>X>X>X>X>X>X>X>X>X>X>X    >X>X>X>X>X>X>X>X>X>X>X>X          ",
"                            >X>X>X>X>X>X>X                    ;X>X>X>X>X            >X;X            ;X>X>X>X>X>X>X>X>X            ",
"                              >X>X>X>X>X>X                                                                >X>X>X>X>X              ",
"                                >X>X>X>X                                                                    >X>X>X                ",
"                                ;X>X>X                                                                                            "
};
