/* XPM */
static char *_67894eab3ae4cac97c38d1868207d57ybHzkuT7duDx95cG[] = {
/* columns rows colors chars-per-pixel */
"65 64 135 2 ",
"   c #C8E4FF",
".  c #625B5B",
"X  c #6B6565",
"o  c #726C6C",
"O  c #767474",
"+  c #797272",
"@  c #7E7A7A",
"#  c #837E7E",
"$  c #768486",
"%  c #7C898B",
"&  c #868080",
"*  c #8A8484",
"=  c #8E8A8A",
"-  c #938C8C",
";  c #828F90",
":  c #8F999B",
">  c #959191",
",  c #9B9494",
"<  c #9D9D9D",
"1  c #A29C9C",
"2  c #A99F9F",
"3  c #A4A2A2",
"4  c #AAA3A3",
"5  c #A5ACAD",
"6  c #ADACAC",
"7  c #B0A4A4",
"8  c #B4AEAE",
"9  c #B9AEAE",
"0  c #A8AEB0",
"q  c #AEB3B5",
"w  c #B5B3B3",
"e  c #BAB4B4",
"r  c #B4B9BA",
"t  c #BCBBBB",
"y  c #C0BCBC",
"u  c #C1BCBC",
"i  c #C1BDBD",
"p  c #C2BDBD",
"a  c #C0BFBF",
"s  c #C1BFBF",
"d  c #C4BCBC",
"f  c #C1BABA",
"g  c #C1C1C1",
"h  c #C2C0C0",
"j  c #C3C1C1",
"k  c gray76",
"l  c #C3C3C3",
"z  c #C4C0C0",
"x  c #C4C1C1",
"c  c #C5C1C1",
"v  c #C6C0C0",
"b  c #C5C2C2",
"n  c #C4C3C3",
"m  c #C5C3C3",
"M  c #C6C2C2",
"N  c #C7C3C3",
"B  c #C0C4C4",
"V  c gray77",
"C  c #C6C4C4",
"Z  c #C7C4C4",
"A  c #C6C5C5",
"S  c #C6C6C6",
"D  c gray78",
"F  c #C5C4C4",
"G  c #C8C2C2",
"H  c #C8C4C4",
"J  c #CAC5C5",
"K  c #C8C7C7",
"L  c #C9C7C7",
"P  c #CAC6C6",
"I  c #CAC7C7",
"U  c #CBC7C7",
"Y  c #CCC7C7",
"T  c #C6C9C9",
"R  c #C9C8C8",
"E  c gray79",
"W  c #CAC8C8",
"Q  c #CBC8C8",
"!  c #CAC9C9",
"~  c #CACACA",
"^  c #CBCACA",
"/  c #CBCBCB",
"(  c #CDC9C9",
")  c #CCCBCB",
"_  c #CDCBCB",
"`  c #CFCBCB",
"'  c gray80",
"]  c #CDCCCC",
"[  c #CDCDCD",
"{  c #CECCCC",
"}  c #CECDCD",
"|  c #CFCDCD",
" . c #CDCECF",
".. c #CDCFCF",
"X. c #CECECE",
"o. c #CFCECE",
"O. c gray81",
"+. c #CECDCD",
"@. c #D4CBCB",
"#. c #D0CFCF",
"$. c #D1CFCF",
"%. c #D5CCCC",
"&. c #D5CECE",
"*. c #D0D0D0",
"=. c #D1D0D0",
"-. c gray82",
";. c #D2D1D1",
":. c #D3D1D1",
">. c #D2D2D2",
",. c #D3D2D2",
"<. c LightGray",
"1. c #D6D1D1",
"2. c #D4D2D2",
"3. c #D4D3D3",
"4. c #D5D3D3",
"5. c #D6D3D3",
"6. c #D7D3D3",
"7. c #D3D4D4",
"8. c gray83",
"9. c #D5D4D4",
"0. c #D5D5D5",
"q. c #D6D5D5",
"w. c gray84",
"e. c #D7D6D6",
"r. c #D7D7D7",
"t. c #D4D4D4",
"y. c #D8D5D5",
"u. c #D8D6D6",
"i. c #D8D7D7",
"p. c #D9D7D7",
"a. c #D8D8D8",
"s. c #D9D8D8",
"d. c gray85",
"f. c #DADADA",
"g. c #D9D9D9",
/* pixels */
"          d.d.d.                                                                                                                  ",
"    d.d.d.d.d.d.d.d.              d.          d.d.d.d.          d.d.d.d.d.              r.                                        ",
"    d.d.d.d.d.d.d.d.d.d.d.      d.d.d.d.d.d.d.d.d.d.d.d.d.d.d.d.d.d.d.d.d.d.d.      d.d.d.d.d.                                    ",
"      d.d.d.d.d.d.d.d.d.d.d.d.d.d.d.d.d.d.d.d.d.d.d.d.d.d.d.d.d.d.d.d.d.d.d.d.d.d.d.d.d.d.d.d.      d.d.d.d.d.d.d.d.r.            ",
"      d.d.d.d.#.,.r.2.d.d.d.d.d.d.d.d.d.d.d.j ,.d.d.d.d.d.d.d.d.d.d.d.d.d.d.d.d.d.d.d.d.d.d.d.d.d.d.d.d.d.d.d.d.d.d.              ",
"      d.d.d.d.9 4 4 4 ` d.d.d.d.d.d.d.d.d.,.6 w r.d.d.d.d.d.d.d.d.d.d.d.d.d.d.d.d.d.d.d.d.d.d.d.d.d.d.d.d.- w d.d.d.              ",
"      r.d.d.d.e 4 4 4 7 #.d.d.d.d.d.d.d.d./ 6 6 t d.d.d.d.d.d.d.d.d.d.d.d.d.d.r.#.d.d.d.d.d.#.d.d.d.d.r.4 & * n d.d.              ",
"      r.d.d.d.f 4 4 4 7 Y d.d.d.d.d.d.d.d.w 6 6 6 j d.d.d.d.d.d.d.d.d.d.d.d.d.r.t t n r.d./ e ,.d.d.d.- & & 4 d.d.d.d.d.r.        ",
"      d.d.d.d.J 2 7 9 2.d.d.d.d.d.d.d.d.d.d./ / Z j d.d.d.d.d.d.d.d.d.d.d.d.d.d.Z e e e e e e } d.d.n & & & & n d.d.d.d.          ",
"      d.d.d.d.d.d.d.d.d.d.d.d.d.d.d.d.d.d.d.d.d.d.d.d.d.d.d.d.d.Z w d.d.d.d.d.d.,.e f t e e n d.d.d.> & * 8 r.d.d.d.d.d.          ",
"      d.d.d.d.d.d.d.d.d.d.d.d.d.d.d.d.d.d.d.d.d.d.d.d.d.d.d.d.d.t > < j d.d.d.d.d.r.d.r.n i r.d.d.r.t / d.d.d.d.d.d.d.d.          ",
"      d.d.d.d.d.d.d.d.d.d.d.d.d.d.d.d.d.d.d.d.} , 3 d.d.d.d.d.d.t , > 1 d.d.d.d.d.d.d.d.d.d.d.d.d.d.d.d.d.d.d.d.d.d.d.            ",
"    d.d.d.d.d.t t d.d.d.d.d.d.d.r.r.d.d.d.d.,.* @ @ ,.d.d.d.d.d.d.6 > w d.d.d.d.d.d.d.d.d.d.d.d.d.d.d.d.d.d.d.d.d.d.d.            ",
"    d.d.d.d.* + * d.d.d.d.r.` ` n G d.d.d.d.6 @ @ @ * } d.d.d.d.r.w w d.d.d.d.d.d.d.d.d.d.d.d.d.2.2.d.d.d.d.d.d.d.d.              ",
"    d.d.d.d.# + w d.d.d.d.,.f f f f 2.d.d.d.> @ @ @ @ * } d.d.d.d.d.d.d.d.d.d.d.d.d.d.d.d.d.d.d.2.&.d.d.d.d.d.d.d.d.              ",
"  d.d.d.d.,.t w d.d.d.d.d.i.d J r.2.d.d.d.d.> * @ * * * , d.d.d.d.d.d.d.d.d.,.d.d.d.d.d.d.d.d.d.&.@.i.d.d.d.d.d.d.d.              ",
"  d.d.d.d.d.d.d.d.d.d.d.d.d.` #.d.d.d.d.d.d.d.d.d.d.d.d.d.d.d.d.d.d.d.d.d.d./ ` d.d.d.d.d.d.d.i.@.&.i.d.d.d.d.d.d.d.d.            ",
"  d.d.d.d.d.d.d.d.d.d.d.d.d.d.d.d.d.d.d.d.d.d.d.d.d.d.d.d.d.d.d.d.d.d.d.d.d.,.n J r.d.d.d.d.d.d.i.d.d.d.d.d.d.d.d.d.d.d.          ",
"      d.d.d.d.d.d.d.d.d.d.d.d.d.d.d.d.d.d.d.,.i n ` r.d.d.d.d.d.d.d.d.d.d.d.,.n n } d.d.d.d.d.d.d.d.d.` ` d.d.d.d.d.d.d.          ",
"        d.d.d.d.d.d.d.d.d.d.d.d.d.d.d.d.d.,.6 4 4 4 4 t d.d.d.d.d.d.d.d.d.d.r.Z } r.d.d.d.d.d.d.d.d.,.3 j d.d.d.d.d.d.d.d.        ",
"        d.d.d.d.d.d.d.d.d.d.d.d.d.d.d.d.d.d.Z 8 4 4 4 4 ,.d.d.d.d.d.d.d.d.d.d.d.d.d.d.d.d.d.d.d.d.d.Z 3 j d.d.d.d.d.d.d.d.d.      ",
"        d.d.d.,.6 / d.d.d.d.d.d.d.d.d.d.d.d.d.d.e 4 4 4 d.d.d.d.d.d.d.d.d.d.d.d.d.d.d.d.d.d.d.d.d.d.Z 3 6 d.n 2 J d.d.d.d.d.      ",
"        d.d.d.> X X 4 d.d.d.d.d.d.d.d.d.d.d.d.d.i 4 4 8 d.d.d.d.d.,.d.d.d.d.d.d.d.d.d.d.r.} d.d.d.d.r.` d.d.t 2 J d.d.d.d.d.      ",
"        d.d.d., & = n d.d.d.d.d.d.d.d.d.d.d.d.d.J e 4 Z d.d.d.d.d.w d.d.d.d.d.d.d.d.d.d.t 6 j d.d.d.d.d.d.d.i e d.d.d.d.d.d.      ",
"        d.d.d.d.d.d.d.d.d.d.d.d.d.d.d.d.d.d.d.d.d.d.d.d.d.d.d.d.r.4 i r.d.d.d.d.d.d.d.d.,.w 6 w r.d.d.d.d.d.n e d.d.d.d.d.d.      ",
"      d.d.d.d.d.d.d.d.d.d.d.8 6 8 J d.d.d.d.d.,.w d.d.d.d.d.d.d.,.4 4 4 w #.d.d.d.d.d.d.d.d.d.d.d.d.d.d.d.d.n 8 d.d.d.d.d.d.      ",
"      d.d.d.d.d.d.d.d.d.d.d.8 4 4 4 d.d.d.d.d.} 6 r.d.d.d.d.d.d.d.t 4 4 4 4 t r.d.d.d.d.d.d.d.d.d.d.d.d.d.d.,.,.d.d.d.d.d.d.      ",
"      d.d.d.d.d.d.d.d.d.d.d.,.4 4 6 d.d.d.d.d.d.w / d.d.d.d.d.d.d.d.t 4 4 4 3 6 ,.d.d.d.d.d.d.d.d.d.d.d.d.d.d.d.d.d.d.d.d.d.      ",
"      d.d.d.d.d.d.d.d.d.d.d.d.J e ` d.d.d.d.d.Z 6 t d.d.d.d.d.d.d.d.d.i 4 4 4 4 4 d.d.d.d.d.d.d.d.d.d.d.d.d.d.d.d.d.d.d.d.        ",
"        d.d.d.d.d.d.d.d.d.d.d.d.d.d.d.d.d.d.d.j 6 J d.d.d.d.d.d.d.d.d.d.,.t 4 4 8 d.d.d.d.d.d.d.d.d.d.d.d.d.d.4 = 8 / d.          ",
"          d.d.d.d.d.d.d.d.d.d.d.d.d.d.d.d.d.d.,.8 d.d.d.d.d.d.d.d.d.d.d.d.d.r.,.d.d.d.d.d.d.d.d./ w t / d.d.d.4 X X o ,.          ",
"        r.d.d.d.d.d.d.d.d.d.d.d.d.d.d.d.d.d.d.d.8 r.d.d.d.d.d.d.d.d.d.d.d.d.d.d.d.d.d.d.d.d.d.d.,.6 6 6 } d.d.d.1 X X 8 d.        ",
"        d.d.d.d.d.d.d.d.d.d.d.d.d.d.d.d.d.d.d.d.t ,.d.d.d.d.d.d.d.d.d.d.d.d.d.d.d.d.d.d.d.d.d.d.r.6 6 w / d.d.d.d.> X w d.        ",
"        d.d.d.d.d.d.d.d.d.} t w t d.d.d.d.d.d.d.} } d.d.d.d.d.d.d.,.d.d.d.d.d.d.d.d.d.d.d.d.d.d.d.d.d.d.d.d.d.d.d./ 4 d.d.        ",
"            d.d.d.d.d.d.d., O O @ d.d.d.d.d.d.d.d.r.d.d.d.d.d.d.d.+ # d.d.d.d.d.d.d.d.d.q r d.d.d.d.d.d.d.d.d.d.d.d.d.d.d.        ",
"              d.d.d.d.d.d.,.@ O w d.d.d.d.d.d.d.d.d.d.d.d.d.d.d.d.= X d.d.d.d.d.d.d.d.: % t d.d.d.d.d.d.d.d.d.d.d.d.d.d.d.        ",
"            d.d.d.d.d.d.d.d.6 @ * } d.d.d.d.d.d.d.d.d.d.d.d.d.d.d.t . / d.d.d.d.d.d.0 $ t d.d.d.d.d.d.d.d.d.d.d.d.d.d.d.d.r.      ",
"        d.d.d.d.d.d.d.d.d.d.d.d.d.d.d.d.d.d.d.d.d.d.d.d.d.d.d.d.d.,.j d.d.d.d.d.d.} $ ; d.d.d.d.d.d.d.d.d.e 3 ` d.d.d.d.d.d.      ",
"        d.d.d.d.d.d.d.d.d.d.d.d.d.d.d.d.d.d.d.d.d.d.d.d.d.d.d.d.d.d.d.d.d.d.d.d.} ; $ 5 d.d.d.d.d.d.d.d.#.- - i d.d.d.d.d.d.      ",
"          d.d.d.d.d.d.d.d.d.d.d.d.d.d.d.d.d.d.d.d.d.d.d.d.d.d.d.d.d.d.d.d.d.d.d.: $ $ 5 d.d.d.d.d.d.d.d.8 > e r.d.d.d.d.d.d.d.    ",
"        d.d.d.d.d.d.d.d.d.d.d.d.r.} ,.d.d.d.d.d.d.d.d.} } d.d.d.d.d.d.d.d.d.d.d.T $ $ 5 d.d.d.d.d.d.d.d.i i d.d.d.d.d.d.d.d.r.    ",
"      d.d.d.d.d.d.d.d.d.d.d.d.d.r.6 6 t r.d.d.d.d.d.n - - t d.d.d.d.d.d.d.d.d.d.d.r $ ; t d.d.d.d.d.d.d.d.d.d.d.d.d.d.d.d.d.      ",
"          d.d.d.d.d.d.d.d.d.d.d.d.6 6 6 Z d.d.d.n > & & & - d.d.d.d.d.d.d.d.d.d.d.d.5 $ $ ; 7.d.d.d.d.d.d.d.d.d.d.d.d.d.d.d.      ",
"            d.d.d.d.d.d.d.d.d.d.d.t t t } d.d./ , & & & & > d.d.d.d.d.d.d.d.d.d.d.d.B $ $ $ r d.d.d.d.d.d.d.d.d.d.d.d.d.d.d.      ",
"            d.d.d.d.d.d.d.d.d.d.d.d.d.d.d.d.d.d./ 3 6 1 & , d.d.d.d.d.d.d.d.d.d.d.d.d.: $ $ t d.d.d.d.d.,.r.d.d.d.d.d.d.d.d.      ",
"            d.d.d.d.d.d.,.d.d.d.d.d.d.d.d.d.d.d.d.d.d.n & 4 d.d.d.d.d.d.d.d.r.w Z d.d.q $ $ } d.d.d.d.,.< 6 d.d.d.d.d.n J d.      ",
"            d.d.d.d.d.Z + 6 d.d.d.d.d.d.d.d.d.d.d.d.d.d.t r.d.d.d.d.d.d.d.d.w < 6 d.d.7.$ 5 d.d.d.d.d.,.< < } d.d.d.d.8 #.d.d.    ",
"            r.d.d.d.d.* + + 4 d.d.d.d.d.d.d.d.d.d.d.d.d.d.d.d.d.d.d.d.d.d.Z < < w d.d.d.d.d.d.d.d.d.d.d.< < t d.d.d.` 4 J d.d.    ",
"              d.d.d.d.} < + + t d.d.d.d.d.d.d.d.d.d.d.d.d.d.d.d.d.d.d.d.r.3 < < < t d.d.d.d.d.d.d.d.d.d.3 < w d.d.d.e 4 8 d.d.    ",
"              r.d.d.d.d.d.@ + > d.d.d.d.d.d.d.d.d.d.d.d.d.d.d.d.d.d.d.d.d.3 < < < < t d.d.d.d.d.d.d.d.d.3 < 6 d.d.d.8 4 8 d.d.    ",
"              d.d.d.d.d.d.- + w d.d.d.d.d.d.d.d.d.d.d.d.d.d.d.d.d.d.d.d.d.w < 3 3 < < / d.d.d.d.d.d.d.d.w < 6 d.d.d.,.J 2.d.d.    ",
"              d.d.d.d.d.d.t i d.d.d.d.d.d.} 4 ,.d.d.d.d.d./ > X . t d.d.d./ < j d.j t d.d.d.d.d.d.d.d.d.d.Z } d.d.d.d.d.d.d.d.    ",
"              d.d.d.d.d.d.d.d.d.d.d.J d.,.1 , n d.d.d.d.6 . . . o d.d.d.d.r.w d.d.d.d.d.d.d.d.d.d.d.d.d.d.d.d.d.d.d.d.d.d.d.d.d.  ",
"            d.d.d.d.d.d.,.r.d.d.d.d.t , , , , t d.d.d.d.6 . . . j d.d.d.d.d.d.d.d.d.d.d.d.d.d.d.d.d.d.d.d.d.d.d.d.d.d.d.d.d.d.d.  ",
"            d.d.d.d.d.d.< 3 d.d.d.d.r.1 , , , w d.d.d.d.j . 3 X d.d.d.d.d.d.d.d.d.d.d.d.d.d.d.d.d.d.} } d.d.d.d.d.d.d.d.d.d.d.d.  ",
"            d.d.d.d.d.d.3 < / d.d.d.d.t 8 w , 6 d.d.d.d.d.= d.,.d.d.d.d.d.d.d.d.d.d.d.d.d.d.d.d.d.w * = 3 t d.d.d.d.d.d.d.d.d.    ",
"            d.d.d.d.d.d.3 < w d.d.d.d.d.d.d.Z t d.d.d.d.d.d.d.d.d.d.d.d.d.d.2 w d.d.d.d.d.d.d.d.6 # # # # # 3 d.d.d.d.d.d.d.d.    ",
"            d.d.d.d.d.d.6 < w d.d.d.d.d.d.d.d.d.d.d.d.d.d.d.d.d.d.d.d.d.d.d.w > 4 ,.d.d.d.d.d.d., # # # # = } d.d.d.d.d.d.d.d.    ",
"            d.d.d.d.d.d.w < 6 d.d.d.d.d.d.d.d.d.d.d.d.d.d.d.d.d.d.d.d.d.d.d.d.4 , ,.d.d.d.d.d.d.d.t 4 3 6 r.d.d.d.d.d.d.d.d.d.    ",
"            d.d.d.d.d.d.t < 6 d.d.d.d.d.d.d.d.d.d.d.d.d.d.d.d.d.d.d.d.d.d.d.d.d.r.d.d.d.d.d.d.d.d.d.d.d.d.d.d.d.d.    d.d.        ",
"            r.d.d.d.d.d.d.Z Z d.d.d.d.d.d.d.d.d.d.d.d.d.d.d.d.d.d.d.d.d.d.d.d.d.d.d.d.d.d.d.d.d.d.d.      r.d.d.                  ",
"              d.d.d.d.d.d.d.d.d.d.d.d.d.d.d.d.d.d.d.d.d.d.    d.d.d.d.d.d.d.d.d.d.d.d.                                            ",
"                d.d.d.d.d.d.d.d.d.d.d.      r.d.d.d.d.d.                                                                          ",
"                              d.d.r.            d.d.                                                                              "
};
