/* XPM */
static char *_7db67cb00b145b5e90a027988a9430bN45u0uGTqlWXTWUH[] = {
/* columns rows colors chars-per-pixel */
"65 64 243 2 ",
"   c #C8E4FF",
".  c #625B5B",
"X  c #656060",
"o  c #696464",
"O  c #706C6C",
"+  c #746F6F",
"@  c #777373",
"#  c #787272",
"$  c #7B7676",
"%  c #7D7676",
"&  c #7B7878",
"*  c #7E7878",
"=  c #7E7979",
"-  c #7E7A7A",
";  c #847878",
":  c #827C7C",
">  c #837C7C",
",  c #827E7E",
"<  c #847F7F",
"1  c #768486",
"2  c #7C898B",
"3  c #858181",
"4  c #898181",
"5  c #8A8585",
"6  c #8E8686",
"7  c #8E8787",
"8  c #8C8888",
"9  c #8E8989",
"0  c #8C8A8A",
"q  c #8E8A8A",
"w  c #938989",
"e  c #908C8C",
"r  c #908D8D",
"t  c #938C8C",
"y  c #948F8F",
"u  c #828F90",
"i  c #828E91",
"p  c #838E91",
"a  c #8F999B",
"s  c #949191",
"d  c #979090",
"f  c #969292",
"g  c #989191",
"h  c #989292",
"j  c #9C9393",
"k  c #989595",
"l  c #9B9494",
"z  c #9A9797",
"x  c #9D9797",
"c  c #9D9A9A",
"v  c #9C9B9B",
"b  c #9D9D9D",
"n  c #A09A9A",
"m  c #A29B9B",
"M  c #A29C9C",
"N  c #A39D9D",
"B  c #A19E9E",
"V  c #A49D9D",
"C  c #A69F9F",
"Z  c #A99F9F",
"A  c #959EA0",
"S  c #9BA4A5",
"D  c gray63",
"F  c #A4A2A2",
"G  c #A5A3A3",
"H  c #A7A2A2",
"J  c #A7A5A5",
"K  c #A9A1A1",
"L  c #A9A2A2",
"P  c #A9A3A3",
"I  c #ACA3A3",
"U  c #A8A5A5",
"Y  c #A9A5A5",
"T  c #ABA5A5",
"R  c #A8A6A6",
"E  c #ABA7A7",
"W  c #ACA4A4",
"Q  c #ACA5A5",
"!  c #ACA7A7",
"~  c #ADA7A7",
"^  c #A1A9AA",
"/  c #A1A9AB",
"(  c #A2A9AB",
")  c #A1AAAA",
"_  c #A7AEAF",
"`  c #A7AFAF",
"'  c gray66",
"]  c #ABA8A8",
"[  c #AAAAAA",
"{  c #ACA8A8",
"}  c #ADA8A8",
"|  c #AEA8A8",
" . c #AFA8A8",
".. c #ACAAAA",
"X. c #ADABAB",
"o. c gray68",
"O. c #AFADAD",
"+. c #AFAFAF",
"@. c #B2A9A9",
"#. c #B0ABAB",
"$. c #B1ADAD",
"%. c #B2ACAC",
"&. c #B1AEAE",
"*. c #B2AEAE",
"=. c #B3AEAE",
"-. c #B3AFAF",
";. c #B5ADAD",
":. c #B4AFAF",
">. c #ADB3B4",
",. c #AEB3B4",
"<. c #AEB3B5",
"1. c gray69",
"2. c #B2B0B0",
"3. c #B2B2B2",
"4. c gray70",
"5. c #B4B0B0",
"6. c #B5B1B1",
"7. c #B6B1B1",
"8. c #B4B2B2",
"9. c #B5B2B2",
"0. c #B4B3B3",
"q. c #B6B2B2",
"w. c #B7B2B2",
"e. c #B6B3B3",
"r. c #B4B4B4",
"t. c #B6B4B4",
"y. c #B7B4B4",
"u. c #B6B5B5",
"i. c #B7B7B7",
"p. c #B8B3B3",
"a. c #B8B4B4",
"s. c #B9B4B4",
"d. c #B8B5B5",
"f. c #B9B5B5",
"g. c #BBB4B4",
"h. c #B8B7B7",
"j. c #BAB6B6",
"k. c #BBB6B6",
"l. c #B4B9BA",
"z. c #B9B9B9",
"x. c #BBB8B8",
"c. c #BBB9B9",
"v. c #BBBBBB",
"b. c #BCB8B8",
"n. c #BCB9B9",
"m. c #BCBABA",
"M. c #BDBABA",
"N. c #BCBBBB",
"B. c #BDBBBB",
"V. c #BEBABA",
"C. c #BFBABA",
"Z. c #BEBBBB",
"A. c #BFBBBB",
"S. c #BABEBF",
"D. c #BABFBF",
"F. c #BCBCBC",
"G. c #BDBCBC",
"H. c #BFBDBD",
"J. c gray",
"K. c #BFBEBE",
"L. c gray75",
"P. c #C2BABA",
"I. c #C1BCBC",
"U. c #C0BDBD",
"Y. c #C3BCBC",
"T. c #C0BEBE",
"R. c #C1BEBE",
"E. c #C4BCBC",
"W. c #C7BCBC",
"Q. c #C1C0C0",
"!. c #C2C0C0",
"~. c #C2C1C1",
"^. c #C3C1C1",
"/. c gray76",
"(. c #C3C2C2",
"). c #C3C3C3",
"_. c #C4C0C0",
"`. c #C4C1C1",
"'. c #C4C2C2",
"]. c #C4C3C3",
"[. c #C5C3C3",
"{. c #C7C2C2",
"}. c #C6C3C3",
"|. c #C0C4C4",
" X c gray77",
".X c #C6C4C4",
"XX c #C6C5C5",
"oX c #C7C5C5",
"OX c #C6C6C6",
"+X c #C7C6C6",
"@X c #C8C6C6",
"#X c #C9C6C6",
"$X c #C8C7C7",
"%X c #CAC7C7",
"&X c #CEC7C7",
"*X c #C7C8C9",
"=X c #C8C8C8",
"-X c #C9C8C8",
";X c #CAC8C8",
":X c #CBC9C9",
">X c #CACACA",
",X c #CBCACA",
"<X c #CBCBCB",
"1X c #CDC9C9",
"2X c #CDCACA",
"3X c #CCCBCB",
"4X c #CDCBCB",
"5X c gray80",
"6X c #CDCCCC",
"7X c #CDCDCD",
"8X c #CECDCD",
"9X c #CFCDCD",
"0X c #CDCECF",
"qX c #CDCFCF",
"wX c #CECECE",
"eX c #CFCECE",
"rX c #D1CCCC",
"tX c #D0CFCF",
"yX c #D1CFCF",
"uX c #D0D0D0",
"iX c #D1D0D0",
"pX c gray82",
"aX c #D2D1D1",
"sX c #D3D1D1",
"dX c #D2D2D2",
"fX c #D3D2D2",
"gX c LightGray",
"hX c #D4D3D3",
"jX c #D5D3D3",
"kX c #D6D3D3",
"lX c #D3D4D4",
"zX c gray83",
"xX c #D5D4D4",
"cX c #D5D5D5",
"vX c #D6D5D5",
"bX c #D7D5D5",
"nX c gray84",
"mX c #D7D6D6",
"MX c #D7D7D7",
"NX c #D8D7D7",
"BX c #D8D8D8",
"VX c gray85",
"CX c #DADADA",
/* pixels */
"                                                                                          VXVXVXVXVXMX          VX                ",
"                        VXVXVX                            VXVX                        VXVXVXVXVXVXVXVXVXVX    VXVXVXVX            ",
"  VXVXVXVXVXVXVXVXVXVXVXVXVXVXVX        VXVXVXVX    VXVXVXVXVXVXVXVX              VXVXVXVXVXVXVXVXVXVXVXVXVXVXVXVXVXVX            ",
"  VXVXVXVXVXVXVXVXVXVXVXVXVXVXVXVXVXVXVXVXVXVXVXVXVXVXVXVXVXVXVXVXVXVXVX        VXVXVXVXVXVXVXVXVXVXVXVXVXVXVXVXVXVXVX            ",
"  VXVXVXVXVXVXVXVXVXVXVXVXVXVXVXVXVXVXVXVXVXVXVXVXVXVXVXVXVX{.*.*.*.V.VXVXVXVXVXVXVXVXVXVXVXVXVXVXVXVXVXVXVXVXVXVXVXVX            ",
"  VXVXVXVXVXVXVXVXVXVXVXVXVXVXVXVXVXVX0.Y.VXVXVXVXVXVXVXVXMX......*.sXVXVXVXVXVXVXVXVXVXVXVXVXeXMXVXVXVXVXVXVXVXVX~.VXVX          ",
"  VXVXVXhXsXMXVXMXVXVXVXVXVXVXVXVXVXeX4 4 {.VXVXVXVXVXVXVXMX~.0.~.MXVXVXVXVXVXVXVXVXVXVXVXVXVXf.@XVXVXVXVXVXVXVX<XX V.VX          ",
"  VXVXNXE.P.P.P.Y.MXVXVXVXVXVXVXVXeXt 4 4 h VXVXVXVXVXVXVXVXVXVXVXVXVXVXVXVXVXVXVXVXVXVXVXVXVX*.eXVXVXVXVXVXVXVXt X <XVX          ",
"  VXVXVX2XP.P.P.P.2XVXVXVXVXVXVXMXh 4 4 4 t VXVXVXVXVXVXVXVXVXVXVXVXVXVXVXVXVX@XsXVXVXVXVXVXVXf.VXVXVXVXVXVXVXsXX + VXVX          ",
"  VXVXVXNXE.P.P.{.hXVXVXVXVXVXeXt 4 4 4 4 F VXVXVXVXVXVXVXVXVXVXVXVXVXVXVXVXMXu.G.VXVXVXVXVXVXV.VXVXVXVXVXVXVX{.X X ~.VX          ",
"  VXVXVXVX2XE.sXVXVXVXVXVXVXVXt 4 4 4 4 6 eXVXVXVXVXVXVXVXx.6 Y.VXVXVXVXVXVXyXu.u.2XVXVXVXVXVXf.VXVXVXVXVXVXVXsX$ , <XVX          ",
"  VXVXVXVXNXMXVXVXVXVXVXVXVXx.4 4 4 4 4 0.VXVXVXVXVXVXVXVX! 4 6 MXVXVXVXVXVX<Xu.u.~.VXVXVXVXVXV.eXVXVXVXVXVXVXVXVXVXVXVX          ",
"  VXVXVXVXVXVXVXVXVXVXVXVXVX{.4 4 4 x {.VXVXVXVXVXVXVXVXVXx.4 4 x.VXVXVXVXVXeXu.u.2XVXVXVXVXVX.XY.VXVXVXVXVXVXVXVXVXVXVX          ",
"  VXVXVXVXVXVXVXVXVXVXVXVXVXVX{.<XMXVXVXVXVXVXVXVXVXVXVXVXY.4 4 x.VXVXVXVXVXVXMXeXMXVXVXVXVXVXMXV.VXVXVXVXVXVXVXVXVXVXVX          ",
"  VXVXVXVXVXVXVXVXVXVXVXVXVXVXVXVXVXVXVXVXVXVXVXVXVXVXVXVXeX4 4 0.VXVXVXVXVXVXVXVXVXVXVXVXVXVXVXsXVXVXVXVXVXVXVXVXVXVXVX          ",
"  VXVXVXVXVXVXVXVXVXVXVXVXVXVXVXVXVXVXVXVXVXVXVXVXVXVXVXVXVX4 4 ..VXVXVXVXVXVXVXVXVXVXVXVXVXVXVXVXVXVXVXVXVXVXVXVXVXVXVXVX        ",
"  VXVXVXVXVXVXVXVXVXVXVXVXVXVXVXVXVXVXVXVXVXVXVXVXVXVXVXVXVXt 4 F VXVXVXVXVXVXx.sXVXVXVXVXVXVXVXVXVXVXVXVXVXVXVXVXVXVXVXVX        ",
"  VXVXVXVXVXVXVXVXVXsXsXVXVXVXVXVXVXVXVXVXVX~.eXVXVXVXVXVXVX6 4 ..VXVXVXVXVXVXk c G.MXVXVXVXVXVXVXVXVXVXVXVXVXVXVXVXVXVXVX        ",
"  VXVXVXVXVXVXVXVXsX..2.sXVXVXVXVXVXVXVXVX8 & F VXVXVXVXVXMX4 4 *.VXVXVXVXVXMXs s s u.VXVXVXVXVXVXVXVXVXVXVXVXVXVXVXVXVXVXVX      ",
"  VXVXVXVXVXVXVXVXVXY.0...~.VXVXVXVXVXVXVXVXeXsXVXVXVXVXVXeX4 4 B VXVXVXVXVXVXeXs s ~.VXVXVXVXVXVXVXVXVXVXVXVXVXVX<Xx.VXVXVX      ",
"  VXVXVXVXVXVXVXVXVXVXVXVXVXVXVXVXVXVXVXVXVXVXVXVXVXVXVXVXeX4 4 4 *.VXVXVXVXVXG.F x.VXVXl.A a p p <.VXVXVXVXVXVX0.6 ..VXVXVXVX    ",
"    VXVXVXVXVXVXVXVXVXVXVXVXVXVXVXVXVXVXVXVXVXVXVXVXVXVXVXVX! 4 4 4 *.VXVXVXVXVXVXVXVXVXD.p 1 1 1 D.VXVXVX{...h 4 4 {.VXVXVXVXVX  ",
"      VXVXVXVXVXVXVXVXVXVXVXVXVXVXVXVXVXVXVXVXVXVXVXVXVXVXVXVX<XF 6 4 {.VXVXVXVXVXVXVXVXVXeXD.<.|.VXVXVXx.4 4 6 ..t VXVXVXVXVXVX  ",
"      VXVXVXVXVXVXVXVXVXVXVXVXVXVXVXVXVXVXVXVXVXVXVXVXVXVXVXVXVXVXVX{.<XVXVXVXVXVXVXVXVXVXVXVXVXVXVXVXMXF ..x.MXVXVXVXVXVXVXVX    ",
"      VXVXVXVXVXVXVXVXVXVXVXVXVXVXVXVXVXVXsX~.VXVXVXVXVXVXVXVXVXVXVXVXVXVXVXVXVXVXVXVXVXVXVXVXVXVXVXVXVXVXVXVXVXVXVXVXVXVXVX      ",
"      VXVXVXVXVXVXVXVXVXVXVXVXVXVXVXVXVXsX2.[ G.VXVXVXVXVXVXVXVXVXVXVXVXVXVXVXVXVXVXVXVXVXVXVXVXVXVXVXVXVXVXVXVXVXVXVXVXVXVX      ",
"    VXVXVXVXVXVXVXVXVXVXVXVXVXVXVXVXVXVXG.[ [ [ sXVXVXVXVXVXVXVXVXMXV.#.f.MXVXVXVXVXMXeXVXVXVXVXVXVXVXVXVXVXVXVXVXVXVXVXVXVX      ",
"      VXVXVXVXVXVXVXVXVXVXVXVXVXVXVXVXVXeXO.[ 2.MXVXVXVXVXVXVXVXVXB s s s @XVXVXVXVXVX.X<XMXVXVXVXVXVXVXVXVXVXVXVXVXVXVXVXVX      ",
"      MXVXVXVXVXVXVXVXVXVXVXVXVXVXVXVXVXVXsX<XMXVXVXVXVXVXVXVXVXVXB s k 0.MXVXVXVXVXVX<X{..XMXVXVXVXVXVXVXVXVXVXVXVXVXVXVXVX      ",
"      VXVXVXVXVXO.- B <XVXVXVXVXVXVXVXVXVXVXVXVXVXVXVXVXVXVXVXVXVXVXsXMXVXVXVXVXVXVXVX<X{..XhXVXVXVXVXVXVXVXVXVXVXVXVXVXVX        ",
"      VXVXVXVXVX@ o o 8 VXVXVXVXVXVXVXVXVXVXVXVXVXVXVXVXVXVXVXVXVXVXVXVXVXVXVXVXVXVXVXsXyXMXVXVXVXVXVXVXVXeXVXVXVXVXVXVXVX        ",
"        VXVXVXVXu.O.G.sXVXVXVXVXVXVXVXVXVXVXVXVXVXVXVXVXVXVXVXVXVXVXVXVXVXVXVXVXVXVXVXVXVXVXVXVXVXVXVXVX^ ^ VXVXVXVXVXVXVX        ",
"        VXVXVXVXVXVXVXVXVXVXVXVXVXVXVXVXVXVXVXVXVXVXVXVXVXVXVXVXVXVXVXVXVXVXVXVXVXVXVXVXVXVXVXVXVXVXVXl.^ lXVXVXVXVXVXVXVXMX      ",
"      VXVXVXVXVXVXVXVXVXVXVXVXVXVXVXVXVXVXVXVXVXVXVXVXVXVXVXVXVXVXVXVXVXVXVXVXVXVXVXVXVXVXVXVXVXVXVXVXp *XVXVXVXVXVXVXVXVXVX      ",
"      VXVXVXVXVXVXVXVXsXMXVXVXVXVXVXf.VXVXVXVXVXVXVXVXVXVXyX! V f.VXVXVXVXVXeXs eXVXVXVXVXVXVXVXVXVXl.1 VXVXVXVXVXVXVXVXVXVXVX    ",
"      VXVXVXVXVXVXVXVXu.O.x.eXVXVXVXJ ~.VXVXVXVXVXVXVXVXVXj w w j VXVXVXVXsX5 # - .XVXVXVXVXVXVXVXVXa 2 VXVXVXVXVXVXVXVXVXVXVX    ",
"      VXVXVXVXVXVXVXVXG.O.O.2.MXVXVXeXc VXVXVXVXVXVXVXVXV.w w w 0.VXVXVXVXVX0.< # - .XVXVXVXVXVXVXeX1 p VXVXVXVXVXVXVXVXVXVXVX    ",
"      VXVXVXVXVXVXVXVX.Xu.x.G.MXVXVXVX..<XVXVXVXVXVXVXVXj w w 0.VXVXVXVXVXVXVXeX- # < VXVXVXVXVXVXD.1 2 VXVXVXVXVXVX0.s sXVXVX    ",
"        VXVXVXVXVXVXVXVXVXVXVXVXVXVXVXhX~.VXVXVXVXVXVXV.w w 0.VXVXVXVXVXVXVXVXVXt # < VXVXVXVXVXVXlXp 1 ^ lXVXVXVXVX... ..VXVX    ",
"        VXVXVXVXVXVXVXVXVXVXVXVXVXVXVXVXVXVXVXVXVXVXVXj w *.VXVXVXVXVXVXVXVXVXVXY Y sXVXVXVXVXVXVXVX<.1 1 p eXVXVXVXsX. s VXVX    ",
"        VXVXVXVXVXVXVXVXVXVXVXVXVXVXVXVXVXVXVXVXVXVXf.w ! VXVXVXVXVXVXVXVXVXVXVXVXVXVXVXVXVXVXVXVXVXeX1 1 1 _ VXVXVXVX8 ~.VXVX    ",
"        VXVXVXVXVXl.S S a a D.VXVXVXVXVXVXVXVXVXVXVXj V VXVXVXVXVXVXVX;.f.MXVXVXVXVXVXVXVX! MXVXVXVXVXa 1 1 D.VXVXVXVXVXVXVXVX    ",
"      VXVXVXVXVXVX_ 1 1 1 1 eXVXVXVXVXVXVXVXVXVXVXMX0.MXVXVXVXVXVXVXVXZ I sXVXVXVXVXVXVX@X;.VXVXVXVXVX|.1 p VXVXVXVXVXVXVXVX      ",
"          VXVXVXVXVX|._ _ |.VXVXVXVXVXVXVXVXVXVXVXVXVXVXVXVXVXVXVXVXVXZ @XVXVXVXVXVXVXVXp.MXVXVXVXVXVXVXl.eXVXVXVXVXVXVXVXVX      ",
"        VXVXVXVXVXVXVXVXVXVXVXVXVXVXVXVXVXVXVXVXVXVXVXVXVXVXVXVXVXVXVXI @XVXVXVXVXVXVXVXVXVXVXVXVXVXVXVXVXVXVXVXVXVXVXVXVXVX      ",
"      VXVXVXVXVXVXVXVXVXVXVXVXVXVXVXVXVXVXVXVXVXVXVXVXVXVXVXVXVXVXVXVX#.@XVXVXVXVXVXVXVXVXVXVXVXVXVXVXVXVXVXVXVXVXVXVXVXVXVXVX    ",
"      VXVXVXVXVXVXVXVXVXVXVXVXVXVXVXVXVXVXVXVXVXVXVXVXVXVXVXVXVXVXVXVXY.sXVXVXVXVXVXVXVXVXVXVXVXVXVXVXVXVXVXVXVXVXVXVXVXVXVXVX    ",
"      VXVXVXVXVXVXVXVXVXVXVXVXVXVXVXVXVXVXVXVXMXu.2.~.VXVXVXVXVXVXVXVXVXVXVXVXVXVXVXVXVXVXVXVXVXVXVXVXVXVXVXVXVXVXVXVXVXVXVXVX    ",
"      VXVXVXVXVXVXVXVXVXVXVX@XeXVXVXVXVXVXVXVX[ b b b [ MXVXVXVXVXVXVXVXVXVXVXVXVXVXVXVXVXVXVXVXVXVXVXVXVXVXVXVXVXVXVXVXVXVXVX    ",
"      VXVXVXVXVXVXVXVXVXVXV.; ; ; f.VXVXVXVX.Xb b b b b x.VXVXVXVXVXVXVXVXVXVXVXVXVXVXVXVXVXVXsXMXVXVXVXVXVXVXVXVXVXVXVXVXVXVX    ",
"      VXVXVXVXVXVXVXVXVXVX{.; ; ; K VXVXVXVXx.b b b b b D MXVXVXVXVXVXVXVXVX<X@ sXVXVXVXVXVX@XK K ..{.VXVXVXVXVXVXVXsXY 0.VXVX    ",
"      VXVXVXVXVXVXVXVXVXVXVXV.....V.VXVXVXVX<Xb b b b b b eXVXVXVXVXVXVXVXVX@ o B VXVXVXVXVXMX! K K ..VXVXVXVXVXVXVXMX.XMXVXVX    ",
"      VXVXVXVXVXVXVXVXVXVXVXVXVXVXVXVXVXVXVXMXD b b b b b .XVXVXVXVXVXVXVXsXO o 3 VXVXVXVXVXVX2XK K f.VXVXVXVXVXVXVXVXVXVXVXVX    ",
"      VXVXVXVXVXVXVXVXVXVXVXVXVXVXVXVXVXVXVXVX2.b b b b 2.VXVXVXVXVXVXVXVXVXY O u.VXVXVXVXVXVXVX@X{.MXVXVXVXVXVXVXVXVXVXVXVXVX    ",
"      VXVXVXVXV.n V 0.sXVXVXVXVXVXVXVXVXVXVXVX.X2.G..XMXVXVXVXVXVXVXVXVXVXVXVXVXVXVXVXVXVXVXVXVXVXVXVXVXeXeXVXVXVXVXVXVXVXVXVXVX  ",
"    MXVXVXVXVXVXV.n n n <XVXVXVXVXVXNXMXVXVXVXVXVXVXVXVXVXVXVXVXVXVXVXVXVXVXVXVXVXVXVXVXVXVXVXVXVXVXVX*., y VXVXVXVXVXVXVXVXVXVX  ",
"    VXVXVXVXVXVXVXY.V n 0.VXVXVXVXVX&X&XMXVXVXVXVXVXVXVXVXVXVXVXVXVXVXVXVXVXVXVXVXVXVXVXVXVXVXVXVXVX[ % % Y VXVXVXVXVXVXVXVXVXVX  ",
"    MXVXVXVXVXVXVXVXsXK Y.VXVXVXVXVXyXE.E.MXVXVXVXVXVXVXVXVXV.3 Y VXVXVXVXVXVXVXVXVXVXVXVXVXVXVXVXu., n ~.VXVXVXVXVXVXVXVXVXVX    ",
"        VXVXVXVXVXVXVXVXVXVXVXVXVXVXVXMXhXVXVXVXVXVXVXVXVXY o o @ VXVXVXVXVXVXVXVXVXVXVXVXVXVXVXVX, 8 eXVXVXVXVXVXVXVXVXVXVXVX    ",
"        VXVXVXVXVXVXVXVXVXVXVXVXVXVXVXVXVXVXVXVXVXVXVXVXVX<X3 o o k V.<XsXVXVXVXVXVXVXVXVXVXVXVXVXV.n V.VXVXVXVXVXVXVXVXVXVXVX    ",
"        VXVXVXVXVXVXVXVXVXVXVXVXVXVXVXVXVXVXVXVXVXVXVXVXVXVXVXO.- O - k O.sXVXVXVXVXVXVXVXVXVXVXVXVXVXVXVXVXVXVXVXVXVXVXVXVX      ",
"          VXVX      VXVXVXVXVXVXVXVXVXVXVXVXVXVXVXVXVXVXVXVXVXVXVXVXVXVXVXVXVXVXMX          VXVXVXVXVXVXVXVX                      ",
"                    VXMX          VXVXVXVXVXVXVXVXVXVXVXVXVXVXVXVXVXVXVXVXVXMX                          MX                        ",
"                                          VXVXVX        VXVXVXVXVXMXMXMX                                                          "
};
