/* XPM */
static char *f879e8ef7bc24a10b6a86951b1cb08aeZdPbBcI39Rsb0jwd[] = {
/* columns rows colors chars-per-pixel */
"64 64 67 1 ",
"  c #A6BCFF",
". c #B2B6F7",
"X c #B4BBF8",
"o c #9ECDDF",
"O c #ACC9D4",
"+ c #AFCDD9",
"@ c #B1CEDC",
"# c #B3D0DF",
"$ c #9DD3E8",
"% c #85DDFF",
"& c #8CDCFB",
"* c #93DDFD",
"= c #9BDEF9",
"- c #A0CFE1",
"; c #A3D0E3",
": c #A3D5EB",
"> c #AAD5EB",
", c #B5D2E2",
"< c #B8D5E7",
"1 c #BAD7E9",
"2 c #B3D8EF",
"3 c #BCD9ED",
"4 c #ACC3FF",
"5 c #B7C1F9",
"6 c #B8C3FF",
"7 c #B4CCFF",
"8 c #BCCCFD",
"9 c #AFDAF2",
"0 c #AADFFC",
"q c #B4DBF2",
"w c #BBDCF4",
"e c #B7D0FF",
"r c #BED5FF",
"t c #BEDCFC",
"y c #94E1FF",
"u c #9DE1FF",
"i c #A8E0F6",
"p c #A3E2FB",
"a c #ABE5FE",
"s c #B3E3FD",
"d c #BBE3FD",
"f c #B1E9FE",
"g c #C1DDF4",
"h c #C0D5FE",
"j c #C2DBFE",
"k c #C3DCFF",
"l c #C4DCFE",
"z c #C5DEFF",
"x c #C3E1FB",
"c c #C5E1FA",
"v c #C3E3FE",
"b c #C7E3FF",
"n c #C3E4FE",
"m c #C7E7FE",
"M c #C8E4FF",
"N c #CCE7FF",
"B c #C7EBFE",
"V c #C7EEFD",
"C c #C8EAFE",
"Z c #CFEAFF",
"A c #CCEDFF",
"S c #D0EBFF",
"D c #D3EEFF",
"F c #CFF2FF",
"G c #D5F0FF",
"H c #D9F3FF",
"J c #DBF5FF",
/* pixels */
"MMMMMMMMMMMMMMMMMMMMMMMMMMMMMMMMMMMMMMMMMMMMMMMMMMMMMMMMMMMMMMMM",
"MMMMMMMMMMMMMMMMMMMMMMMMMMMMMMMMMMMMMMMMMMMMMMMMMMMMMMMMMMMMMMMM",
"MMMMMMMMMMMMMMMMMMMMMMMMMMMMMMMMMMMMMMMMMMMMMMMMMMMMMMMMMMMMMMMM",
"MMMMMMMMMMMMMMMMMMMMMMMMMMMMMMMMMMMMMMMMMMMMMMMMMMMMMMMMMMMMMMMM",
"MMMMMMMMMMMMMMMMMMMMMMMMMMMBBBMMMMMMMMMMMMMMMMMMMMMMMMMMMbsnMMMM",
"MMMZGDMMMMMMMMMzjjzMMMMMMMVVVVBMMMMMMMMMMMMMMMMMMMMMMMMMMy&ymMMM",
"MMZJJJGMMMMMMMkrrrrkMMMMMmVVVVVMMMMMMMMMMMMMMMMMMMMMMMMMd&&&sMMM",
"MMGJJJJMMMMMMzrrrrrrbMMMMBVVVVVBMMMMMMMMMMMMMMMMMMMMMMMMm*&&vMMM",
"MMGJJJJNMMMMMjrrrrrrjMMMMBVVVVVMMMMMMMMMMMMr447bMMMMMMMMMdpdMMMM",
"MMSJJJHMMMMMMhrrrrrrjMMMMMVVVVVMMMMMMMMMMMr    4MMMMmmMMMMMMMMMM",
"MMMDHGMMMMMMMjrrrrrrjMMMMMVVVVCMMMMMMMMMMM4     kMMBVVVMMMMMMMMM",
"MMMMMMMMMMMMMkrrrrrrzMMMMMMBBCMMMMMMMMMMMM4     rMBVVVVVMMMMMMMM",
"MMMMMMMMMMMMMbrrrrrrMMMMMMMMMMMMMMMMMMMMMMe    4MMVVVVVVMMMMMMMM",
"MMMMMMMMMMMMMMbjrrkbMMMMMMMMMMMMMMMMMMMMMMb7  4kMMVVVVVVBMMMMMMM",
"MMMMMMMMMMMMMMMMMMMMMMMMMMMMMMMMMMMMMMMMMMMMzkMMMMBVVVVVMMMMMMMM",
"MMMMMMMMMMMMMMMMMMMMMMMMMMMMMMMMMMMMMMMMMMMMMMMMMMMVVVVBMMMMMMMM",
"MMMMMMMMMMMMMMMMMMMMMMMMMMMMMMMMMMMMMbsdMMMMMMMMMMMMVVBMMMMMMMMM",
"MMMMMMMMMMMMMMMMMMMMMMMMMMMMMMMMMMMMv===sMMMMMMMMMMMMMMMMMMMMMMM",
"MMMMMMMMMMMMMMMMMMMMMMMMMMMMMMMMMMMMp====mMMMMMMMMMMMMMMMMMMMMMM",
"MMMMMMMMMMMMMMMMMMMMMMMMMMMmMMMMMMMMp====dMmMMMMMMMMMMb1,3MMMMMM",
"MMMMMMMMMMMMMMMMMMMMMMMMMMVVVMMMMMMMs====mVVVMMMMMMMMc+OOO#MMMMM",
"MMMMMMMMMMMMMMMMMMMMMMMMMBVVVVMMMMMMm===sBVVVBMMMMMMM3OOOOOgMMMM",
"MMMMMMMMMMMMMMMMMvddMMMMMBVVVVMMMMMMMMvbMBVVVMMMMMMMM3OOOOOgMMMM",
"MMMMMMMMMMMMMMMMspppsMMMMMVVVCMMMMMMMMMMMMVVVMMMMMMMMb+OOO@MMMMM",
"MMMMMMMMMMMMMMMdpppppsMMMMMBCMMMMMMMMMMMMMMMMMMMMMMMMMc<,1bMMMMM",
"MMMMMvp&%*aMMMMappppppMMMMMMMMMMMMMMMMMMMMMMMMMMMMMMMMMMMMMMMMMM",
"MMMMv*%%%%%uMMMappppppMMMMMMMMMMMMMMMMMMMMMMMMMMMMMMMMMMMMMMMMMM",
"MMMMu%%%%%%%aMMsppppppMMMMMMMMMMMMMMMMMMMMMMMMMMMMMMMMMMMMMMMMMM",
"MMMd%%%%%%%%*MMdpppppsMMMMMMMMMMbwbMMMMMMMMMMMMMMMMMMMMMBBMMMMMM",
"MMMs%%%%%%%%%vMMspppsMMMMMMMMMMx-o;bMMMMMMMMMMMMMMMMMMMBVVVMMMMM",
"MMMa%%%%%%%%%vMMMndvMMMMMMMMMMM>oooqMMMMMMMMCAACMMMMMMMVVVVBMMMM",
"MMMs%%%%%%%%%vMMMMMMMMMMMMMMMMM>ooo2MMMMMMMFFFFFFMMMMMMVVVVBMMMM",
"MMMm%%%%%%%%*MMMMMMMMMMMMMMMMMMwoo-xMMMMMMAFFFFFFAMMMMMBVVVCMMMM",
"MMMMp%%%%%%%aMMMMMMMMMMMMMMMMMMMw2xMMMMMMMFFFFFFFFMMMMMMBVCMMMMM",
"MMMMMu%%%%%pMMMMMMMMddMMMMMMMMMMMMMMMMMMMCFFFFFFFFCMMMMMMMMMMMMM",
"MMMMMMa**=sMMMMMMMs*&&*0MMMMMMMMMMMMMMMMMAFFFFFFFFCMMMMMMMMMMMMM",
"MMMMMMMMMMMMMMMMMs&&&&&&aMMMMMMMMMMMMMMMMCFFFFFFFFCMMMMMMMMMMMMM",
"MMMMMMMMMMMMMMMMM*&&&&&&*bMMMMMMMMMMMMMMMMFFFFFFFFMMmMMMMMMMMMMM",
"MMMMMMMMMMMMMMMMd&&&&&&&&sMMMMMMMMMMMMMMMMAFFFFFFAMMMMMMMMMMMMMM",
"MtqvMMMMMMMMMMMMd&&&&&&&&sMMMMMMMMMMMMMMMMMAFFFFAMMMMMMvuyuvMMMM",
"v$$>MMMMMMMMMMMMv&&&&&&&&sMMMMddvMMMMMMMMMMMCAAMMMMMMMMp*yyymMMM",
"x$$:MMMMMMMMMMMMM=&&&&&&*bMMMayyudMMMMMMMMMMMMMMMMMMMMmyyyyydMMM",
"M9:tMMMMMMMbbMMMMd&&&&&&amMMduyyypMMMMMMMMMMMMMMMMMMMMmyy*yydMMM",
"MMMMMMMMMz5..5zMMMd*&&*aMMMMsuyyyyMMMMMMMMMMMMVVMMMMMMMu**yymMMM",
"MMMMMMMMMX....XbMMMMvvMMMMMMsyyyyuMMMMMMMMMMMBVVBMMMMMMvy*ysMMMM",
"MMMMMMMMh......8MMMMMMMMMMMMmuyyysMMMMMMMMMMMBVVBMMMMMMMmvvmMMMM",
"MMMMMMMM8......5MMMMMMMMMMMMMnpusMMMMMMMMMMMMMVVMMMMMMMMMmmmMMMM",
"MMMMMMMM8......5MMMMMMmfafnMMMMMMMMMMMMMMMMMMMMMMMMMMMMMMmmmMMMM",
"MMMMMMMMh......8MMMMMMaaaaamMMMMMMMMMMMMMMMMMMMMMMMMMMMMMMMMMMMM",
"MMMMMMMMbX....XzMMMMMnaaaaafMMMMMMMMMMMMMMMMMMMMMMMMMMMMMMMMMMMM",
"MMMMMMMMMzX..XzMMMMMMdaaaaafMMMMMMbhhjMMMMMMMMMMMMbdiisbMMMMMMMM",
"MMMMMMMMMMMzzMMMMMMMMnaaaaafMMMMMh66666bMMMMMMMMMbiiiiiidMMMMMMM",
"MMMMMMMBMMMMMMMMMMMMMBfaaaamMMMMb6666668MMMMMMMMMsiiiiiiimMMMMMM",
"MMMMMMVVVMMMMMMMMMMMMVVfafnMMMMM86666666zMMMMMMMbiiiiiiiidMMMMMM",
"MMMMMBVVVBMMMMMMMMMMMMCMMMMMMMMM66666666rMMMMMMMdiiiiiiiisMMMMMM",
"MMMMMBVVVMMMMMMwcMMMMMMMMMMMMMMM666666668MMMMMMMdiiiiiiiisMMMMMM",
"MMMMMMVVCMMMMM1OObMMMMMMMMMMMMMM66666666hMMMMMMMviiiiiiiisMMMMMM",
"MMMMMMMMMMMMMM,OOgMMMMMMMMMMMMMMh6666666bMMMMMMMMiiiiiiiidMMMMMM",
"MMMMMMMMMMMMMM3O+cMMMMMMMMMMMMMMb666666rMMMMMBBMMdiiiiiiiMMMMMMM",
"MMMMMMMMMMMMMMMbbMMMMMMMMMMMMMMMMb8666hMMMMMMBVMMMdiiiisbMMMMMMM",
"MMMMMMMMMMMMMMMMMMMMMMMMMMMMMMMMMMMzzbMMMMMMMMCMMMMbddvMMMMMMMMM",
"MMMMMMMMMMMMMMMMMMMMMMMMMMMMMMMMMMMMMMMMMMMMMMMMMMMMMMMMMMMMMMMM",
"MMMMMMMMMMMMMMMMMMMMMMMMMMMMMMMMMMMMMMMMMMMMMMMMMMMMMMMMMMMMMMMM",
"MMMMMMMMMMMMMMMMMMMMMMMMMMMMMMMMMMMMMMMMMMMMMMMMMMMMMMMMMMMMMMMM"
};
