/* XPM */
static char *_ddd6f49103c4574fcf7e5e91c747136zXVWfd755PEoQwhg[] = {
/* columns rows colors chars-per-pixel */
"64 64 94 2 ",
"   c #B2B6F7",
".  c #B3B9F8",
"X  c #B4BBF8",
"o  c #B5BCF8",
"O  c #9ECDDF",
"+  c #ADCBD7",
"@  c #AFCCD9",
"#  c #B3CFDF",
"$  c #9DD3E8",
"%  c #85DDFF",
"&  c #8CDBFA",
"*  c #8DDFFF",
"=  c #93DCFB",
"-  c #95DFFF",
";  c #9BDDFB",
":  c #9FDEFB",
">  c #9ADFFF",
",  c #9EDFFF",
"<  c #A0CFE1",
"1  c #A3D5EB",
"2  c #A4D6EC",
"3  c #B4D1E1",
"4  c #BAD6E9",
"5  c #BEDAEF",
"6  c #B7C1F9",
"7  c #BAC7FA",
"8  c #B8C3FF",
"9  c #BCCAFB",
"0  c #BDCDFB",
"q  c #A5DFFB",
"w  c #A3DFFC",
"e  c #A6DFFC",
"r  c #B3DBF3",
"t  c #B5DDF5",
"y  c #B8DBF3",
"u  c #B8DDF6",
"i  c #BDDEF7",
"p  c #BED3FE",
"a  c #BED5FF",
"s  c #BADEF8",
"d  c #BFD8FF",
"f  c #90E0FF",
"g  c #97E1FF",
"h  c #9BE1FF",
"j  c #9EE0FF",
"k  c #A8E0F6",
"l  c #ACE1F7",
"z  c #A3E2FA",
"x  c #A5E2FB",
"c  c #A3E0FF",
"v  c #A5E2FF",
"b  c #ABE0FB",
"n  c #ACE3FB",
"m  c #AAE0FD",
"M  c #AEE1FF",
"N  c #AAE7FF",
"B  c #AEE7FF",
"V  c #ADE8FF",
"C  c #B1E3FB",
"Z  c #B4E2F9",
"A  c #B3E1FF",
"S  c #B7E2FF",
"D  c #B2E6FF",
"F  c #B7E5FF",
"G  c #BAE2FB",
"H  c #BAE3FD",
"J  c #BFE3FE",
"K  c #BAE5FF",
"L  c #BDE5FF",
"P  c #C0D3FF",
"I  c #C0D6FD",
"U  c #C2D8FD",
"Y  c #C4DBFE",
"T  c #C3DCFF",
"R  c #C5DEFE",
"E  c #C3E1FB",
"W  c #C5E1FA",
"Q  c #C3E3FF",
"!  c #C7E1FE",
"~  c #C3E4FE",
"^  c #C4E4FF",
"/  c #C8E4FF",
"(  c #C3EBFE",
")  c #C7EAFE",
"_  c #C7EDFD",
"`  c #C8E8FE",
"'  c #CFEAFF",
"]  c #CEEFFF",
"[  c #D1EDFF",
"{  c #D4EEFF",
"}  c #CFF2FF",
"|  c #D5F0FF",
" . c #D9F3FF",
".. c #DBF5FF",
/* pixels */
"/ / / / / / / / / / / / / / / / / / / / / / / / / / / / / / / / / / / / / / / / / / / / / / / / / / / / / / / / / / / / / / / / ",
"/ / / / / / / / / / / / / / / / / / / / / / / / / / / / / / / / / / / / / / / / / / / / / / / / / / / / / / / / / / / / / / / / ",
"/ / / / / / / / / / / / / / / / / / / / / / / / / / / / / / / / / / / / / / / / / / / / / / / / / / / / / / / / / / / / / / / / ",
"/ / / / / / / / / / / / / / / / / / / / / / / / / / / / / Q A A J / / / / / / / / / / / / / / / / / / / / / / / / / / / / / / / ",
"/ / / / / / / / / / / / / / / / / / / / / / / / / / / / c % % % % v / / / / / / / / / / / / / / / / / / / / / / / ) _ / / / / / ",
"/ / / / [ | ' / / / / / / / / / / / / / / / / / / / / c % % % % % % v / / / / / / ! R T ! / / / / / / / / / / / / _ _ ) / / / / ",
"/ / / [ ......[ / / / / / / / / / / / / / / / / / / S % % % % % % % % H / / / / R a a a a T / / / / / / / / / / / ` _ / / / / / ",
"/ / / ........../ / / / / / / ) _ _ ) / / / / / / / j % % % % % % % % v / / / ! a a a a a a R / / / / / / / / / / / / / / / / / ",
"/ / / ........../ / / / / / ) _ _ _ _ / / / / / / / - % % % % % % % % > / / / R a a a a a a a / / / / / / / / / / / / / / / / / ",
"/ / / | ......{ / / / / / / ) _ _ _ _ ) / / / / / / - % % % % % % % % - / / / U a a a a a a a / / / / / / / / / / / / / / / / / ",
"/ / / / {  .| / / / / / / / ) _ _ _ _ / / / / / / / , % % % % % % % % c / / / U a a a a a a a / / / / / / / / / / / / / / / / / ",
"/ / / / / / / / / / / / / / / _ _ _ _ / / / / / / / S % % % % % % % % Q / / / ! a a a a a a U / / / / Q J / / / / / / / / / / / ",
"/ / / / / / / / / / / / / / / / ) ` / / / / / / / / / > % % % % % % c / / / / / U a a a a a ! / / / A ; ; q / / / / / / / / / / ",
"/ / / / / / / / / / / / / / / / / / / / / / / / / / / ^ , % % % % c / / / / / / ! U a a d ! / / / J ; ; ; ; Z / / / / / / / / / ",
"/ / / / / / / / / / / / / / / / / / / / / / / / / / / / / Q M M Q / / / / / / / / / / ! / / / / / S ; ; ; ; b / / / / / / / / / ",
"/ / / / / / / / / / / / / / / / / / / / / / / / / / / / / / / / / / / / / / / / / / / / / / / / / J ; ; ; ; S / / / / / / / / / ",
"/ / / / / / / / / / / / / / / / / / / / / / / / / / / / / / / / / / / / / / / / / / / / / / / / / / b ; ; : ! / / / / / / / / / ",
"/ / / / / / / / / / / / / / / / / / / / / / / / / / / / / / / / / / / / / / / / / / / / / / / / / / / H S ! / / / / / / / / / / ",
"/ / / / / / / / / / / / / / / / / / / / / / / / / / / / / / / / / / / / / / / / / / / / / / / / / / / / / / / / / / / / / / / / ",
"/ / / / / / / / / / / / / / / / / / / / / / / / / / / / ) ) / / / / / / / / / / / / / / / / / / / / / / / / / / / / / / / / / / ",
"/ / / / / / / / ^ / / / / / / / / / / / / / / / / / / / _ _ ) / / / / / / / / / / / / _ _ ) / / / / / / / / / / / / / / / / / / ",
"/ / / / / / / _ _ _ ) / / / / / / / / / / / / / / / / / _ _ ) / / / / / / / / / / / ) _ _ _ / / / / / / / / / / / / / / / / / / ",
"/ / / / / / _ _ _ _ _ ) / / / / / / J H Q / / / / / / / / ) / / / / / / / / / / / / ) _ _ _ / / / / / / / / / / / / / / / / / / ",
"/ / / / / ) _ _ _ _ _ ) / / / / / n z z z S / / / / / / / / / / / / / / / / / / / / / _ _ ` / / / / / / / / / / / / / / / / / / ",
"/ / / / / ) _ _ _ _ _ _ / / / / S z z z z z J / / / / / / / / / / / / / / / / / / / / / / / / / / / / / / / / / / / / / / / / / ",
"/ / / / / / _ _ _ _ _ ) / / / / x z z z z z C / / / / / / / / / / / / / / / / / / / / / / / / / / / / / / / / / / / / / / / / / ",
"/ / / / / / _ _ _ _ _ / / / / / z z z z z z n / / / / / / / / / / / u y / / / / / / / / / / / / / / / / / / / / / / / / / / / / ",
"/ / / / / / / ) _ _ / / / / / / x z z z z z A / / / / / / / / / / ! O O u / / / / / / / / / / / / / / / / / / / / / / / / / / / ",
"/ / / / / / / / / / / / / / / / S z z z z z Q / / / / / / / / / / ! < O i / / / / / / / / / / / / Q H H / / / / / / / / / / / / ",
"/ / / / / / / / / / / / / / / / / S z z x H / / / / / / / / / / / / E E / / / / / / / / / / / Q ; & & & = J / / / / / / / / / / ",
"/ / / / / / / / / / / / / / / / / / ~ J ^ / / / / / / / / / / / / / / / / / / / / / / / / / Q = & & & & & = Q / / / / / / / / / ",
"/ / / / / / / / / / / / / / / / / / / / / / / / / / / / / / / / / / / / / / / / / / / / / / w & & & & & & & ; / / / / / / / / / ",
"/ / / / / / / / / / / / / / / / / / / / / / / / / / / / / / / / / / / / / / / / / / / / / / = & & & & & & & & ! / / / / / / / / ",
"/ / / / / / / / / / / / / / / / / / / / / / / / / / / / / / / / / / / / / / / / / / / / / / & & & & & & & & & J / / / / / / / / ",
"/ / / / / / / / / / / / / / / / / / / / / / / / / / / / / / / / / / / / / / / / / / / / / / = & & & & & & & & J / / / / / / / / ",
"/ / / / / / / / / / / / / / / / / / / / J Q / / / / / / / / / / / / / / Y P U / / / / / / / ; & & & & & & & = / / / / / / / / / ",
"/ / / / / / / / / / / / / / / / / / / A * * A / / / / / / / / / / / / P 8 8 8 p / / / / / / H & & & & & & & A / / / / / / / / / ",
"/ / / / / / / / / / / / / / / / / / / j * * c / / / / / / / / / / / ! 8 8 8 8 8 R / / / / / / m & & & & & m / / / / / / / / / / ",
"/ / / / / / / / / / / / / / / / / / / j * * c / / / / / / / / / / / I 8 8 8 8 8 p / / / / / / / Q e : e H / / / / / / / / / / / ",
"/ / u u / / / / / / / / / / / / / / / Q h j Q / / / / ) ) / / / / / I 8 8 8 8 8 p / / / / / / / / / / / / / / / Q j f v Q / / / ",
"/ s $ $ r / / / / / / / / / / / / / / / / / / / / / _ _ _ ) / / / / R 8 8 8 8 8 U / / / / / / / / / / / / / / / g f f f j / / / ",
"/ t $ $ r / / / / / / / / / / / / / / / / / / / / ) _ _ _ _ / / / / / I 8 8 8 I / / / / / / / / / / / / / / / H f f f f f ^ / / ",
"/ ! 2 1 Q / / / / / / / ! ! / / / / / / / / / / / ) _ _ _ _ / / / / / / ! U R / / / / / / / / / / / / / / / / H f f f f f ^ / / ",
"/ / / / / / / / / / Y 6     7 ! / / / / / / / / / / _ _ _ ` / / / / / / / / / / / / / / / / ) _ _ / / / / / / ^ g f f f h / / / ",
"/ / / / / / / / / R o         6 / / / / / / / / / / / ) / / / / / / / / / / / / / / / / / / _ _ _ ) / / / / / / S g f g Q / / / ",
"/ / / / / / / / / 9             U / / / / / / / / / / / / / / / / / / / / / / / / / / / / / _ _ _ ) / / / / / / / / Q / / / / / ",
"/ / / / / / / / / 6             0 / / / / / / / / / / / / / / / / / / / / / / / / / / / / / ` _ _ / / / / / / / / / / / / / / / ",
"/ / / / / / / / / o             0 / / / / / / ~ D B D ^ / / / / / / / / / / / / / / / / / / / / / / / / / / / / / / / / / / / / ",
"/ / / / / / / / / 9             I / / / / / ^ B N N N B ^ / / / / / / / ` ` / / / / / / / / / / / / / / / / / / / / / / / / / / ",
"/ / / / / / / / / R .         X / / / / / / L N N N N N L / / / / / ` } } } } ` / / / / / / / / / / / / / / / / / / / / / / / / ",
"/ / / / / / / / / / Y X     6 R / / / / / / F N N N N N K / / / / ` } } } } } } ` / / / / / / / / / / ! Z l l Z ! / / / / / / / ",
"/ / / / / / / / / / / / R R / / / / / / / / K N N N N N L / / / / ] } } } } } } ] / / / / / / / / / ! l k k k k l ! / / / / / / ",
"/ / / / / / / ^ ) / / / / / / / / / / / / / ) V N N N B / / / / / } } } } } } } } / / / / / / / / / l k k k k k k l / / / / / / ",
"/ / / / / / ) _ _ ) / / / / / / / / / / / / _ ( D B D ^ / / / / / } } } } } } } } / / / / / / / / J k k k k k k k k Q / / / / / ",
"/ / / / / / ) _ _ _ / / / / / / / / / / / / / / / / / / / / / / / } } } } } } } } / / / / / / / / Z k k k k k k k k Z / / / / / ",
"/ / / / / / ) _ _ _ / / / / / ! 5 W / / / / / / / / / / / / / / / ] } } } } } } ] / / / / / / / / Z k k k k k k k k Z / / / / / ",
"/ / / / / / / _ _ ` / / / / / 3 + @ / / / / / / / / / / / / / / / / } } } } } } / / / / / / / / / G k k k k k k k k G / / / / / ",
"/ / / / / / / / / / / / / / / + + + W / / / / / / / / / / / / / / / / ] } } ] / / / / / / / / / / Q k k k k k k k k ! / / / / / ",
"/ / / / / / / / / / / / / / / 4 + # / / / / / / / / / / / / / / / / / / / / / / / / / / / / ) ) / / Z k k k k k k Z / / / / / / ",
"/ / / / / / / / / / / / / / / / W / / / / / / / / / / / / / / / / / / / / / / / / / / / / / _ _ / / / Z k k k k Z / / / / / / / ",
"/ / / / / / / / / / / / / / / / / / / / / / / / / / / / / / / / / / / / / / / / / / / / / / / ` / / / / Q G H Q / / / / / / / / ",
"/ / / / / / / / / / / / / / / / / / / / / / / / / / / / / / / / / / / / / / / / / / / / / / / / / / / / / / / / / / / / / / / / ",
"/ / / / / / / / / / / / / / / / / / / / / / / / / / / / / / / / / / / / / / / / / / / / / / / / / / / / / / / / / / / / / / / / ",
"/ / / / / / / / / / / / / / / / / / / / / / / / / / / / / / / / / / / / / / / / / / / / / / / / / / / / / / / / / / / / / / / / "
};
