/* XPM */
static char *_e722a6c2faa4415f15915cf9e82ed8dOaIpc0IB6MRQNOwz[] = {
/* columns rows colors chars-per-pixel */
"64 64 84 1 ",
"  c #B2B6F7",
". c #B4BBF8",
"X c #B5BCF8",
"o c #9ECDDF",
"O c #ADCBD7",
"+ c #AFCCD9",
"@ c #B3CFDF",
"# c #9DD3E8",
"$ c #85DDFF",
"% c #8CDBFA",
"& c #89DEFF",
"* c #8DDEFF",
"= c #93DCFB",
"- c #97DCFB",
"; c #96DFFF",
": c #9BDDFB",
"> c #9FDEFB",
", c #9ADFFF",
"< c #A0CFE1",
"1 c #A3D5EB",
"2 c #A4D6EC",
"3 c #B4D1E1",
"4 c #BAD6E9",
"5 c #BEDAEF",
"6 c #B7C1F9",
"7 c #A0DFFA",
"8 c #A5DFFB",
"9 c #A3DFFC",
"0 c #A6DEFC",
"q c #B3DBF3",
"w c #B5DDF5",
"e c #B8DBF3",
"r c #B8DDF6",
"t c #BDDEF7",
"y c #BED0FB",
"u c #BED0FC",
"i c #BED5FF",
"p c #BADEF8",
"a c #9BE1FF",
"s c #9EE0FF",
"d c #A8E0F6",
"f c #A3E2FA",
"g c #A5E2FA",
"h c #A2E0FF",
"j c #A7E1FF",
"k c #AAE2FB",
"l c #ACE3FB",
"z c #ABE1FF",
"x c #AFE1FF",
"c c #AAE7FF",
"v c #ADE7FF",
"b c #B1E3FB",
"n c #B6E2F9",
"m c #B1E3FC",
"M c #B7E2FF",
"N c #B2E6FF",
"B c #B5E6FF",
"V c #B8E2FA",
"C c #BBE2FF",
"Z c #BFE3FF",
"A c #B9E6FF",
"S c #C0D3FC",
"D c #C1D6FD",
"F c #C0D9FF",
"G c #C3DCFF",
"H c #C5DEFE",
"J c #C3E1FB",
"K c #C5E1FA",
"L c #C3E3FF",
"P c #C6E3FF",
"I c #C3E4FE",
"U c #C7E7FE",
"Y c #C8E4FF",
"T c #C7EAFE",
"R c #C7EEFD",
"E c #C8EAFE",
"W c #CDE9FF",
"Q c #CCEDFF",
"! c #D1EBFF",
"~ c #D3EEFF",
"^ c #CEF1FF",
"/ c #D7F2FF",
"( c #D9F3FF",
") c #DAF4FF",
/* pixels */
"YYYYYYYYYYYYYYYYYYYYYYYYYYYYYYYYYYYYYYYYYYYYYYYYYYYYYYYYUYYYYYYY",
"YYYYYYYYYYYYYYYYYYYYYYYYYYYYYYYYYYYYYYYYYYYYYYYYYYYYYYYYUYYYYYYY",
"YYYYYYYYYYYYYYYYYYYYYYYYYYYYLj,,xYYYYYYYYYPFFHYYYYYYYYYYUYMMLYYY",
"YYYYYYYYYYYYYYYYYYYYYYYYYYYZ*$$$$hYYYYYYYPiiiiHYYYYYYYYYY8::7UYY",
"YYYYYYYTRRYYYYYYYYYYYYYYYYYs$$$$$$xYYYYYYFiiiiiPYYYYYYYYZ::::mYY",
"YYYYYYTRRRRYYYYYYYYYYYYYYYU$$$$$$$;YYYYYYDiiiiiPYYYYYYYYM::::kYY",
"YYYYYYTRRRRYYYYYYYYYYYYYYYM$$$$$$$&YYYYYYFiiiiiPYYYYYYYYU::::MYY",
"YYYYYYTRRRRYYYYYYY~~YYYYYYC$$$$$$$&YYYYYYHiiiiFYYYYYYYYYYm::zYYY",
"YYYYYYYRRRTYYYYYY()))YYYYYU&$$$$$$,YYYYYYYGiiFPYYYYYYYYYYYPLYYYY",
"YYYYYYYYTEYYYYYYW))))!YYYYYj$$$$$$CYYYYYYYYYPYYYYYYYYYYYYYYYYYYY",
"YYYYYYYYYYYYYYYYW))))~YYYYYYh$$$$zYYYYYYYYYYYYYYYYYYYYYTTYYYYYYY",
"YYYYYYYYYYYYYYYYY))))WYYYYYYYMjzLYYYYYYYYYYYYYYYYYYYYYURRYYYYYYY",
"YYYYYYYYYYYYYYYYYW/)!YYYYYYYYYYYYYYYYYYYYYYYYYYYYYYYYYYRTYYYYYYY",
"YYYYYRRYYYYYYYYYYYYYYYYYYYYYYYYYYYYYYYYYYYYYYYYYYYYYYYYYYYYYYYYY",
"YYYYURRTYYYYYYYYYYYYYYYYYYYYYYYYYYYYYYYYYYYYYYYYYYYYYYYYYYYYYYYY",
"YYYYYRREYYYYYYYYYYYYYYYYYYYYYYYYUYYYYYYYYYYYUYYYYYYYYYYYYYYYYYYY",
"YYYYYYEYYYYYYYYYYYYYYYYYYYYYYYYRRTYYYYYYYYYRRRYYYYYYYYYYYYYYYYYY",
"YYYYYYYYYYYYYYYYYYYYYYYYYYYYYYYRRTYYYYYYYYURRRTYYYYYYYYYYYYYYYYY",
"YYYYYYYYYYYYYYYYYYYPCZLYYYYYYYYTRYYYYYYYYYYRRREYYYYYYYYYYYYYYYYY",
"YYYYYYYYYYYYYYYYYYMffffMYYYYYYYYYYYYYYYYYYYTRRYYYYYYYYYYYYYYYYYY",
"YYYYYYYYYYYYYYYYYMffffffMYYYYYYYYYYYYYYYYYYYYYYYYYYYYYYIUYYYYYYY",
"YYYYYYYYYYYYYYYYLfffffffgUYYYYYYYYYYYYYYYYYYYYYYYYYYYUvccBYYYYYY",
"YYYYYYYYYYYYYYYYZffffffffZYYYYYYYYYYYYYYYYYYYYYYYYYYYNccccAYYYYY",
"YYYYYYYYYYYYYYYYMffffffffCYYYYYYYYYYYYYYYYYYYYYYYYYYUcccccvYYYYY",
"YYYYYYYYYYYYYYYYCffffffffZYYYYYYYYYYYYYYYYYYYYYYYYYYUcccccvYYYYY",
"YYYYYYYYYYYYYYYYIffffffffIYYYYYYYYYYYYYYYYYYYYYYYYYYYcccccBYYYYY",
"YYYYYYYYYYYYYYYYYlffffffmYYYYYYYYYreYYYYYYTRRTYYYYYYYAcccvUYYYYY",
"YYYYYYYYTRRTYYYYYUkfffflUYYYYYYYYPoorYYYYYTRRRYYYYYYYYIBAUYYYYYY",
"YYYYYYYYRRRRTYYYYYYCmbZYYYYYYYYYYP<otYYYYYTRRRYYYYYYYYYYYYYYYYYY",
"YYYYYYYTRRRRRYYYYYYYYYYYYYYYYYYYYYJJYYYYYYYRREYYYYYYYYYYYYYYYYYY",
"YYYYYYYTRRRRRYYYYYYYYYYYYYYYYYYYYYYYYYYYYYYYYYYYYYHYYYYYYYYYYYYY",
"YYYYYYYYRRRREYYYYYYYYYYYYYYYYYYYYYYYYYYYYYYYYYYYY6 XPYYYYYYYYYYY",
"YYYYYYYYERRTYYYYYYYYYYYYYYYYYYYYYYYYYYYYYYYYYYYYS   yYYYYYYYYYYY",
"YYYYYYYYYYYYYYYYYYYYYYYYYYYYYYYYYYYYYYYYYYYYYYYYu   yYYYYYYYYYYY",
"YYYYYYYYYYYYYYYYYYYYYYYYYYYYYYYYYYYYYYYYYYYYYYYYP. .HYYYYYYYYYYY",
"YYYYYYYYYYYYYYYYYYYYZLYYYYYYYYYYYYYYYYYYYYYYYYYYYHDPYYYYYYYYYYYY",
"YYYYYYYYYYYYYYYYYYYm**mYYYYYYYYYYYYYYYYYYYYYYYYYYYYYYYYYYYYYYYYY",
"YYYYYYYYYYYYYYYYYYYs**hYYYYYYYYYYYYYLCYYYYYYYYYYYYYYYYYYYYYYYYYY",
"YYYYYYYYYYYYYYYYYYYs**hYYYYYYYYYYYP:%%=MYYYYYYYYYYYYYYYYYYYYYYYY",
"YYrrYYYYYYYYYYYYYYYLasLYYYYYYYYYYY9%%%%=LYYYYYYYYYYYYYYYYYYYYYYY",
"Yp##qYYYYYYYYYYYYYYYYYYYYYYYYYYYYL%%%%%%0YYYYYYYYYYYYYYYYYYYYYYY",
"Yw##qYYYYYYYYYYYYYYYYYYYYYYYYYYYYC%%%%%%:YYYYYYYYYYYYYYYYYTYYYYY",
"YP21LYYYYYYYYYYYYYYYYYYYYYYYYYYYYZ%%%%%%>YYYYYYYYYYYYYYYYTRRYYYY",
"YYYYYYYYYYYYYYYYYYYYYYYYYYYYYYYYYP=%%%%%mYYYYYTRRYYYYYYYYTRRYYYY",
"YYYYYYYYYYYYTYYYYYYYYYYYYYYYYYYYYYm%%%%-YYYYYYRRRTYYYYYYYYTYYYYY",
"YYYYYYYYYYYRRTYYYYYYYYYYYYYYYYYYYYYZ>>zPYYYYYYRRRTYYYYYYYYYYYYYY",
"YYYYYYYYYYYRRRYYYYYYYYYYYYYYYYYYYYYYYYYYYYYYYYERRYYYYYYYYYYYYYYY",
"YYYYYYYYYYYTREYYYYYYYYYYYYYYYYYYYYYYYYYYYYYYYYYYYYYYYYYYYYYYYYYY",
"YYYYYYYYYYYYYYYYYYYYYYYYYYYYYRRYYYYYYYYYYYYYYYYYYYYYYYYYYYYYYYYY",
"YYYYYYYYYYYYYYYYYYYYYYYYYYYYYRRYYYYYYYYYYYYYYYYYYYYYYYYYYYYYYYYY",
"YYYYYYYYYYYYYYYYYYYYYYYYYYYYYYYYYYYYYYYYYYYYYYYYYYYYYYYYYYYYYYYY",
"YYYYYYYYYYYYYYYYYYYYYYYUYYYYYYYYYYYYYYYYYYYYYYYYYYYYYYYYYYYYYYYY",
"YYYYYYYUTYYYYYYYYYYYYYRRTYYYYYYYYYYYYYEEYYYYYYYYYYYYYYYYYYYYYYYY",
"YYYYYYTRRTYYYYYYYYYYYYRRRYYYYYYYYYYYY^^^EYYYYYYYYYYYYYLZLYYYYYYY",
"YYYYYYTRRRYYYYYYYYYYYYRREYYYYYYYYYYYE^^^^YYYYYYYYYYYYVdddVYYYYYY",
"YYYYYYTRRRYYYYYP5KYYYYYYYYYYYYYYYYYYQ^^^^YYYYYYYYYYYPdddddLYYYYY",
"YYYYYYYRREYYYYY3O+YYYYYYYYYYYYYYYYYYY^^^^YYYYYYYYYYYVdddddnYYYYY",
"YYYYYYYYYYYYYYYOOOKYYYYYYYYYYYYYYYYYYW^QYYYYYYYYYYYYVdddddnYYYYY",
"YYYYYYYYYYYYYYY4O@YYYYYYYYYYYYYYYYYYYYYYYYYYYYTTYYYYLdddddZYYYYY",
"YYYYYYYYYYYYYYYYKYYYYYYYYYYYYYYYYYYYYYYYYYYYYYRRYYYYYVdddnYYYYYY",
"YYYYYYYYYYYYYYYYYYYYYYYYYYYYYYYYYYYYYYYYYYYYYYYEYYYYYYZVLYYYYYYY",
"YYYYYYYYYYYYYYYYYYYYYYYYYYYYYYYYYYYYYYYYYYYYYYYYYYYYYYYYYYYYYYYY",
"YYYYYYYYYYYYYYYYYYYYYYYYYYYYYYYYYYYYYYYYYYYYYYYYYYYYYYYYYYYYYYYY",
"YYYYYYYYYYYYYYYYYYYYYYYYYYYYYYYYYYYYYYYYYYYYYYYYYYYYYYYYYYYYYYYY"
};
