/* XPM */
static char *_bb9250b327546bb9dab24e92b3b0d3d89EQf5bhPgnQhUs3[] = {
/* columns rows colors chars-per-pixel */
"64 64 80 1 ",
"  c #7BD7FA",
". c #8DC4D9",
"X c #98CAE0",
"o c #9CCCE3",
"O c #8FDAF5",
"+ c #80D8FB",
"@ c #8AD9FB",
"# c #90D7F2",
"$ c #96DBF6",
"% c #9EDAF5",
"& c #9ADCF7",
"* c #9DDCF7",
"= c #97DCFC",
"- c #9CDCFC",
"; c #A3D0E7",
": c #A7D2EA",
"> c #AAD4EC",
", c #AED6EE",
"< c #A4D9EE",
"1 c #ABDCEF",
"2 c #B1DEEF",
"3 c #A2DBF6",
"4 c #A0DCF6",
"5 c #A8DBF0",
"6 c #ADDBF2",
"7 c #AADFF3",
"8 c #ACDDF0",
"9 c #A8DCF7",
"0 c #ADDFF5",
"q c #A2DEFD",
"w c #A6DEFD",
"e c #A8DEF9",
"r c #AFDFFA",
"t c #ABDFFD",
"y c #B2D8F1",
"u c #B2DEF3",
"i c #B4DFF1",
"p c #B6DEF6",
"a c #B8DFF6",
"s c #B0DFFE",
"d c #BADFF8",
"f c #94E1FE",
"g c #9BE1FE",
"h c #9CE4FF",
"j c #A2E0F7",
"k c #A7E1F8",
"l c #A1E1FE",
"z c #A4E2FE",
"x c #A1E4FF",
"c c #A4E4FF",
"v c #ADE1FA",
"b c #ABE2FE",
"n c #A9E4FF",
"m c #AEE4FF",
"M c #B1E0F6",
"N c #B9E0F7",
"B c #BCE1F6",
"V c #B2E0FB",
"C c #B6E1FB",
"Z c #B1E3FE",
"A c #B4E1FE",
"S c #B4E4FF",
"D c #B8E0F8",
"F c #BDE2FB",
"G c #B9E1FD",
"H c #BDE2FD",
"J c #B8E4FF",
"K c #BEE4FF",
"L c #C1E2FB",
"P c #C1E3FE",
"I c #C4E3FE",
"U c #C2E4FF",
"Y c #C5E4FF",
"T c #C8E4FF",
"R c #CCE6FE",
"E c #DEEFF6",
"W c #D3EAFB",
"Q c #D7EBF9",
"! c #D8EBF9",
"~ c #DAEEF8",
/* pixels */
"TTTTTTTTTTTTTTTTTTTTTTTTTTTTTTTTTTTTTTTTTTTTTTTTTTTTTTTTTTTTTTTT",
"TTTTTTTTTTTTTTTTTTTTTTTTTTTTTTTTTTTTTTTTTTTTTTTTTTTTTTTTTTTTTTTT",
"TTTTTTTTTTTTTTTTTTTTTTTTTTTTTTTTTTTTTTTTTTTTTTTTTTTTTTTTTTTTTTTT",
"TTTTTTTTTTTTTTTTTTTTTTTTTTTTTTTTTTTTTTTTTTTTTTTTTTTTTTTTTTTTTTTT",
"TTTTTTTTTTTTTTTTTTTTTTTTTTTTTTTTTTTTTTTTTTTTTTTTTTTTTTTTTTTTTTTT",
"TTTTTGePTTTTTTTTTTTTTTTTTTTTTTTTTTTTTTTTTTTTTTTTTTTTTTTTTTTTTTTT",
"TTTTPOO*TTTTTTTTTTTTTTTTTTTTTTTTTTTTTTTTTTTTTTLLITTTTTTTTTTTTTTT",
"TTTTHOO&TTTTTTTTTTTTTTTTTTTTTTTTTTTTTTTTTTTTTi22uITTTTTTTTTTTTTT",
"TTTTTe$CTTTTTTTTTTTTTTTTTTTTTTTITTTTTTTTTTTTF2222iTTTTTTTTTTTTTT",
"TTTTTTTTTTTTTTTTTTTTTTTTTTTTTTM7MYTTTTTTTTTTa2222uTTTTTTTTTTTTTT",
"TTTTTTTTTTTTTTTTTTTTTTTTTTTTTF777FTTTTTTTTTTN2222iTTTTTTTTTTTTTT",
"TTTTTTTTTTTTYJYTTTTTTTTTTTTTTF777FTTTTTTTTTTL2222BTTTTTTTTTTTTTT",
"TTTTTTTTTTTTchcTTTTTTTTTTTTTTY070ITTTTTTTTTTTFi2BTTTTTTTTTTTTTTT",
"TTTTTTTTTTTThhcTTTTTTTTTTTTTTTIPITTTTTTTTTTTTTTTTTTTTTTTTTTTTTTT",
"TTTTTTTTTTTTScJTTTTTTTTTTTTTTTTTTTTTTTTTTTTTTTTTTTTTTTTTTTTTTTTT",
"TTTTTTTTTTTTTTTTTTTTTTTTTTTTTTTTTTTTTTTTTTTTTTTTTTTTTTTTTTTTTTTT",
"TTTTTTTTTTTTTTTTTTTTTTTTTTTTTTTTTTTTTTTTTTTTTTTTTTTTTTTTTTTTTTTT",
"TTTTTTTTTTTTTTTTTTTTTTTTTTTTTTTTTTTTTTTTTTTTTTTTTTTTTTTTTTTTTTTT",
"TTTTTTTTTTTTTTTTTTTTTTTTTTTTTTTTTTTTTTTIGTTTTTTTTTTTTTTTTTTTTTTT",
"TTTTTTTTTTTTTTTTTTTTTTTTTTTTTTTTTTTTTTT3#rTTTTTTTTTTTTTTTTTTTTTT",
"TTTTTTTTTTTTTTTTTTTTTTTTTTTTTTTTTTTTTTT%#9TTTTTTTTTTTTTPPTTTTTTT",
"TTTTTTTTTTTTTTTTTTTTTTTTTTTTTTTTTTTTTTTPrPTTTTTTTTTTTTCjjHTTTTTT",
"TTTTTTTTTTTTTTTTTTTTTTTTTTTTTTTTTTTTTTTTTTTTTTTTTTTTTTjjjvTTTTTT",
"TTTTTTTTTTTTTTTTTTTTTTTTTTTTTTTTTTTTTTTTTTTTTTTTTTTTTTkjjVTTTTTT",
"TTTTTTTTTTTTTTTTTTTTTTTTTTTTTTTTTTTTTTTTTTTTTTTTTTTTTTCjkPTTTTTT",
"TTTTTTTTTTTTTTTTTTTTTTTD5<5FTTTTTTTTTTTTTTTTTTTTTTTTTTTTTTTTTTTT",
"TTTTTTTTIITTTTTTTTTTTTp<<<<<FTTTTTTTTTTTTTTTTTTTTTTTTTTTTTTTTTTT",
"TTTTTTTHgfZTTTTTTTTTTI<<<<<<<TTTTTTTTTTTTTTTTTTTTTTTTTTTTTTTTTTT",
"TTTTTTTzffgTTTTTTTTTTd<<<<<<<PTTTTTTTTTTTTTTTTTTTTTTTTTTTTTTTTTT",
"TTTTTTTbfflTTTTTTTTTTp<<<<<<<dTTTTTTTTTTTTTTTTTTTTTTTTTTTTTTTTTT",
"TTTTTTTUllUTTTTTTTTTTd<<<<<<<FTTTTTTTTTTTUTTTTTTTTTTTTTTTTTTTTTT",
"TTTTTTTTTTTTTTTTTTTTTI<<<<<<5TTTTTTTTTTKxhcUTTTTTTTTTTTTTTTTTTTT",
"TTTTTTTTTTTTTTTTTTTTTTd<<<<<FTTTTTTTTTYchhxnTTTTTTTTTTTTTTTTTTTT",
"TTTTTTTTTTTTTTTTTTTTTTTD5<6FTTTTTTTTTTKhhhxxYTTTTTTTTTTTTTTTTTTT",
"TTTTTTTTTTTTTTTTTTTTTTTTTTTTTTTTTTTTTTKhhhhxYTTTTTTTTTTTTTTTTTTT",
"TTTTTTTTTTTTTTTTTTTTTTTTTTTTTTTTTTTTTTYchhhmTTTTTTTTTTTTTTTTTTTT",
"TTTTTTTTTTTTTTTTTTTTTTTTTTTTTTTTTTTTTTTUchnUTTTTTTTTTTTTTTTTTTTT",
"TTTTTTTTTTTTTTTTTTTTTTTTTTTTTTTTTTTTTTTTTTTTTTTTTTTTTTTTTTTTTTTT",
"TTTTTTTTTTTTTTTTTTTTTTTTTTTTTTTTTTTTTTTTTTTTTTTTTTTTTPw-tTTTTTTT",
"TTTTTTTTTTTTTTTTTTTTTTTTTTTTTTTTTTTTTTTTTTTTTTTTTTTTT@   qTTTTTT",
"TTTTTTTTTTTTTTTTTTTTTTTTTTTTTTTTTTTTTTTTTTTTTTTTTTTTt     ATTTTT",
"TTTTTTTTTTTTTTTTTTTTTTTTTTTTTTTTTTTTTTTTTTTTTTTTTTTT=     tTTTTT",
"TTTTTTTTTTTTTTTTTTTTTTTTTTTTTTTTTTTTTTTTTTTTTTTTTTTT-     sTTTTT",
"TTTTTTTTTTTTTTTTTTTTTTTTTTTTTTTTTTTTTTTTTTTTTTTTTTTTA     HTTTTT",
"TTTTTTTTTTTIGPTTTTTTTTTTTTTTTTTTTTTTTTTTTTTTTTTTTTTTTq  +tTTTTTT",
"TTTTTTTTTTTgflTTTTTTTTTTTTTTTTTTTTTTTTTTTTTTTTTTTTTTTTHAPTTTTTTT",
"TTTTTTTTTTTfffYTTTTTTTTTTTTTTTTTTTTTTTTTTTTTTTTTTTTTTTTTTTTTTTTT",
"TTTTTTTTTTTbfbTTTTTTTTTTTTTTTTTTTTTTTTTTTTTTTTTTTTTTTTTTTTTTTTTT",
"TTTTTTTTTTTTPTTTTTTTTTTTTTTTTTTTTTTTTTTTTTTTTTTTTTTTTTTTTTTTTTTT",
"TTTTTTTTTTTTTTTTTTTTTTTTTTTTTTTTTTTTTTTTTTTTTTTTTTTTTTTTTTTTTTTT",
"TTTTTTTTTTTTTTTTTTTTTINuFTTTTTTTV4CTTTTTTTTTTTTTTTTTTTTTTTTTTTTT",
"TTTTTTTTTTTTTTTTTTTTTp111FTTTTTI$$&TTTTTTTTTTTTTTTTT,yTTTTTTTTTT",
"TTTTTTTTTTTTTTTTTTTTT1111pTTTTTI&$4TTTTTTTTTTTTTTTT:..>TTTTTTTTT",
"TTTTTTTTTTTTTTTTTTTTT8111pTTTTTTPrPTTTTTTTTTTTTTTTTo..XTTTTTTTTT",
"TTTTTRQRTTTTTTTTTTTTTN111PTTTTTTTTTTTTTTTTTTTTTTTTT>..;TTTTTTTTT",
"TTTTT~E!TTTTTTTTTTTTTTFaLTTTTTTTTTTTTTTTTTTTTTTTTTTIy>ITTTTTTTTT",
"TTTTT~EWTTTTTTTTTTTTTTTTTTTTTTTTTTTTTTTTTTTTTTTTTTTTTTTTTTTTTTTT",
"TTTTTTRTTTTTTTTTTTTTTTTTTTTTTTTTTTTTTTTTTTTTTTTTTTTTTTTTTTTTTTTT",
"TTTTTTTTTTTTTTTTTTTTTTTTTTTTTTTTTTTTTTTTTTTTTTTTTTTTTTTTTTTTTTTT",
"TTTTTTTTTTTTTTTTTTTTTTTTTTTTTTTTTTTTTTTTTTTTTTTTTTTTTTTTTTTTTTTT",
"TTTTTTTTTTTTTTTTTTTTTTTTTTTTTTTTTTTTTTTTTTTTTTTTTTTTTTTTTTTTTTTT",
"TTTTTTTTTTTTTTTTTTTTTTTTTTTTTTTTTTTTTTTTTTTTTTTTTTTTTTTTTTTTTTTT",
"TTTTTTTTTTTTTTTTTTTTTTTTTTTTTTTTTTTTTTTTTTTTTTTTTTTTTTTTTTTTTTTT",
"TTTTTTTTTTTTTTTTTTTTTTTTTTTTTTTTTTTTTTTTTTTTTTTTTTTTTTTTTTTTTTTT"
};
