/* XPM */
static char *f6c1bb76df664528b2d0599a5f7a3921XLRdkVfma1xH0c9e[] = {
/* columns rows colors chars-per-pixel */
"64 64 99 2 ",
"   c #78BAD4",
".  c #76C6E4",
"X  c #7BC8E6",
"o  c #82BFD9",
"O  c #8CC4DF",
"+  c #9EC4D3",
"@  c #A3C8D8",
"#  c #A5CADB",
"$  c #8ACEEB",
"%  c #9FD3E7",
"&  c #9AD3EF",
"*  c #8DD7F3",
"=  c #8ED8F5",
"-  c #89DCFB",
";  c #8DDDFB",
":  c #88DEFF",
">  c #9AD3F0",
",  c #9FD5F2",
"<  c #93D8F3",
"1  c #92D9F6",
"2  c #96D9F4",
"3  c #9ADAF5",
"4  c #9CDBF7",
"5  c #91DDFB",
"6  c #90DFFF",
"7  c #94DEFC",
"8  c #98DFFF",
"9  c #9DDFFC",
"0  c #A4D5EA",
"q  c #A5D1EC",
"w  c #A9D7ED",
"e  c #ACD8EF",
"r  c #B0D2E6",
"t  c #B2D7E6",
"y  c #B6D6EC",
"u  c #B3D8E8",
"i  c #B4D9E9",
"p  c #B7DAEC",
"a  c #AFD7F1",
"s  c #A0DBF6",
"d  c #A4DCF7",
"f  c #A9DEF3",
"g  c #ADDFF5",
"h  c #A7DDF9",
"j  c #A1DFFD",
"k  c #AFDFFB",
"l  c #B3DBF3",
"z  c #B1DFF6",
"x  c #BBDDF1",
"c  c #BDDDF2",
"v  c #B8DDF6",
"b  c #BFDFF6",
"n  c #BED3FF",
"m  c #BED4FF",
"M  c #B3DDF8",
"N  c #B4DFFB",
"B  c #B9DEFA",
"V  c #BDDFF9",
"C  c #93E1FF",
"Z  c #96E1FF",
"A  c #9AE1FF",
"S  c #9EE3FF",
"D  c #A3E2FF",
"F  c #A7E2FF",
"G  c #ABE3F9",
"H  c #AEE3F9",
"J  c #A8E1FF",
"K  c #AEE2FF",
"L  c #AFE4FF",
"P  c #B6E3FB",
"I  c #B0E2FF",
"U  c #B4E3FF",
"Y  c #B8E1F9",
"T  c #BEE2FB",
"R  c #BAE3FF",
"E  c #BDE2FD",
"W  c #BBE4FC",
"Q  c #C1DEF7",
"!  c #C0D6FF",
"~  c #C3DBFF",
"^  c #C4DDFF",
"/  c #C1E0F7",
"(  c #C0E1FB",
")  c #C4E2FA",
"_  c #C0E3FE",
"`  c #C4E3FE",
"'  c #C1E4FE",
"]  c #C7E7FE",
"[  c #C8E4FF",
"{  c #C7EBFE",
"}  c #C7EDFD",
"|  c #C8EAFE",
" . c #CFEAFF",
".. c #D0EBFF",
"X. c #D3EDFF",
"o. c #D5EFFF",
"O. c #D7F0FF",
"+. c #DAF3FF",
"@. c #DEF6FF",
/* pixels */
"[ [ [ [ [ [ [ [ [ [ [ [ [ [ [ [ [ [ [ [ [ [ [ [ [ [ [ [ [ [ [ [ [ [ [ [ [ [ [ [ [ [ [ [ [ [ [ [ [ [ [ [ [ [ [ [ [ [ [ [ [ [ [ [ ",
"[ [ [ [ [ [ [ [ [ [ [ [ [ [ [ [ [ [ [ [ [ [ [ [ [ [ [ [ [ [ [ [ [ [ [ [ [ [ [ [ [ [ [ [ [ [ [ [ [ [ [ [ [ [ [ [ [ [ [ [ [ [ [ [ ",
"[ [ k 4 _ [ [ [ [ [ [ [ [ [ [ [ [ [ [ [ [ [ [ [ [ [ [ [ [ [ [ [ [ [ [ [ [ [ [ [ [ [ [ [ [ [ [ [ [ [ [ [ [ [ [ [ [ [ [ [ [ [ [ [ ",
"[ E = = h [ [ [ [ [ [ [ [ [ [ [ [ [ [ [ [ [ [ [ [ [ [ [ [ [ [ [ [ [ [ [ [ [ [ [ [ [ [ [ [ [ [ [ [ [ [ [ [ [ [ [ [ [ [ [ [ [ [ [ ",
"[ ` 1 = k [ [ [ [ [ [ [ [ [ [ [ [ [ [ [ [ [ [ [ [ _ R [ [ [ [ [ [ [ [ [ [ [ [ [ [ ` c p x ` [ [ [ [ [ [ [ [ [ [ [ [ [ [ [ [ [ [ ",
"[ [ E k [ [ [ [ [ [ [ [ [ [ [ [ [ [ [ [ [ [ [ [ F C C A _ [ [ [ [ [ [ [ [ [ [ [ [ i t t t p [ [ [ [ [ [ [ [ _ Y T ` [ [ [ [ [ [ ",
"[ [ [ [ [ [ [ [ [ [ [ [ [ [ [ [ [ [ [ [ [ [ [ U C C C C D [ [ [ [ [ [ [ [ [ [ [ Q t t t t t ( [ [ [ [ [ [ T f f f g ] [ [ [ [ [ ",
"[ [ [ [ [ [ [ [ [ [ [ [ [ [ [ [ [ [ [ [ [ [ [ F C C C C Z [ [ [ [ [ [ [ [ [ [ [ c t t t t t c [ [ [ [ [ [ g f f f f Y [ [ [ [ [ ",
"[ [ [ [ [ [ [ [ [ [ [ [ [ [ [ [ [ [ [ [ [ [ [ F C C C C A [ [ [ [ [ [ [ [ [ [ [ b t t t t t b [ [ [ [ [ _ f f f f f g [ [ [ [ [ ",
"[ [ [ [ [ [ [ [ [ [ [ [ [ [ [ [ [ [ [ [ [ [ [ R C C C C F [ [ [ [ [ [ [ [ [ [ [ ` u t t t i ` [ [ [ [ [ ` f f f f f z [ [ [ [ [ ",
"[ [ [ [ [ [ [ [ [ [ [ [ [ [ [ [ [ [ [ [ [ [ [ [ K C C D ] [ [ [ [ [ [ [ [ [ [ [ [ / i t i ) [ [ [ [ [ [ [ g f f f f T [ [ [ [ [ ",
"[ [ [ [ [ [ [ [ [ [ [ [  .+.+...[ [ [ [ [ [ [ [ [ [ ] [ [ [ [ [ [ [ [ [ [ [ [ [ [ [ [ ` [ [ [ [ [ [ [ [ [ _ g f f P [ [ [ [ [ [ ",
"[ [ [ [ [ [ [ [ [ [ [ [ @.@.@.@. .[ [ [ [ [ [ [ [ [ [ [ [ [ [ [ [ [ [ [ [ [ [ [ [ [ [ [ [ [ [ [ [ [ [ [ [ [ [ _ _ [ [ [ [ [ [ [ ",
"[ [ [ [ [ } } [ [ [ [ ..@.@.@.@.o.[ [ [ [ [ [ [ [ [ [ [ [ [ [ [ [ [ [ [ [ [ [ [ [ [ [ [ [ [ [ [ [ [ [ [ [ [ [ [ [ [ [ [ [ [ [ [ ",
"[ [ [ [ ] } } { [ [ [ ..@.@.@.@.X.[ [ [ [ [ [ [ [ [ [ [ [ [ [ [ [ [ [ [ [ [ [ [ [ [ [ [ [ [ [ [ [ [ [ [ [ [ [ [ [ [ [ [ [ [ [ [ ",
"[ [ [ [ [ } } | [ [ [ [ @.@.@.@.[ [ [ [ [ [ [ [ [ [ [ [ [ [ [ [ [ [ [ [ [ [ [ [ [ [ [ ` E _ [ [ [ [ [ [ [ [ [ [ [ [ [ [ [ [ [ [ ",
"[ [ [ [ [ [ | [ [ [ [ [ [ +.O. .[ [ [ [ [ [ [ [ [ [ [ [ [ [ [ [ [ [ [ [ [ [ [ [ [ [ [ 2 * 2 ` [ [ [ [ [ [ [ [ [ [ [ [ [ [ [ [ [ ",
"[ [ [ [ [ [ [ [ [ [ [ [ [ [ [ [ [ [ [ [ [ [ [ [ [ [ [ [ [ [ [ [ ' J W [ [ [ [ [ [ [ P * * * k [ [ [ [ [ [ [ [ [ [ [ [ [ [ [ [ [ ",
"[ [ [ [ [ [ [ [ [ [ [ [ [ [ [ [ [ [ [ [ [ [ [ [ [ [ [ [ [ [ [ [ K A S [ [ [ [ [ [ [ R * * * M [ [ [ [ [ [ [ [ [ [ [ [ [ [ [ [ [ ",
"[ [ [ [ [ [ [ [ [ [ [ [ [ [ [ [ [ [ [ [ [ [ [ [ [ [ [ [ [ [ [ [ W A L [ [ [ [ [ [ [ [ s * 3 _ [ [ [ [ [ [ [ [ [ [ [ [ [ [ [ [ [ ",
"[ [ [ [ [ [ [ [ [ [ [ [ [ [ [ [ [ [ [ [ [ [ [ [ [ [ [ [ [ [ [ [ [ ] [ [ [ [ [ [ [ [ [ [ _ [ [ [ [ [ [ [ [ [ [ _ ] [ [ [ [ [ [ [ ",
"[ [ [ [ [ [ [ [ [ [ [ [ [ [ [ [ [ [ [ [ [ [ [ [ [ [ [ [ [ [ [ [ [ [ [ [ [ [ [ [ [ [ [ [ [ [ [ [ [ [ [ [ [ [ R G G ' [ [ [ [ [ [ ",
"[ [ [ [ [ [ [ [ [ [ [ [ [ [ [ [ [ [ [ [ [ [ [ [ [ [ [ [ [ [ [ [ [ [ [ [ [ [ [ [ [ [ [ [ [ [ [ [ [ [ [ [ [ [ G G G P [ [ [ [ [ [ ",
"[ [ [ [ [ [ [ [ [ [ [ [ [ [ [ [ [ [ [ [ ` ` [ [ [ [ [ [ [ [ [ [ [ [ [ [ [ [ [ [ [ [ { [ [ [ [ [ [ [ [ [ [ [ H G G P [ [ [ [ [ [ ",
"[ [ [ [ [ [ [ [ [ [ [ [ [ [ [ [ [ [ [ ! n n ~ [ [ [ [ [ [ [ [ [ [ [ [ [ [ [ [ [ [ { } { [ [ [ [ [ [ [ [ [ [ W G H ] [ [ [ [ [ [ ",
"[ [ [ [ [ [ [ [ [ [ [ [ [ [ [ [ [ [ ^ n n n n ^ [ [ [ [ [ [ [ [ [ [ [ [ [ [ [ [ [ { } { [ [ [ [ [ [ [ [ [ [ [ [ [ [ [ [ [ [ [ [ ",
"[ [ [ [ [ [ [ [ [ [ [ [ [ [ [ [ [ [ ! n n n n ~ [ [ [ [ [ [ [ [ [ [ [ [ [ [ [ [ [ [ | [ [ [ [ [ [ [ [ [ [ [ [ [ [ [ [ [ [ [ [ [ ",
"[ [ [ [ [ [ [ [ [ [ [ [ [ [ [ [ [ [ ! n n n n ~ [ [ [ [ [ [ [ [ [ [ [ [ [ [ [ [ [ [ [ [ [ [ [ [ [ [ [ [ [ [ [ [ [ [ [ [ [ [ [ [ ",
"[ [ [ [ [ [ [ [ [ [ [ [ [ [ [ [ [ [ ^ n n n n ` [ [ [ [ [ [ [ [ [ [ [ [ [ [ [ [ [ [ [ [ [ [ [ [ [ [ [ [ [ [ [ [ [ [ [ [ [ [ [ [ ",
"[ [ [ [ [ [ [ [ [ [ [ [ [ [ [ [ [ [ [ ^ m n ~ [ [ [ [ [ [ [ [ [ [ [ [ [ [ [ [ [ [ [ [ [ [ [ [ [ [ [ [ [ [ [ [ [ [ [ [ [ [ [ [ [ ",
"[ [ [ [ [ [ [ [ [ [ [ [ [ [ [ [ [ [ [ [ [ [ [ [ [ [ [ [ [ [ [ [ [ [ _ ` [ [ [ [ [ [ [ [ [ [ [ [ [ [ V [ [ [ [ [ [ [ [ [ [ [ [ [ ",
"[ [ [ [ [ [ [ [ [ [ [ [ [ [ [ [ [ [ [ [ [ [ [ [ [ [ [ [ [ [ [ [ E s < < s _ [ [ [ [ [ [ [ [ [ [ [ O   o _ [ [ [ [ [ [ [ [ [ [ [ ",
"[ [ [ [ [ [ [ [ , X > [ [ [ [ [ [ [ [ [ [ [ [ [ [ [ [ [ [ [ [ _ 2 < < < < 3 ` [ [ [ [ [ [ [ [ [ w       q [ [ [ [ [ [ [ [ [ [ [ ",
"[ [ [ [ [ [ [ B . . . B [ [ [ [ [ [ [ [ [ [ [ [ [ [ [ [ [ [ [ h < < < < < < k [ [ [ [ [ [ [ [ [ q       q [ [ [ [ [ [ [ [ [ [ [ ",
"[ [ [ [ [ [ [ B . . . M [ [ [ [ [ [ [ [ [ [ [ [ [ [ [ [ [ [ [ 2 < < < < < < 4 [ [ [ [ [ [ [ [ [ _ o   o V [ [ [ [ [ [ [ [ [ [ [ ",
"[ [ [ [ [ [ [ [ & . $ [ [ [ [ [ [ [ [ [ [ [ [ [ [ [ [ [ [ [ [ < < < < < < < 3 [ [ [ [ [ [ [ [ [ [ V a _ [ [ [ [ [ [ [ [ [ [ [ [ ",
"[ [ [ [ [ [ [ [ [ _ [ [ [ [ [ [ [ [ [ [ [ [ [ [ [ [ [ [ [ [ [ 3 < < < < < < s [ [ [ [ [ [ [ [ [ [ [ [ [ [ [ [ [ [ [ [ [ [ [ [ [ ",
"[ [ [ [ [ [ [ [ [ [ [ [ [ [ [ [ [ [ [ [ [ [ [ [ [ [ [ [ [ [ [ k < < < < < < N [ [ [ [ [ [ [ [ [ [ [ [ [ [ [ [ [ [ [ [ [ [ [ [ [ ",
"[ [ [ [ [ [ [ [ [ [ [ [ [ [ [ [ [ [ [ [ [ [ [ [ [ [ [ [ [ [ [ ` 4 < < < < h [ [ [ [ [ [ [ [ [ [ [ [ [ [ [ [ [ [ [ [ [ [ [ [ [ [ ",
"[ [ [ [ [ [ [ [ [ [ [ [ [ [ [ [ [ [ [ [ [ [ [ [ [ [ [ [ [ [ [ [ [ M s d N [ [ [ [ [ [ [ [ [ [ [ [ [ [ [ [ [ [ [ [ [ [ [ [ [ [ [ ",
"[ [ [ [ [ [ [ [ [ [ [ [ [ [ [ [ [ [ [ [ [ [ [ [ [ [ [ [ [ [ [ [ [ [ [ [ [ [ [ [ [ [ [ [ [ [ [ [ [ [ [ [ [ [ [ [ [ [ [ [ [ [ [ [ ",
"[ [ [ [ [ [ [ [ [ [ [ [ [ [ [ [ [ [ [ [ ] [ [ [ [ [ [ [ [ [ [ [ [ [ [ [ [ [ [ [ [ [ [ [ [ [ [ [ [ [ [ [ [ [ [ [ [ [ [ [ [ [ [ [ ",
"[ [ [ [ [ [ [ [ [ [ [ [ [ [ [ [ [ [ [ { } { [ [ [ [ [ [ [ [ [ [ [ [ [ [ [ [ [ [ [ [ [ [ [ [ [ [ [ [ [ [ [ [ [ [ [ [ [ [ [ [ [ [ ",
"[ [ [ [ [ [ [ [ [ [ [ [ [ [ [ [ [ [ [ { } { [ [ [ [ [ [ [ [ [ [ [ [ [ [ [ [ [ [ [ [ [ [ [ [ [ [ [ [ [ [ [ [ [ _ 8 - 5 K [ [ [ [ ",
"[ [ [ [ [ [ [ [ [ [ [ [ { [ [ [ [ [ [ [ { [ [ [ [ [ [ [ [ [ [ [ [ [ [ [ [ [ [ [ [ [ [ [ [ [ [ [ [ [ [ [ [ [ [ 5 - - - - R [ [ [ ",
"[ [ [ [ [ [ [ [ [ [ [ } } { [ [ [ [ [ [ [ [ [ [ [ [ [ [ [ [ [ [ [ [ [ [ [ [ [ [ [ [ [ [ [ ] [ [ [ [ [ [ [ [ R - - - - - j [ [ [ ",
"[ [ [ [ [ [ [ [ [ [ [ } } } [ [ [ [ [ [ [ [ [ [ [ [ [ [ [ [ [ [ [ [ [ [ [ [ [ [ [ [ [ [ } } } [ [ [ [ [ [ [ I - - - - - 8 [ [ [ ",
"[ [ [ [ [ [ [ [ [ [ [ { } | [ [ [ [ [ [ [ [ [ [ [ [ [ [ [ [ [ [ [ [ [ [ [ [ [ [ [ [ [ ] } } } [ [ [ [ [ [ [ E - - - - - j [ [ [ ",
"[ [ [ [ [ [ [ [ [ [ [ [ [ [ [ [ [ [ [ [ [ [ [ [ [ [ [ [ [ } } [ [ [ [ [ [ [ [ [ [ [ [ [ } } } [ [ [ [ [ [ [ [ 9 - - - ; _ [ [ [ ",
"[ [ [ [ [ [ [ [ [ [ [ [ [ [ [ [ [ [ [ [ [ [ [ [ [ [ [ [ [ } } [ [ [ [ [ [ [ [ [ [ [ [ [ | } | [ [ [ [ [ [ [ [ ] F 7 8 E [ [ [ [ ",
"[ [ [ [ [ [ [ [ [ [ [ [ [ [ [ [ [ [ [ [ [ [ [ [ [ [ [ [ [ [ [ [ [ [ [ [ [ [ [ [ [ [ [ [ [ [ [ [ [ [ [ [ [ [ [ [ [ [ [ [ [ [ [ [ ",
"[ [ [ [ [ [ [ [ [ [ [ [ [ [ [ [ [ [ [ [ [ [ ` ( [ [ [ [ [ [ [ [ [ [ [ [ [ [ [ [ [ [ [ [ [ [ [ [ [ [ [ [ [ [ [ [ [ [ [ [ [ [ [ [ ",
"[ [ [ [ [ [ [ V v [ [ [ [ [ [ [ [ [ [ [ [ [ @ + y [ [ [ [ [ [ [ [ [ [ [ [ ` I U [ [ [ [ [ [ [ [ [ [ [ [ [ [ [ [ [ [ [ [ [ [ [ [ ",
"[ [ [ [ [ [ v % % w [ [ [ [ [ [ [ [ [ [ [ Q + + # [ [ [ [ [ [ [ [ [ [ [ _ 6 : : J [ [ [ [ [ [ [ [ [ [ [ [ [ [ [ [ [ [ [ [ [ [ [ ",
"[ [ [ [ [ [ w % % % _ [ [ [ [ [ [ [ [ [ [ ` @ + r [ [ [ [ [ [ [ [ [ [ [ J : : : : ] [ [ [ [ [ [ [ [ [ [ [ [ [ [ [ [ [ [ [ [ [ [ ",
"[ [ [ [ [ [ e % % % ` [ [ [ [ [ [ [ [ [ [ [ ( Q [ [ [ [ [ [ [ [ [ [ [ [ D : : : : _ [ [ [ [ [ [ [ [ [ [ [ [ [ [ [ [ [ [ [ [ [ [ ",
"[ [ [ [ [ [ ( 0 % l [ [ [ [ [ [ [ [ [ [ [ [ [ [ [ [ [ [ [ [ [ [ [ [ [ [ R : : : 6 [ [ [ [ [ [ [ [ [ [ [ [ [ [ [ [ [ [ [ [ [ [ [ ",
"[ [ [ [ [ [ [ [ [ [ [ [ [ [ [ [ [ [ [ [ [ [ [ [ [ [ [ [ [ [ [ [ [ [ [ [ [ J 6 8 _ [ [ [ [ [ [ [ [ [ [ [ [ [ [ [ [ [ [ [ [ [ [ [ ",
"[ [ [ [ [ [ [ [ [ [ [ [ [ [ [ [ [ [ [ [ [ [ [ [ [ [ [ [ [ [ [ [ [ [ [ [ [ [ [ [ [ [ [ [ [ [ [ [ [ [ [ [ [ [ [ [ [ [ [ [ [ [ [ [ ",
"[ [ [ [ [ [ [ [ [ [ [ [ [ [ [ [ [ [ [ [ [ [ [ [ [ [ [ [ [ [ [ [ [ [ [ [ [ [ [ [ [ [ [ [ [ [ [ [ [ [ [ [ [ [ [ [ [ [ [ [ [ [ [ [ ",
"[ [ [ [ [ [ [ [ [ [ [ [ [ [ [ [ [ [ [ [ [ [ [ [ [ [ [ [ [ [ [ [ [ [ [ [ [ [ [ [ [ [ [ [ [ [ [ [ [ [ [ [ [ [ [ [ [ [ [ [ [ [ [ [ ",
"[ [ [ [ [ [ [ [ [ [ [ [ [ [ [ [ [ [ [ [ [ [ [ [ [ [ [ [ [ [ [ [ [ [ [ [ [ [ [ [ [ [ [ [ [ [ [ [ [ [ [ [ [ [ [ [ [ [ [ [ [ [ [ [ ",
"[ [ [ [ [ [ [ [ [ [ [ [ [ [ [ [ [ [ [ [ [ [ [ [ [ [ [ [ [ [ [ [ [ [ [ [ [ [ [ [ [ [ [ [ [ [ [ [ [ [ [ [ [ [ [ [ [ [ [ [ [ [ [ [ ",
"[ [ [ [ [ [ [ [ [ [ [ [ [ [ [ [ [ [ [ [ [ [ [ [ [ [ [ [ [ [ [ [ [ [ [ [ [ [ [ [ [ [ [ [ [ [ [ [ [ [ [ [ [ [ [ [ [ [ [ [ [ [ [ [ "
};
