/* XPM */
static char *_823ec4a996a4086cfd147467b84cd3f1tWTsgNazObhbBVR[] = {
/* columns rows colors chars-per-pixel */
"64 89 50 1 ",
"  c None",
". c #2B2828",
"X c #373434",
"o c #373535",
"O c #383434",
"+ c #434141",
"@ c #444040",
"# c #444141",
"$ c #4F4D4D",
"% c #504C4C",
"& c #504D4D",
"* c #5B5959",
"= c #5C5959",
"- c #686565",
"; c #686666",
": c #696666",
"> c #747171",
", c #747272",
"< c #757272",
"1 c #CB2222",
"2 c #CC2121",
"3 c #CC2222",
"4 c #CD2222",
"5 c #CC2323",
"6 c #CD2323",
"7 c #807E7E",
"8 c #817E7E",
"9 c #8D8A8A",
"0 c #999696",
"q c #999797",
"w c #A5A2A2",
"e c #A6A3A3",
"r c #B1AEAE",
"t c #B2AFAF",
"y c #BDBABA",
"u c #BEBBBB",
"i c #CAC7C7",
"p c #D6D3D3",
"a c #D7D3D3",
"s c #D7D4D4",
"d c #E2DFDF",
"f c #E3DFDF",
"g c #E3E0E0",
"h c #EDEAEA",
"j c #EDEBEB",
"k c #EEEBEB",
"l c #EFEBEB",
"z c #EDECEC",
"x c #EFECEC",
"c c #EFEDED",
/* pixels */
"                           jxxxxxxxxxxxxj                       ",
"                      xxxxxxxxxxxxxxxxxxxxxxxj                  ",
"                  jxxxxxxxxxxxxxxxxxxxxxxxxxxxxxx               ",
"                xxxxxxxxxxxxxxxxxxxxxxxxxxxxxxxxxxx             ",
"              xxxxxxxxxxxxxxxxxxxxxxxxxxxxxxxxxxxxxx            ",
"             xxxxxxxxxxxxxxxxxxxxxxxxxxxxxxxxxxxxxxxxx          ",
"            xxxxxxxxxxxxxxxxxxxxxxxxxxxxxxxxxxxxxxxxxxx         ",
"           xxxxxxxxxpuudxxxxxxxxxxxxxxxxxxxxxxxxxxxxxxxx        ",
"          xxxxxxi9=X....9xxxxxxxxxxxxxxxxxxxxu0<=<txxxxx        ",
"         xxxxxu=.........ixxxxxxxxxxxxxxxxd9X......<pxxxx       ",
"        xxxxx8...........uxxxxxxxxxxxxxxd9X.........+wxxxj      ",
"        xxxp=............uxxxxd08wxxxxx0X.............9xxx      ",
"       xxxd+.............gxxu=....+pxxp................uxx      ",
"       xxx8.............<xx8........0x9................9xxj     ",
"       xxxX...........O0xx=..........9p<...............txxx     ",
"      xxxu..........=0dxxw............9xpw=...........8xxxx     ",
"      xxxi@..O@=<9tdxxxxx+.............wxxxduw99990wtdxxxxxx    ",
"      xxxxxxxxxxxxxxxxxxu..............Xgxxxxxxxxxxxxxxxxxxxj   ",
"     xxxxxxxxxxxxxxxxxxxw...............0xxxxxxxxxxxxxxxxxxxx   ",
"     xxxxxxxxxxxxxxxxxxxw...............9xxxxxxxxxxxxxxxxxxxxx  ",
"    xxxxxxxxxxxxxxxxxxxxs...............9xxxxxxxxxxxxxxxxxxxxx  ",
"    xxxxxxxxxxxxxxxxxxxxx&....O8w0<@...@pxxxxxxxxxxxxxxxxxxxxxx ",
"   xxxxxxxxxxxxxxxxxxxxxxxw88wdxxxxxiuidxxxxxxxxxxxxxxxxxxxxxxx ",
"  xxxxxxxxxxxxxxxxxxxxxxxxxxxxxxxxxxxxxxxxxxxxxxxxxxduuidxxxxxxx",
" xxxxd9-=-9uxxxxxxxxxxxxxxxxxxxxxxxxxxxxxxxxxxxxxxu=.....&=9ixxx",
" xxxpX......+0xxxxxxxxxxxxxxxxxxxxxxxxxxxxxxxxxxx+...........-xx",
" xxxu.........-gxxxxxxxxppxx<809w<ww<=090ixxxxxxw............9xj",
" jxxx<.........8xxxxxx0-&w8=wxx0Xdxxx$xp&w9wxxxx-..........9dx  ",
"  xxxg@.........gxxxp-p=pxi=xxxi+pxxx-gxg9x0&xxx=.........uxx   ",
"    xxpX........uxxi+wx=xu<+==&@......+<t$xs&9xxX.........ux    ",
"     xxp@.......8d0&0wwXX.................w09<px........O0xj    ",
"      xxxw@......Xp=i0-X..................=wu<&9...@0tuixxx     ",
"      xxxxx9.....Xuu=-X...................09=<-8..@dxxxxxxx     ",
"     xxxxxxx&....09=0w.....................iu909X.+pxxxxxxx     ",
"      xxxxxx<...@uuu0X.....................X99w<...Xtxxxxxx     ",
"      xxxxxx<....-&X..........................&.....Xpxxxx      ",
"       xxxxx<........................................8xxxx      ",
"       jxxxx0........................................-xxx       ",
"       xxxxxt........................................-xxx       ",
"        xxxxg........................................txxx       ",
"        xxxxx=......................................9xxx        ",
"         xxxxu.....................................9xxxj        ",
"         xxxxx8...................................8xxxx         ",
"          xxxxx&.................................@dxxxx         ",
"           xxxxp@................................wxxxxx         ",
"           xxxxxu...............................@xxxxxx         ",
"            xxxxgX...........................@..wxxxxx          ",
"            xxxxx@OX<-.....................&uxpXxxxxxx          ",
"             xxxx=ui0t-...................O9w0w=xxxxxx          ",
"             xxxx0=<80-...................@99ux<xxxxx           ",
"             xxxxu<0990...................@tit<8xxxx            ",
"             xxxxg=<8wt&..................@wut$0xxx             ",
"              xxxx9<d09&..................@909-uxx              ",
"              xxxxx-=pxp..................-908<gxx              ",
"              xxxxxp$098=9@...............wuxu=xx               ",
"               xxxxxw&xxg$w=.............*9<9-pxx               ",
"               xxxxxx99p-8@99=........@u<0x-=pxxj               ",
"                xxxxxxw&8i-x&w0@-88-twwx-t99xxxx                ",
"                 xxxxxxxww-w-0x8xx<ixw=<=txxxxx                 ",
"                   xxxxxxxpuw908ui<9t0udxxxxxx                  ",
"                    jxxxxxxxxxxxxxxxxxxxxxxx                    ",
"                      jxxxxxxxxxxxxxxxxxxxx                     ",
"                         xxxxxxxxxxxxxxxj                       ",
"                            jxxxxxxxx                           ",
"                                                                ",
"                                                                ",
"                                                                ",
"                                                                ",
"                                                                ",
"                                                                ",
"                                                                ",
"55555555551      555555  55555       55555555       55555555555 ",
"55555555551      555555  55555       55555555       55555555555 ",
"55555555551       55555  55555       55555555       55555555555 ",
"55555555551       55555  55555       55555555       55555555555 ",
"55555             55555  55555        555555          555555    ",
"55555             55555 15555         555551           55555    ",
"55555             55555 55555         555551           55555    ",
"555555555          5555555555         555551           55555    ",
"555555555          5555555555         555551           55555    ",
"555555555          5555555555         555551           55555    ",
"555555555         15555555555         555551           55555    ",
"55555             55555555555         555551           55555    ",
"55555             55555 15555         555551           55555    ",
"5555551111        55555  55555        555555           55555    ",
"55555555551       55555  55555       55555555          55555    ",
"55555555551       55555  55555       55555555          55555    ",
"55555555551      555555  55555       55555555          55555    ",
"5555555555       555551  55555       55555555          55555    "
};
